<?xml version="1.0" standalone="no"?>
<!DOCTYPE svg PUBLIC "-//W3C//DTD SVG 20010904//EN"
 "http://www.w3.org/TR/2001/REC-SVG-20010904/DTD/svg10.dtd">
<svg version="1.0" xmlns="http://www.w3.org/2000/svg"
 width="128.000000pt" height="128.000000pt" viewBox="0 0 128.000000 128.000000"
 preserveAspectRatio="xMidYMid meet">

<g transform="translate(0.000000,128.000000) scale(0.100000,-0.100000)"
fill="#000000" stroke="none">
<path d="M415 1084 c-71 -11 -194 -56 -241 -88 -144 -97 -196 -252 -164 -479
17 -115 18 -117 95 -117 l66 0 76 -66 c149 -130 291 -171 430 -124 69 23 125
54 224 120 32 22 61 40 65 40 3 0 27 -17 53 -38 117 -98 158 -110 210 -67 57
48 67 151 19 202 -13 14 -76 61 -141 105 -65 43 -122 89 -127 101 -5 12 -28
83 -51 157 -37 122 -45 139 -83 176 -58 56 -128 75 -281 79 -66 2 -133 1 -150
-1z m329 -84 c33 -14 67 -36 77 -50 10 -14 36 -82 57 -151 l39 -127 -76 -12
c-150 -24 -380 -81 -515 -129 -33 -12 -60 -21 -61 -21 -1 0 -11 30 -21 68 -28
100 -27 263 3 317 31 57 74 95 135 117 81 28 280 22 362 -12z m288 -441 c70
-46 88 -69 55 -69 -24 0 -137 -60 -218 -116 -46 -31 -118 -73 -159 -92 -63
-30 -86 -36 -146 -36 -62 0 -81 4 -145 36 -89 44 -190 130 -173 148 30 31 363
128 561 164 128 23 138 22 225 -35z"/>
</g>
</svg>
