<?xml version="1.0" standalone="no"?>
<!DOCTYPE svg PUBLIC "-//W3C//DTD SVG 20010904//EN"
 "http://www.w3.org/TR/2001/REC-SVG-20010904/DTD/svg10.dtd">
<svg version="1.0" xmlns="http://www.w3.org/2000/svg"
 width="256.000000pt" height="256.000000pt" viewBox="0 0 256.000000 256.000000"
 preserveAspectRatio="xMidYMid meet">

<g transform="translate(0.000000,256.000000) scale(0.100000,-0.100000)"
fill="#000000" stroke="none">
<path d="M1574 2191 c-29 -18 -54 -63 -54 -99 0 -12 10 -14 54 -9 68 7 114
-14 184 -84 189 -189 220 -562 91 -1089 -12 -51 -29 -94 -36 -97 -22 -9 -240
34 -548 107 -159 38 -308 71 -330 74 -93 14 -265 22 -335 16 l-75 -7 -170
-117 c-212 -147 -342 -245 -349 -262 -7 -19 2 -41 19 -48 8 -3 34 4 59 15 133
59 434 37 618 -44 31 -14 96 -51 144 -83 49 -32 115 -69 149 -84 56 -23 70
-25 215 -24 124 1 170 5 232 22 200 55 333 135 497 300 l114 114 131 -11 c215
-18 243 -16 276 19 43 46 55 112 54 305 0 142 -4 185 -22 259 -57 228 -175
399 -362 526 -71 49 -224 124 -297 147 -53 17 -53 17 -53 58 0 22 -7 51 -16
63 -36 52 -132 69 -190 33z"/>
</g>
</svg>
