<svg xmlns="http://www.w3.org/2000/svg" viewBox="0 0 750 500"><path d="M655.57 477.45s-14.43-74.71-14.46-90.08c0-21.27 16.24-29.74 16.24-29.74l-6.33-18h34.8l-5.49 17.91s18.32 9.72 15.77 31.78c-4.78 41.25-12.4 88.17-12.4 88.17Z" style="fill:#ebebeb"/><path d="M688.76 366.1a2 2 0 0 1-.39 0 11 11 0 0 0-1.14-.05 10.9 10.9 0 0 0-4.23.95 14.9 14.9 0 0 0-5.42 4.14 25.6 25.6 0 0 0-2.49 3.51 30 30 0 0 0-2.19 4.3 12.8 12.8 0 0 0-1 5.13 7.93 7.93 0 0 0 2.06 5.13 5.6 5.6 0 0 0 2.46 1.54 4.87 4.87 0 0 0 3-.08 7 7 0 0 0 4.17-4.5 6.76 6.76 0 0 0-1.46-6.25 10.14 10.14 0 0 0-6-3.45 13.53 13.53 0 0 0-7.19.86 22.3 22.3 0 0 0-6.46 3.94 22.8 22.8 0 0 0-7.61 12.61 15.66 15.66 0 0 0 .14 7.05 10.32 10.32 0 0 0 3.43 5.68 5.9 5.9 0 0 0 2.88 1.33 4.43 4.43 0 0 0 3-.59 6.12 6.12 0 0 0 2.66-5.1 6.3 6.3 0 0 0-.56-2.77 6.9 6.9 0 0 0-1.66-2.19 9.76 9.76 0 0 0-4.69-2.18 13.44 13.44 0 0 0-8.78 1.52 15.8 15.8 0 0 0-5.17 4.45 14.8 14.8 0 0 0-2.09 3.81c-.35.94-.46 1.46-.49 1.45a9 9 0 0 1 .39-1.48 14.3 14.3 0 0 1 2-3.89 15.9 15.9 0 0 1 5.2-4.59 13.73 13.73 0 0 1 9-1.62A10.07 10.07 0 0 1 665 397a7.4 7.4 0 0 1 1.77 2.31 6.89 6.89 0 0 1-2.23 8.41 4.8 4.8 0 0 1-3.26.66 6.3 6.3 0 0 1-3.11-1.41 10.8 10.8 0 0 1-3.6-5.93 16.25 16.25 0 0 1-.16-7.25 23.18 23.18 0 0 1 7.76-12.89 22.8 22.8 0 0 1 6.61-4 14.2 14.2 0 0 1 7.46-.89 10.65 10.65 0 0 1 6.25 3.64 8.3 8.3 0 0 1 1.62 3.19 6.37 6.37 0 0 1-.09 3.49 7.42 7.42 0 0 1-4.47 4.79 5.3 5.3 0 0 1-3.23.07 6 6 0 0 1-2.64-1.67 8.37 8.37 0 0 1-2.15-5.4 13.3 13.3 0 0 1 1.07-5.27 30.4 30.4 0 0 1 2.25-4.34 25 25 0 0 1 2.55-3.52 14.86 14.86 0 0 1 5.55-4.14 10.6 10.6 0 0 1 4.31-.85 6.8 6.8 0 0 1 1.5.1M689.66 422.54a12.7 12.7 0 0 1-.32 3.8 16.4 16.4 0 0 1-1.53 4.21 15.8 15.8 0 0 1-3.64 4.69 15.1 15.1 0 0 1-6.37 3.35 15.54 15.54 0 0 1-8.25-.12 14.43 14.43 0 0 1-7.42-5.24 13.8 13.8 0 0 1-2.85-9.3 6.85 6.85 0 0 1 2.05-4.58 5 5 0 0 1 4.75-.94 5.92 5.92 0 0 1 3.68 2.94 6.7 6.7 0 0 1 .48 4.5 8.45 8.45 0 0 1-2 3.82 9.8 9.8 0 0 1-3.34 2.3 14.1 14.1 0 0 1-7.13.9 17.1 17.1 0 0 1-9.37-4.3 12.5 12.5 0 0 1-2.46-2.91s.06 0 .17.18l.46.57a17 17 0 0 0 2 2 17 17 0 0 0 3.68 2.45 16.8 16.8 0 0 0 5.6 1.64 13.64 13.64 0 0 0 6.93-.92 9.4 9.4 0 0 0 3.17-2.22 7.9 7.9 0 0 0 1.87-3.62 6.25 6.25 0 0 0-.46-4.18 5.46 5.46 0 0 0-3.38-2.69 4.51 4.51 0 0 0-4.29.84 6.42 6.42 0 0 0-1.89 4.26 13.44 13.44 0 0 0 2.75 9 14 14 0 0 0 7.17 5.09 15.3 15.3 0 0 0 8 .16 15 15 0 0 0 6.24-3.21 16.2 16.2 0 0 0 3.63-4.56 16.4 16.4 0 0 0 1.58-4.13 18 18 0 0 0 .44-2.77v-.73a.8.8 0 0 1 .05-.28M683.18 457.75c0 .1-1.56-.72-4.2-1.48a19 19 0 0 0-2.17-.52 26 26 0 0 0-2.54-.39 27.8 27.8 0 0 0-11.6 1.29c-.85.32-1.67.59-2.4.94a21 21 0 0 0-2 1c-2.41 1.32-3.7 2.45-3.77 2.37a5.3 5.3 0 0 1 .89-.81 10 10 0 0 1 1.13-.86 18 18 0 0 1 1.57-1 20 20 0 0 1 2-1.06c.73-.37 1.56-.66 2.42-1a28.8 28.8 0 0 1 5.82-1.33 29 29 0 0 1 6 0 25 25 0 0 1 2.57.44 21 21 0 0 1 2.2.59 16 16 0 0 1 1.75.64 10 10 0 0 1 1.29.58 6 6 0 0 1 1.04.6M680.75 358.57a8 8 0 0 1-1.15.81c-.76.5-1.89 1.16-3.32 1.92a57 57 0 0 1-24.28 6.5c-1.62.06-2.93.05-3.83 0a8.5 8.5 0 0 1-1.4-.12 7 7 0 0 1 1.4-.08c.9 0 2.2-.05 3.81-.15a63.05 63.05 0 0 0 24.1-6.47c1.44-.71 2.6-1.32 3.38-1.77a7 7 0 0 1 1.29-.64M685.13 340.44c0 .05-.86-.08-2.4-.08a20.6 20.6 0 0 0-6.4 1.05 21 21 0 0 0-4.07 1.85 20 20 0 0 0-2 1.42 10.4 10.4 0 0 0-1.87 1.82 5.45 5.45 0 0 0-1.15 2.41 2.74 2.74 0 0 0 .81 2.46 5.8 5.8 0 0 0 2.57 1.3 6.4 6.4 0 0 0 2.95.34 2.22 2.22 0 0 0 1.58-2.11 5.16 5.16 0 0 0-.58-2.8 8.87 8.87 0 0 0-3.88-3.9 11.2 11.2 0 0 0-4.87-1.32 13.6 13.6 0 0 0-4.4.65 20.4 20.4 0 0 0-5.73 3c-.62.46-1.08.84-1.4 1.1a2.8 2.8 0 0 1-.49.37s.13-.17.43-.45.74-.68 1.34-1.17a19.1 19.1 0 0 1 5.74-3.2 13.4 13.4 0 0 1 4.52-.73 11.45 11.45 0 0 1 5.08 1.33 9.26 9.26 0 0 1 4.1 4.09 5.7 5.7 0 0 1 .64 3.06 3.45 3.45 0 0 1-.55 1.58 2.44 2.44 0 0 1-1.41 1 6.8 6.8 0 0 1-3.2-.35 6.36 6.36 0 0 1-2.79-1.43 3.24 3.24 0 0 1-.93-2.89 5.9 5.9 0 0 1 1.26-2.61 10.2 10.2 0 0 1 2-1.88 18 18 0 0 1 2.11-1.43 20.5 20.5 0 0 1 4.18-1.84 19.5 19.5 0 0 1 6.51-.9 17 17 0 0 1 1.78.15Z" style="fill:#e0e0e0"/><path d="M49.32 189.53a45 45 0 0 1 7.68-9.27l-3-10.74 16.26-8.67 7.28 8.42a45.3 45.3 0 0 1 11.95-1.17l5.51-9.66 17.62 5.36-.81 11.1a45.1 45.1 0 0 1 9.28 7.63l10.73-2.94 8.67 16.25-8.42 7.28a45 45 0 0 1 1.17 11.95l9.67 5.51-5.36 17.62-11.1-.81a45.1 45.1 0 0 1-7.63 9.28l2.94 10.74-16.25 8.66-7.28-8.42a45 45 0 0 1-12 1.17l-5.51 9.67-17.63-5.36L64 252a44.8 44.8 0 0 1-9.27-7.63l-10.74 2.94-8.67-16.25 8.42-7.28a45.4 45.4 0 0 1-1.17-11.95l-9.66-5.51 5.36-17.63 11.1.81Zm14.79 16.7a24.85 24.85 0 1 0 31-16.54 24.84 24.84 0 0 0-31 16.54M36.37 113.71a20.3 20.3 0 0 1 3.43-4.17l-1.32-4.84 7.32-3.9 3.28 3.79a20.5 20.5 0 0 1 5.38-.53l2.48-4.35 7.94 2.42-.37 5a20.5 20.5 0 0 1 4.18 3.44l4.83-1.32 3.91 7.31-3.8 3.28a20.1 20.1 0 0 1 .53 5.38l4.35 2.49-2.41 7.93-5-.36a20.3 20.3 0 0 1-3.43 4.17l1.33 4.83-7.32 3.9-3.28-3.79a20.5 20.5 0 0 1-5.38.53l-2.48 4.35-7.93-2.42.36-5a20.5 20.5 0 0 1-4.18-3.44L34 139.75l-4-7.32 3.8-3.28a20.1 20.1 0 0 1-.53-5.38L29 121.29l2.41-7.94 5 .36Zm6.63 7.52a11.19 11.19 0 1 0 14-7.44 11.18 11.18 0 0 0-14 7.44M631.38 262.19a23.5 23.5 0 0 1 4-4.88l-1.55-5.67 8.56-4.57 3.84 4.45a23.7 23.7 0 0 1 6.3-.62l2.91-5.1 9.29 2.83-.43 5.85a23.6 23.6 0 0 1 4.89 4l5.66-1.55 4.57 8.57-4.42 3.86a23.6 23.6 0 0 1 .62 6.3l5.1 2.9-2.83 9.29-5.85-.42a24 24 0 0 1-4 4.89l1.55 5.66-8.59 4.57-3.84-4.44a23.7 23.7 0 0 1-6.3.61l-2.91 5.1-9.29-2.82.43-5.85a23.8 23.8 0 0 1-4.89-4l-5.66 1.55-4.54-8.6 4.44-3.84a24 24 0 0 1-.62-6.29l-5.09-2.91 2.82-9.29 5.86.42Zm7.79 8.81a13.1 13.1 0 1 0 16.35-8.72 13.1 13.1 0 0 0-16.35 8.72" style="fill:#ebebeb"/><path d="M340.65 52.21a34.1 34.1 0 0 1 5.8-7.05L344.21 37l12.36-6.59 5.54 6.41a34 34 0 0 1 9.08-.9l4.2-7.35 13.4 4.08-.62 8.44a34.2 34.2 0 0 1 7.05 5.8l8.17-2.23L410 57l-6.4 5.53a34.5 34.5 0 0 1 .89 9.09l7.35 4.19-4.08 13.4-8.44-.61a34.5 34.5 0 0 1-5.8 7l2.24 8.17-12.36 6.59-5.56-6.36a34.5 34.5 0 0 1-9.09.89l-4.19 7.35-13.4-4.07.61-8.44a34.2 34.2 0 0 1-7-5.81l-8.16 2.24L330 83.81l6.4-5.54a34.4 34.4 0 0 1-.89-9.08L328.13 65l4.08-13.4zm11.25 12.7a18.89 18.89 0 1 0 23.57-12.58 18.9 18.9 0 0 0-23.57 12.58" style="fill:#f5f5f5"/><path d="M704.44 478.32c0 .15-148 .26-330.42.26s-330.46-.11-330.46-.26 147.93-.26 330.46-.26 330.42.12 330.42.26" style="fill:#263238"/><rect width="556.59" height="380.11" x="91.7" y="62.62" rx="11.97" style="fill:#fff"/><path d="M525.73 259a27 27 0 0 1 4.6-5.59l-1.77-6.47 9.79-5.23 4.39 5.08a27 27 0 0 1 7.21-.71l3.32-5.82 10.62 3.23-.49 6.69a26.8 26.8 0 0 1 5.59 4.6l6.48-1.78 5.22 9.8-5.07 4.39a27.4 27.4 0 0 1 .7 7.2l5.83 3.33-3.23 10.62-6.69-.49a27.4 27.4 0 0 1-4.6 5.59l1.77 6.47-9.8 5.23-4.39-5.08a27 27 0 0 1-7.2.71l-3.32 5.83-10.62-3.24.48-6.69a27 27 0 0 1-5.59-4.6l-6.47 1.78-5.23-9.8 5.08-4.39a27 27 0 0 1-.7-7.2l-5.83-3.32 3.19-10.63 6.69.49Zm8.92 10.07a15 15 0 1 0 18.69-10 15 15 0 0 0-18.69 10M411 135.91a26 26 0 0 1 4.43-5.4l-1.71-6.25 9.46-5 4.24 4.9a26 26 0 0 1 7-.68l3.21-5.63 10.26 3.12-.47 6.46a26.4 26.4 0 0 1 5.39 4.44l6.25-1.71 5.05 9.46-4.91 4.23a26.5 26.5 0 0 1 .69 7l5.61 3.15-3.12 10.25-6.46-.47a26 26 0 0 1-4.44 5.4l1.71 6.25-9.45 5-4.24-4.9a26 26 0 0 1-7 .68l-3.2 5.63-10.26-3.12.47-6.46a26.7 26.7 0 0 1-5.4-4.44l-6.24 1.71-5.05-9.46 4.9-4.24a26.4 26.4 0 0 1-.68-6.95l-5.63-3.21 3.13-10.25 6.46.47Zm8.6 9.71a14.46 14.46 0 1 0 18.09-9.62 14.47 14.47 0 0 0-18.05 9.62ZM366.06 224.09a16.7 16.7 0 0 1 2.76-3.36l-1.06-3.89 5.89-3.14 2.64 3.05a16 16 0 0 1 4.33-.42l2-3.51 6.38 2-.29 4a16.3 16.3 0 0 1 3.36 2.76l3.89-1.06 3.15 5.89-3.06 2.59a16.4 16.4 0 0 1 .43 4.33l3.5 2-1.98 6.4-4-.29a16.7 16.7 0 0 1-2.77 3.36l1.07 3.89-5.89 3.14-2.64-3.05a16 16 0 0 1-4.33.42l-2 3.51-6.39-1.94.29-4A16.3 16.3 0 0 1 368 244l-3.89 1-3.11-5.85 3-2.64a16 16 0 0 1-.42-4.33l-3.51-2 2-6.39 4 .29Zm5.36 6a9 9 0 1 0 11.24-6 9 9 0 0 0-11.24 6.05ZM460.64 400.91a16.4 16.4 0 0 1 2.77-3.36l-1.07-3.89 5.89-3.14 2.64 3.05a16 16 0 0 1 4.33-.42l2-3.51 6.38 1.95-.29 4a16.1 16.1 0 0 1 3.36 2.77l3.89-1.07 3.15 5.89-3.06 2.64a16.5 16.5 0 0 1 .43 4.33l3.5 2-1.94 6.38-4-.29a16.4 16.4 0 0 1-2.77 3.36l1.07 3.89-5.92 3.17-2.64-3.06a16.5 16.5 0 0 1-4.36.4l-2 3.5-6.39-1.94.29-4a16.4 16.4 0 0 1-3.36-2.77l-3.89 1.07-3.1-5.86 3.05-2.64a16.5 16.5 0 0 1-.42-4.33l-3.51-2 1.95-6.39 4 .29ZM466 407a9 9 0 1 0 11.24-6 9 9 0 0 0-11.24 6" style="fill:#ebebeb"/><path d="M311.11 244.87h60.8v76.05h-60.8z" style="fill:#fff" transform="rotate(-70.65 341.53 282.898)"/><path d="M387.46 266.81a3 3 0 0 1-.35-.11l-1-.34-3.92-1.36-14.71-5.11-51.84-18.1.25-.12-20.12 57.37-.14-.28L367.38 324l-.24.11c6.11-17.26 11.16-31.57 14.7-41.58l4.16-11.6c.48-1.33.84-2.36 1.1-3.06s.39-1.06.39-1.06-.11.35-.34 1l-1.05 3-4 11.6c-3.51 10.05-8.52 24.42-14.56 41.75l-.06.17-.18-.06-71.76-25.16-.21-.07.07-.21c7.28-20.71 14.16-40.29 20.17-57.36l.06-.18.19.06 51.9 18.33L382.3 265l3.85 1.38 1 .36Z" style="fill:#263238"/><path d="M314.89 247.53h53.15v70.71h-53.15z" style="fill:#b9d4fb" transform="rotate(-70.65 341.477 282.882)"/><path d="m299.3 296.24 34.25-22.99 7.58 24.57 13.45-6.98 11.44 28.83zM355.45 276.66a5.57 5.57 0 1 1-3.41-7.1 5.57 5.57 0 0 1 3.41 7.1" style="opacity:.2"/><path d="M606.71 375.89a4.3 4.3 0 0 0 2.16-.73 4.1 4.1 0 0 0 1.54-2.23 6.5 6.5 0 0 0 .16-1.76v-2.06c.1-5.85.24-14.25.42-24.61.05-2.6.11-5.32.16-8.16 0-1.41.06-2.86.09-4.33a13 13 0 0 0 0-2.16 3.7 3.7 0 0 0-.94-1.84 3.5 3.5 0 0 0-1.83-1 19 19 0 0 0-2.28-.08h-4.81l-10-.06-44.7-.33a3.63 3.63 0 0 0-3.57 3.32c0 1.95-.1 3.88-.15 5.8-.09 3.86-.17 7.67-.26 11.41-.17 7.47-.34 14.68-.5 21.55l-.06 2.56a3.9 3.9 0 0 0 .52 2.24 3.5 3.5 0 0 0 1.7 1.44 6 6 0 0 0 2.31.25l9.47.1 17 .18 24.61.32 6.69.12 1.74.05h.59a2.4 2.4 0 0 1-.59 0h-8.43l-24.62-.07-17-.09-9.47-.06a6.5 6.5 0 0 1-2.54-.29 4.1 4.1 0 0 1-2-1.72 4.5 4.5 0 0 1-.64-2.6l.06-2.56c.14-6.87.3-14.08.46-21.56q.12-5.61.24-11.4l.15-5.86a4.41 4.41 0 0 1 4.33-4l44.71.39 10 .09h4.81a16.6 16.6 0 0 1 2.41.1 4.1 4.1 0 0 1 2.15 1.19 4.34 4.34 0 0 1 1.1 2.16 12.7 12.7 0 0 1 0 2.29c0 1.47-.08 2.92-.11 4.34q-.1 4.25-.21 8.15c-.28 10.36-.51 18.76-.67 24.61 0 .72 0 1.41-.06 2.05a6.6 6.6 0 0 1-.2 1.82 4.2 4.2 0 0 1-1.68 2.29 3.84 3.84 0 0 1-1.64.61 2.3 2.3 0 0 1-.62.13" style="fill:#455a64"/><path d="m579.29 346.85 8.24 5.09-8.5 4.9-8.5 4.9.25-10 .26-9.99z" style="fill:#455a64"/><path d="M538.1 160a1 1 0 0 1 .21 0l.59.16 2.28.61 8.51 2.3-.14.08c.38-1.47.79-3.12 1.24-4.89v-.08h.09a27.2 27.2 0 0 0 8.65-2.94 19.3 19.3 0 0 0 4.13-3.06 13.65 13.65 0 0 0 3.06-4.5 17.07 17.07 0 0 0 .44-11.59 20.5 20.5 0 0 0-7.37-10.19 16.8 16.8 0 0 0-8.91-3.17 18.46 18.46 0 0 0-8.92 1.45 16.7 16.7 0 0 0-6.6 5.25c-.38.57-.82 1.09-1.15 1.67l-1 1.74a21 21 0 0 0-1.35 3.57 18 18 0 0 0-.53 3.58 17 17 0 0 0 .26 3.38 18.3 18.3 0 0 0 2.1 5.7 24.5 24.5 0 0 0 5.73 6.82c-.44 1.3-.79 2.29-1 3-.12.32-.2.58-.27.76s-.1.26-.1.27a1.2 1.2 0 0 1 .07-.25c.06-.19.13-.44.23-.76.23-.7.55-1.71 1-3v.07a24.1 24.1 0 0 1-5.85-6.81 18.5 18.5 0 0 1-2.17-5.76 16 16 0 0 1-.27-3.44 17.3 17.3 0 0 1 .52-3.64 20 20 0 0 1 1.35-3.64l1-1.77c.33-.59.78-1.12 1.17-1.7a17.1 17.1 0 0 1 6.72-5.38 19 19 0 0 1 9.09-1.49 17.27 17.27 0 0 1 9.1 3.24 20.72 20.72 0 0 1 7.51 10.41 16.8 16.8 0 0 1 .8 6.1 10.6 10.6 0 0 1-.14 1.49 10 10 0 0 1-.26 1.46c-.11.48-.22 1-.35 1.43l-.51 1.36a14.2 14.2 0 0 1-3.15 4.59 19.5 19.5 0 0 1-4.21 3.09 27.4 27.4 0 0 1-8.77 2.93l.11-.09-1.27 4.88v.1h-.11l-8.54-2.44-2.24-.65-.57-.17Z" style="fill:#b9d4fb"/><path d="m549.16 163.67.07-.24-11-3.17h-.14l-.13-.11a.13.13 0 0 1-.06-.07.2.2 0 0 1 0-.11v-.16a1 1 0 0 0 0-.15l1.13-3.59a24.3 24.3 0 0 1-5.74-6.74 18.7 18.7 0 0 1-2.19-5.84 16.8 16.8 0 0 1-.28-3.5 18.3 18.3 0 0 1 .52-3.69 21 21 0 0 1 1.37-3.69l1-1.78a9.6 9.6 0 0 1 .76-1.12l.42-.6a17.4 17.4 0 0 1 6.83-5.47 19 19 0 0 1 9.21-1.5 17.6 17.6 0 0 1 9.23 3.27 21 21 0 0 1 7.58 10.52 17 17 0 0 1 .81 6.18 8 8 0 0 1-.1 1.18l-.06.48a9 9 0 0 1-.25 1.35l-.11.48c-.08.32-.15.63-.24.94l-.52 1.39a14.4 14.4 0 0 1-3.21 4.68 19.3 19.3 0 0 1-4.26 3.13 27.5 27.5 0 0 1-8.6 2.92l-1.12 4.3.23.06-.29.17-.13.47-.45-.14Zm-10.72-3.89 2.81.74 8.15 2.22 1-4-.28.05.35-.31.13-.53h.5700000000000001l.31-.27-.06.22a27.3 27.3 0 0 0 8-2.81 19 19 0 0 0 4.08-3 13.6 13.6 0 0 0 3-4.42 17 17 0 0 0 .42-11.41 20.2 20.2 0 0 0-7.27-10.07 16.5 16.5 0 0 0-8.79-3.12 18.14 18.14 0 0 0-8.8 1.43 16.6 16.6 0 0 0-6.5 5.17c-.13.2-.28.4-.42.59a10 10 0 0 0-.71 1.06l-1 1.73a20 20 0 0 0-1.33 3.52 18 18 0 0 0-.52 3.52 16.5 16.5 0 0 0 .26 3.33 17.9 17.9 0 0 0 2.07 5.62 24 24 0 0 0 5.31 6.44l.1-.3.16.52.1.08.14.12-.07.33.18.56-.3-.23-1.14 3.31ZM548.93 166.44a50 50 0 0 1-6-1.48 50.5 50.5 0 0 1-5.89-1.83 105 105 0 0 1 11.88 3.31Z" style="fill:#b9d4fb"/><path d="M548.93 166.68a39 39 0 0 1-6.06-1.48c-6.18-1.72-6.14-1.86-6.06-2.14s.08-.3 2.08.19c1.13.28 2.63.67 4.22 1.12 6.18 1.72 6.14 1.86 6.06 2.14v.09l-.09.06a.22.22 0 0 1-.15.02M543.83 169.86a5.1 5.1 0 0 1-2.17-.34 4.9 4.9 0 0 1-2-1 10 10 0 0 1 2.09.6 9.7 9.7 0 0 1 2.08.74" style="fill:#b9d4fb"/><path d="M543.61 170.14a8.3 8.3 0 0 1-2-.38 5.4 5.4 0 0 1-2.14-1.08v-.11l.05-.12c.12-.26.32-.2 1.43.17l1 .3 1 .29c1.11.34 1.32.4 1.27.68v.12l-.11.07a.6.6 0 0 1-.5.06M540.52 160.63a.8.8 0 0 1 0-.2c0-.15.1-.34.16-.57.16-.53.38-1.27.65-2.2l2.46-8.07c.52-1.71 1.1-3.57 1.71-5.57a3.9 3.9 0 0 0 .21-1.51 1 1 0 0 0-.85-1 1.46 1.46 0 0 0-1.22.78 2.26 2.26 0 0 0-.23 1.56 3.64 3.64 0 0 0 5.6 2.13 5.46 5.46 0 0 0 2.22-2.95 3.3 3.3 0 0 0 .13-1.86 1.33 1.33 0 0 0-1.28-1 1.34 1.34 0 0 0-1.09 1.23 3.63 3.63 0 0 0 .37 1.84 6.76 6.76 0 0 0 2.25 3 3.7 3.7 0 0 0 1.66.69 3.6 3.6 0 0 0 1.75-.22 2.8 2.8 0 0 0 1.34-1 2 2 0 0 0 .34-1.57 1.37 1.37 0 0 0-1-1.12 1.68 1.68 0 0 0-1.43.39 7.2 7.2 0 0 0-1.54 2.73c-.78 1.94-1.44 3.77-2.05 5.44-1.18 3.34-2.13 6-2.8 7.95-.33.92-.58 1.65-.77 2.17-.08.23-.15.41-.2.56s-.08.19-.09.18a2 2 0 0 1 .05-.2c0-.14.1-.33.17-.57l.7-2.18c.62-1.89 1.52-4.63 2.69-8 .6-1.68 1.25-3.52 2-5.48.21-.48.4-1 .63-1.47a4 4 0 0 1 1-1.39 2 2 0 0 1 1.72-.47 1.75 1.75 0 0 1 1.21 1.38 2.45 2.45 0 0 1-.39 1.84 3.24 3.24 0 0 1-1.5 1.16 4 4 0 0 1-1.93.24 4.16 4.16 0 0 1-1.82-.74 7.2 7.2 0 0 1-2.38-3.16 4.1 4.1 0 0 1-.4-2 1.56 1.56 0 0 1 3.1-.26 3.67 3.67 0 0 1-.13 2.08 5.86 5.86 0 0 1-2.39 3.15 4 4 0 0 1-3.76.4 3.94 3.94 0 0 1-2.36-2.77 2.5 2.5 0 0 1 .28-1.8 1.76 1.76 0 0 1 1.52-.94 1.24 1.24 0 0 1 .83.44 1.6 1.6 0 0 1 .31.84 4.3 4.3 0 0 1-.23 1.64c-.63 2-1.21 3.85-1.75 5.55-1.08 3.37-2 6.11-2.57 8-.3.93-.54 1.65-.72 2.18l-.19.56a1 1 0 0 1 .01.16" style="fill:#b9d4fb"/><path d="M546.93 162.67h-.09c-.24-.08-.18-.3-.12-.5l.87-2.77c.59-1.81 1.51-4.6 2.7-8 .5-1.43 1-2.84 1.56-4.3a6 6 0 0 1-.56-.33 6 6 0 0 1-1-.93 6 6 0 0 1-.89.7 4.26 4.26 0 0 1-4 .41l-.15-.06-4.39 13.65c-.07.2-.15.43-.4.35s-.17-.3-.12-.5l.81-2.78 3.4-11.13a4 4 0 0 1-1.66-2.48 2.78 2.78 0 0 1 .32-2 2 2 0 0 1 1.75-1.05 1.46 1.46 0 0 1 1 .53 1.8 1.8 0 0 1 .37 1 4.5 4.5 0 0 1-.24 1.73l-.58 1.85.22.11a3.4 3.4 0 0 0 3.2-.36 4.6 4.6 0 0 0 .82-.65 9 9 0 0 1-.9-1.67 4.36 4.36 0 0 1-.42-2.16A1.81 1.81 0 0 1 552 141a4 4 0 0 1-.14 2.21 6.1 6.1 0 0 1-1 1.94 5.5 5.5 0 0 0 .94.87c.12.08.24.16.37.23.05-.12.09-.24.14-.37l.16-.38c.15-.37.3-.74.47-1.11a4.35 4.35 0 0 1 1.06-1.48 2.24 2.24 0 0 1 1.94-.51 2 2 0 0 1 1.39 1.58 2.64 2.64 0 0 1-.42 2 3.4 3.4 0 0 1-1.62 1.25 4.06 4.06 0 0 1-2 .26 5 5 0 0 1-.65-.14c-.59 1.54-1.13 3-1.57 4.25l-3.78 10.67c-.12.21-.19.4-.36.4m6-16.09a2.5 2.5 0 0 0 .44.1 3.3 3.3 0 0 0 1.62-.2 2.53 2.53 0 0 0 1.23-.94 1.8 1.8 0 0 0 .31-1.37 1.14 1.14 0 0 0-.77-.94 1.47 1.47 0 0 0-1.21.34 5.1 5.1 0 0 0-1.21 2c-.09.21-.17.42-.26.62Zm-8.07-4.81a1.27 1.27 0 0 0-.93.67 2 2 0 0 0-.2 1.39 3.08 3.08 0 0 0 1.1 1.76l.5-1.64a3.7 3.7 0 0 0 .2-1.41.74.74 0 0 0-.62-.76Zm5.37-1.36h-.06a1.1 1.1 0 0 0-.86 1 3.44 3.44 0 0 0 .35 1.72 9 9 0 0 0 .68 1.3A5.2 5.2 0 0 0 551 143a3 3 0 0 0 .13-1.71 1.11 1.11 0 0 0-.93-.88ZM547.26 168.39a33.4 33.4 0 0 1-4.87-1.16 35 35 0 0 1-4.77-1.52 67 67 0 0 1 9.64 2.68" style="fill:#b9d4fb"/><path d="M547.24 168.64a29.6 29.6 0 0 1-4.92-1.17c-5.06-1.41-5-1.57-4.94-1.83v-.1l.09-.06c.08 0 .31-.17 5.06 1.15s4.87 1.56 4.91 1.63l.06.09-.06.21-.09.06a.3.3 0 0 1-.11.02" style="fill:#b9d4fb"/><path d="M368.22 167.75h-63a4.36 4.36 0 0 0-4.36 4.36v38.4a4.36 4.36 0 0 0 4.36 4.36H342l16.89 14.35v-14.35h9.38a4.36 4.36 0 0 0 4.36-4.36v-38.4a4.37 4.37 0 0 0-4.41-4.36" style="fill:#fafafa"/><path d="M368.22 167.75a3.5 3.5 0 0 1 1.12.12 4.34 4.34 0 0 1 2.63 1.91 4.4 4.4 0 0 1 .69 2.32v10.08c0 5.38 0 11.91.05 19.4v8.79a4.63 4.63 0 0 1-1 3 4.54 4.54 0 0 1-2.81 1.63 11.5 11.5 0 0 1-1.65.06h-8.41l.23-.22v14.87l-.39-.34-16.91-14.34.17.06h-36.55a4.64 4.64 0 0 1-4.75-3.83 9 9 0 0 1-.07-1.6v-38.04a4.58 4.58 0 0 1 2.21-3.44 4.7 4.7 0 0 1 2.64-.65h26.16l26.77.08h9.82-9.82l-26.77.09h-26.16a4.27 4.27 0 0 0-2.4.59 4.1 4.1 0 0 0-1.65 1.87 4.3 4.3 0 0 0-.34 1.23v38.03a9 9 0 0 0 .07 1.51 4.08 4.08 0 0 0 1.46 2.49 4.18 4.18 0 0 0 2.78.91H342l.07.06L359 229l-.4.18V214.6h8.63a10.4 10.4 0 0 0 1.59-.05 4.1 4.1 0 0 0 2.59-1.46c1.39-1.58.83-3.82.95-5.77s0-3.92 0-5.79c0-7.49 0-14 .05-19.4v-10.08a4.3 4.3 0 0 0-.64-2.25 4.24 4.24 0 0 0-2.53-1.91 9 9 0 0 0-1.02-.14" style="fill:#263238"/><path d="M360.11 182.58c0 .14-10.48.26-23.41.26s-23.41-.12-23.41-.26 10.48-.26 23.41-.26 23.41.12 23.41.26M360.11 190c0 .15-10.48.27-23.41.27s-23.41-.12-23.41-.27 10.48-.26 23.41-.26 23.41.14 23.41.26M360.11 197.47c0 .14-10.48.26-23.41.26s-23.41-.12-23.41-.26 10.48-.26 23.41-.26 23.41.12 23.41.26" style="fill:#263238"/><path d="M280.25 62.62c3.17 12.67-6.15 25.2-17.86 31s-25.28 6-38.35 6.2-26.66.51-38.28 6.47c-12.36 6.34-20.82 18.18-28.47 29.78S142 159.85 130.38 167.5s-28.42 9.38-38.68 0V77.16a14.54 14.54 0 0 1 14.54-14.54Z" style="fill:#f5f5f5"/><circle cx="144.86" cy="112.25" r="12.54" style="fill:#b9d4fb"/><path d="M307.93 96.84c0-.18 11.25-.33 25.14-.33s25.14.15 25.14.33M425.09 96.84c0 .18-11.26.33-25.14.33s-25.14-.15-25.14-.33 11.25-.33 25.14-.33 25.14.15 25.14.33M492 96.84c0 .18-11.26.33-25.14.33s-25.14-.15-25.14-.33 11.25-.33 25.14-.33 25.14.15 25.14.33M559.44 96.84c0 .18-11.25.33-25.13.33s-25.15-.15-25.15-.33 11.26-.33 25.15-.33 25.13.15 25.13.33M618.06 104.83s.42 0 1.2-.2a5.66 5.66 0 0 0 2.89-1.77 5.36 5.36 0 0 0 1.15-2.17 10.7 10.7 0 0 0 .18-3c-.14-2.11.5-4.85-1.41-6.85a5.38 5.38 0 0 0-3.58-1.77h-38.3a5.29 5.29 0 0 0-4.7 2.88 5.43 5.43 0 0 0-.58 2.76v3a10.4 10.4 0 0 0 .19 2.82 5.2 5.2 0 0 0 1.31 2.31 5.4 5.4 0 0 0 2.23 1.37 8.8 8.8 0 0 0 2.63.24l19.15.07 12.91.1 3.51.07h.92a1.3 1.3 0 0 1 .31 0 1 1 0 0 1-.31 0h-.92l-3.51.06-12.91.11-19.15.07a9.4 9.4 0 0 1-2.81-.25 5.94 5.94 0 0 1-4-4.12 6.4 6.4 0 0 1-.21-1.51v-4.23a6.17 6.17 0 0 1 .65-3.07 6 6 0 0 1 5.29-3.24h38.34a5.85 5.85 0 0 1 3.89 2 5.76 5.76 0 0 1 1.45 3.68v3.48a10.7 10.7 0 0 1-.25 3 5.5 5.5 0 0 1-1.26 2.25 5.54 5.54 0 0 1-3.05 1.73 4.1 4.1 0 0 1-1.25.18" style="fill:#263238"/><path d="M216.81 336.8h-61a11.13 11.13 0 0 1-11.13-11.13 11.13 11.13 0 0 1 11.13-11.13h61a11.13 11.13 0 0 1 11.13 11.13 11.13 11.13 0 0 1-11.13 11.13" style="fill:#e0e0e0"/><path d="M260.3 244.33c0 .22-26.05.39-58.17.39s-58.18-.17-58.18-.39 26-.38 58.18-.38 58.17.17 58.17.38M260.3 265.44c0 .21-26.05.38-58.17.38s-58.18-.17-58.18-.38 26-.39 58.18-.39 58.17.17 58.17.39M212.75 286.54c0 .21-15.4.38-34.4.38s-34.4-.17-34.4-.38 15.4-.39 34.4-.39 34.4.18 34.4.39" style="fill:#263238"/><path d="M210.24 221c0 .15-14.64.26-32.69.26s-32.69-.11-32.69-.26 14.64-.26 32.69-.26 32.69.13 32.69.26" style="fill:#b9d4fb"/><path d="M637.23 442.73a11.2 11.2 0 0 0 4.61-1.05 11 11 0 0 0 4.44-3.73 11.3 11.3 0 0 0 1.58-3.4 14.9 14.9 0 0 0 .38-4.3v-53.9c0-46.81 0-114.55-.08-198.24V81.92c0-1.48 0-3-.11-4.41a16.5 16.5 0 0 0-3.25-8.1 19 19 0 0 0-1.44-1.69 17 17 0 0 0-1.68-1.46 16.2 16.2 0 0 0-3.85-2.21 17 17 0 0 0-4.34-1.1c-1.48-.14-3-.12-4.53-.11H462.58L289 62.88H108.55c-1 0-2 0-3 .1l-1.45.23-1.42.37a15.38 15.38 0 0 0-8.87 7.28 14.9 14.9 0 0 0-1.77 5.55c-.19 1.93-.09 4-.12 5.93V428.9a24.4 24.4 0 0 0 .28 5.1 11 11 0 0 0 2.15 4.48 10.91 10.91 0 0 0 8.77 4h263.17l270.91.18-270.91.19H103.12a11.34 11.34 0 0 1-11.39-8.89c-.09-.43-.14-.86-.21-1.3s0-.87 0-1.3V82.34c0-2-.08-4 .12-6a15.86 15.86 0 0 1 11-13.27l1.36-.37c.5-.09 1-.16 1.51-.24 1-.08 2-.11 3-.1h520.31c1.52 0 3 0 4.58.11a18 18 0 0 1 4.44 1.13 17 17 0 0 1 4 2.28 17 17 0 0 1 1.72 1.5 19 19 0 0 1 1.48 1.73 16.87 16.87 0 0 1 3.32 8.3 45 45 0 0 1 .11 4.46v96.19c0 83.69-.06 151.43-.08 198.24v53.9a14.7 14.7 0 0 1-.41 4.32 11 11 0 0 1-6.07 7.16 11.7 11.7 0 0 1-3.44.95c-.84.1-1.24.1-1.24.1" style="fill:#263238"/><path d="m533.94 404.53-104.26 11.41a15.29 15.29 0 0 1-16.86-13.54l-25.7-234.83a17.43 17.43 0 0 1 15.43-19.22l102.33-11.2a15.46 15.46 0 0 1 17 13.68l25.92 236.44a15.66 15.66 0 0 1-13.86 17.26" style="fill:#455a64"/><rect width="264.68" height="131.54" x="335.02" y="210.77" rx="14.31" style="fill:#263238" transform="rotate(83.76 467.35 276.506)"/><path d="M444.19 154.47a1.51 1.51 0 0 1-.33-3l19.31-2.12a1.51 1.51 0 0 1 .33 3ZM433.84 155.6a1.51 1.51 0 1 1 1.34-1.66 1.52 1.52 0 0 1-1.34 1.66M439.37 155a1.51 1.51 0 1 1-.33-3 1.5 1.5 0 0 1 1.66 1.33 1.52 1.52 0 0 1-1.33 1.67M473.94 151.22a1.51 1.51 0 1 1 1.34-1.67 1.52 1.52 0 0 1-1.34 1.67M468.41 151.82a1.51 1.51 0 1 1 1.34-1.67 1.51 1.51 0 0 1-1.34 1.67" style="fill:#455a64"/><path d="m501 141.55-18.18 2a4 4 0 0 0-3.49 3.27l-.93 5.29a4.45 4.45 0 0 1-3.91 3.66l-40.27 4.41a4.47 4.47 0 0 1-4.61-2.73l-2-5a4 4 0 0 0-4.12-2.44l-18.18 2a14.57 14.57 0 0 0-12.89 16.06l25 228.81a14.55 14.55 0 0 0 16.06 12.89l95.72-10.47a14.56 14.56 0 0 0 12.89-16.06l-25-228.81A14.57 14.57 0 0 0 501 141.55" style="fill:#f5f5f5"/><path d="M511.8 144.73a14.53 14.53 0 0 0-10.8-3.18l-18.18 2a4 4 0 0 0-3.49 3.27l-.93 5.29a4.45 4.45 0 0 1-3.91 3.66l-40.27 4.41a4.47 4.47 0 0 1-4.61-2.73l-2-5a4 4 0 0 0-4.12-2.44l-18.18 2a14.57 14.57 0 0 0-12.89 16.06l17.95 164h.38c12.29 0 23.28-8.95 28.83-19.92s6.55-23.67 6.39-36-1.36-24.65.2-36.85a82.85 82.85 0 0 1 29.24-52.92C483.28 180 492.34 175 499.75 168c6.53-6.12 11.8-14.47 12.05-23.27M542.12 383.25l-7.24-66.2A61.5 61.5 0 0 0 492 403.38l37.19-4.07a14.56 14.56 0 0 0 12.93-16.06" style="fill:#fff"/><path d="M526.6 193.58a.89.89 0 0 1 1 .79l3.17 29a.89.89 0 0 1-.79 1ZM393.66 227.29a.93.93 0 0 0-.82 1l1.93 17.62a.92.92 0 0 0 1 .82ZM390.88 201.87a.93.93 0 0 0-.82 1l1.94 17.64a.92.92 0 0 0 1 .82ZM388.79 182.8a.78.78 0 0 0-.7.87l.81 7.47a.8.8 0 0 0 .88.7Z" style="fill:#455a64"/><path d="M486.26 151.92h.93v1.31h-.93z" style="fill:#fff" transform="rotate(-6.24 486.924 152.676)"/><path d="M487.73 151.18h.93v1.89h-.93z" style="fill:#fff" transform="rotate(-6.25 488.172 152.126)"/><path d="M489.22 150.58h.93v2.33h-.93z" style="fill:#fff" transform="rotate(-6.24 490.006 151.832)"/><path d="M490.68 149.57h.93v3.17h-.93z" style="fill:#fff" transform="rotate(-6.24 491.417 151.265)"/><path d="m505.48 151.25-4.65.51a.34.34 0 0 1-.37-.3l-.26-2.31a.34.34 0 0 1 .3-.37l4.66-.51a.07.07 0 0 1 .06 0 .1.1 0 0 1 0 .06l.09.76h.49a.09.09 0 0 1 .1.08l.12 1.11a.09.09 0 0 1-.08.1h-.49l.08.76a.1.1 0 0 1-.05.11m-.39-2.8-4.57.5a.16.16 0 0 0-.14.18l.25 2.31a.17.17 0 0 0 .18.15l4.57-.5-.08-.77a.07.07 0 0 1 .07-.09l.5-.06-.1-.94-.5.05a.08.08 0 0 1-.1-.07Z" style="fill:#fff"/><path d="m500.99 151.18-.21-1.88 3.97-.43.1.85.02.18.09.85zM496.21 152.08a.34.34 0 0 0-.38-.3.34.34 0 0 0 .08.68.34.34 0 0 0 .3-.38M494.62 151.43l.48.38a1.06 1.06 0 0 1 .7-.38 1 1 0 0 1 .75.22l.39-.48a1.65 1.65 0 0 0-2.32.26" style="fill:#fff"/><path d="M495.62 149.85a2.6 2.6 0 0 0-1.76 1l.48.38a2 2 0 0 1 1.35-.74 2 2 0 0 1 1.47.43l.39-.48a2.6 2.6 0 0 0-1.93-.59" style="fill:#fff"/><path d="m493.08 150.19.48.38a3.05 3.05 0 0 1 2-1.11 3 3 0 0 1 2.21.65l.39-.48a3.62 3.62 0 0 0-5.1.56Z" style="fill:#fff"/><circle cx="494.24" cy="265.34" r="16.57" style="fill:#ebebeb" transform="rotate(-1.14 493.957 265.275)"/><path d="M658.63 165.76s0-.16.08-.47.17-.78.29-1.36c.27-1.21.65-3 1.15-5.2 1-4.54 2.51-11.07 4.33-19.14 3.72-16.19 8.84-38.53 14.53-63.28l.25-1.12.25 1.12c.11.44.21.93.32 1.41 5.65 25.1 10.77 47.81 14.48 64.28 1.82 8.22 3.3 14.87 4.32 19.5l1.16 5.3.28 1.39c.06.31.08.47.08.47s0-.15-.13-.46-.19-.79-.34-1.37c-.29-1.23-.71-3-1.24-5.29-1.07-4.61-2.6-11.26-4.49-19.45l-14.63-64.26c-.11-.48-.21-1-.31-1.4h.5c-5.74 24.73-10.92 47.07-14.67 63.24-1.9 8.05-3.43 14.57-4.49 19.1L659.1 164c-.14.57-.26 1-.34 1.34s-.13.42-.13.42" style="fill:#263238"/><path d="M658.62 184.55v-15.89H701v15.89A18.49 18.49 0 0 1 682.51 203h-5.4a18.49 18.49 0 0 1-18.49-18.45" style="fill:#455a64"/><path d="M658.62 168.66a4.3 4.3 0 0 1 .48.67l1.29 2c1.14 1.76 2.72 4.24 4.67 7.28l15.25 24.15.11.17H680l14.79-24.28 4.52-7.32c.53-.83.94-1.49 1.26-2a6 6 0 0 1 .46-.67 4 4 0 0 1-.37.73c-.3.5-.69 1.18-1.17 2l-4.39 7.41-14.65 24.36-.22.36-.23-.36-.1-.17-15.12-24.23-4.53-7.38-1.21-2a4.5 4.5 0 0 1-.42-.72M684 76.17a4.63 4.63 0 1 1-4.63-4.63 4.63 4.63 0 0 1 4.63 4.63" style="fill:#263238"/><path d="M679.39 18.46c.15 0 .26 13.11.26 29.29S679.54 77 679.39 77s-.26-13.11-.26-29.29.12-29.25.26-29.25M681.79 204.77a2 2 0 1 1-2-2 2 2 0 0 1 2 2" style="fill:#263238"/><path d="m678.93 205.51.32-.16a4.4 4.4 0 0 0-2 3.28 11.4 11.4 0 0 0 .34 3.94c.09.42.31.93.73.9s.56-.47.62-.85a8.2 8.2 0 0 0 .06-2.37 4.13 4.13 0 0 0 .92 2.8c.12.15.3.31.49.26s.26-.25.31-.43a10 10 0 0 0 .3-2 3.06 3.06 0 0 0 .63 1.65 1.1 1.1 0 0 0 1.58.11 1.54 1.54 0 0 0 .17-1.16 13.74 13.74 0 0 0-2.78-6.51" style="fill:#263238"/><path d="M661.29 168.66s-19-21.95-16.93-22.74 19 11.37 19 11.37-14.54-32.53-11.63-34.91S670 151.21 670 151.21s-2.38-45.49 0-46 11.11 45.49 11.11 45.49 13-42.05 16.66-42.05-4 40.46-4 40.46 15.33-25.91 17.71-22.48-10.84 31.47-10.84 31.47 19.31-16.13 20.1-14-20.89 24.59-20.89 24.59Z" style="fill:#b9d4fb"/><path d="M658.63 135.61c.13-.06 3.51 7.18 7.54 16.17s7.2 16.32 7.07 16.38-3.51-7.16-7.54-16.16-7.2-16.34-7.07-16.39M674 139.65c.15 0 .71 6.37 1.26 14.25s.87 14.28.73 14.29-.71-6.37-1.25-14.25-.87-14.28-.74-14.29M695.23 119.28a1.8 1.8 0 0 1-.11.52l-.42 1.44c-.4 1.33-.94 3.12-1.59 5.3-1.34 4.47-3.15 10.67-5 17.55s-3.36 13.16-4.42 17.71c-.52 2.22-1 4-1.26 5.39-.14.59-.26 1.07-.36 1.46a1.9 1.9 0 0 1-.16.5 1.7 1.7 0 0 1 .06-.52c.07-.4.16-.89.26-1.48.24-1.29.61-3.14 1.1-5.43 1-4.57 2.44-10.86 4.28-17.76s3.7-13.08 5.14-17.53c.71-2.22 1.31-4 1.75-5.25.2-.57.37-1 .51-1.42a1.7 1.7 0 0 1 .22-.48M704.41 142.73c.11.08-3.6 5.62-8.31 12.37s-8.61 12.16-8.73 12.08 3.6-5.62 8.31-12.38 8.61-12.16 8.73-12.07M667.71 168.2a7.4 7.4 0 0 1-1.66-1.19 46 46 0 0 1-3.63-3.35 49 49 0 0 1-3.25-3.7 8 8 0 0 1-1.15-1.7c.13-.09 2.1 2.3 4.78 5s5.01 4.82 4.91 4.94M679.28 159.48A20.6 20.6 0 0 1 680 164a20.7 20.7 0 0 1 .16 4.58 19.7 19.7 0 0 1-.68-4.53 19.5 19.5 0 0 1-.2-4.57" style="fill:#263238"/><path d="M701 178.56a9 9 0 0 1-1.64.34c-1.05.19-2.59.43-4.5.69a146 146 0 0 1-15 1.33 95 95 0 0 1-15-.62c-1.91-.25-3.45-.5-4.51-.73a8.6 8.6 0 0 1-1.62-.39 12.5 12.5 0 0 1 1.66.19c1.06.16 2.6.36 4.51.56a112 112 0 0 0 15 .47c5.85-.2 11.13-.74 15-1.18l4.52-.52a12 12 0 0 1 1.58-.14M701 183.29a10 10 0 0 1-1.64.34c-1.05.19-2.59.43-4.5.69a146 146 0 0 1-15 1.33 94 94 0 0 1-15-.63c-1.91-.24-3.45-.49-4.51-.72a10 10 0 0 1-1.62-.39 12.5 12.5 0 0 1 1.66.19c1.06.16 2.6.36 4.51.56a112 112 0 0 0 15 .47c5.85-.2 11.13-.74 15-1.18l4.52-.52a10 10 0 0 1 1.58-.14" style="fill:#fff"/><path d="M125.05 406.14c1-3.42 3.1-6.73 6.37-8.14s7.34-.63 10.83.63 6.9 3 10.59 3.19 7.87-1.53 9-5.06c1-3.33-1-6.87-3.47-9.29a21.92 21.92 0 0 0-35.9 8.62" style="fill:#b9d4fb"/><path d="M125.05 406.14c1-3.42 3.1-6.73 6.37-8.14s7.34-.63 10.83.63 6.9 3 10.59 3.19 7.87-1.53 9-5.06c1-3.33-1-6.87-3.47-9.29a21.92 21.92 0 0 0-35.9 8.62" style="opacity:.5"/><path d="M95.76 421c-5.43-5.15-5.16-14.13-2.45-21.1s8.61-12.33 15.21-15.86a48.13 48.13 0 0 1 42-1.36 19.88 19.88 0 0 0-16.1 9.46c-3 4.93-3.64 10.92-6.09 16.14A25.41 25.41 0 0 1 95.76 421M93.15 390c-6-7.09-6.81-18.47-5.92-27.72s3-18.56 1.57-27.73c-.87-5.44-3-10.63-3.69-16.09s.3-11.63 4.53-15.15c4.86-4 12.51-3.1 17.57.71s8 9.77 10.13 15.72c4.7 13.08 6.43 27.59 2.56 40.94S107 386 93.67 390" style="fill:#b9d4fb"/><path d="M90.27 448.19a4.2 4.2 0 0 1 0-.81c0-.54 0-1.33.05-2.34.08-2 .27-5 .73-8.59a114 114 0 0 1 2.3-12.57 58 58 0 0 1 5.74-14.56 61 61 0 0 1 9.38-12.54 59.7 59.7 0 0 1 9.83-8.17c1.5-1 3-1.83 4.2-2.55s2.4-1.23 3.31-1.67l2.16-.91a7 7 0 0 1 .77-.29 4 4 0 0 1-.73.38l-2.11 1c-.9.47-2 1.05-3.27 1.74s-2.66 1.55-4.14 2.6a61.8 61.8 0 0 0-19 20.66c-5.53 9.66-7 19.82-8.14 26.94-.49 3.59-.74 6.52-.88 8.55-.06 1-.1 1.75-.14 2.33a6 6 0 0 1-.06.8" style="fill:#263238"/><path d="M38.46 362.06c-11.11 6.71-11.07 12.81-9.22 18.57s8.68 9.76 14.33 7.6c3.2-1.22 5.51-4 7.49-6.79s3.84-5.77 6.61-7.78 6.79-2.77 9.57-.78" style="fill:#b9d4fb"/><path d="M38.46 362.06c-11.11 6.71-11.07 12.81-9.22 18.57s8.68 9.76 14.33 7.6c3.2-1.22 5.51-4 7.49-6.79s3.84-5.77 6.61-7.78 6.79-2.77 9.57-.78" style="opacity:.5"/><path d="M30.15 369.41c2.9-4 10.08-5.17 14.61-3.17s7.85 6 10.83 9.94 5.86 8.15 10 10.91 9.86 3.76 14 1a12 12 0 0 0 4.75-8.22 27.3 27.3 0 0 0-.65-9.68c-1-4.66-2.58-9.53-6.31-12.49-4.16-3.3-9.93-3.46-15.23-3.28-6.09.19-12.27.65-18 2.76s-11.54 6.67-14 12.25" style="fill:#b9d4fb"/><path d="M81 439.3a.9.9 0 0 1 0-.25v-.71c0-.67 0-1.6-.09-2.76-.07-2.44-.17-5.89-.29-10.15s-.31-9.37-.62-15-.74-11.86-1.59-18.33a59 59 0 0 0-1.85-9.31 48.3 48.3 0 0 0-3.4-8.15 47 47 0 0 0-4.3-6.75 45 45 0 0 0-4.69-5.15 34.7 34.7 0 0 0-8.35-5.74c-.55-.24-1-.49-1.45-.66l-1.08-.34-.67-.27a.7.7 0 0 1-.22-.11l.24.06.68.22 1.11.38c.43.16.91.39 1.47.63a33.4 33.4 0 0 1 8.47 5.58 45 45 0 0 1 4.78 5.16 47 47 0 0 1 4.37 6.78 48.4 48.4 0 0 1 3.48 8.18 58.7 58.7 0 0 1 1.86 9.39c.86 6.49 1.26 12.72 1.56 18.38s.42 10.76.51 15.05.12 7.75.13 10.14v3.4799999999999995a.7.7 0 0 1-.06.25M85 444.32a32.4 32.4 0 0 1-1.22-4.77 50.3 50.3 0 0 1-.51-13.41 89.3 89.3 0 0 1 4.24-19.45c2.28-7.15 5.37-14.8 8-23a108 108 0 0 0 3.19-12.18 112 112 0 0 0 1.58-11.62 171 171 0 0 0 .35-19.86c-.19-5.66-.49-10.24-.68-13.4-.09-1.56-.16-2.78-.22-3.64v-1a1.3 1.3 0 0 1 0-.32 1.2 1.2 0 0 1 .05.32c0 .24.06.55.09.94.08.87.18 2.08.31 3.64.25 3.16.6 7.73.84 13.4a163 163 0 0 1-.25 19.91 107 107 0 0 1-1.55 11.67A104 104 0 0 1 96 383.83c-2.65 8.24-5.76 15.88-8.06 23a91 91 0 0 0-4.32 19.34 52.4 52.4 0 0 0 .38 13.34c.28 1.56.53 2.76.75 3.57.09.38.16.69.22.92a1.2 1.2 0 0 1 .03.32" style="fill:#263238"/><path d="M112.58 449.34H60.4l-1.19-10.04h53.37z" style="fill:#455a64"/><path d="m66 448.19 6.53 30.13h28.35l6.1-30.13z" style="fill:#455a64"/><path d="M112.58 449.34c0 .14-11.47.21-25.62.18s-25.62-.19-25.62-.33S72.81 449 87 449s25.58.2 25.58.34" style="fill:#455a64"/><path d="M103.62 464.21a21.4 21.4 0 0 0-4.62-2.64 16.4 16.4 0 0 0-5.59-1.12 19.8 19.8 0 0 0-6.87 1.26c-2.38.81-4.6 1.74-6.76 2.26a16.2 16.2 0 0 1-5.84.18 12 12 0 0 1-3.73-1.15 7.5 7.5 0 0 1-.91-.58c-.19-.15-.29-.23-.28-.24s.45.25 1.27.64a13.2 13.2 0 0 0 3.72 1 16.4 16.4 0 0 0 5.7-.28c2.09-.52 4.31-1.47 6.7-2.28a19.6 19.6 0 0 1 7-1.24 15.8 15.8 0 0 1 5.71 1.25 14.8 14.8 0 0 1 3.4 2 9 9 0 0 1 .81.7c.22.13.3.23.29.24" style="fill:#263238"/><path d="M103.23 466.22a23 23 0 0 0-4.42-2.6 14.9 14.9 0 0 0-5.38-1.11 19.4 19.4 0 0 0-6.65 1.2c-2.3.77-4.45 1.66-6.51 2.21a16.8 16.8 0 0 1-5.62.63 9.6 9.6 0 0 1-3.68-1 7 7 0 0 1-.88-.56q-.28-.21-.27-.24s.43.25 1.23.62a10.1 10.1 0 0 0 3.62.81 17.3 17.3 0 0 0 5.47-.72c2-.57 4.16-1.47 6.48-2.24a19.4 19.4 0 0 1 6.82-1.19A14.8 14.8 0 0 1 99 463.3a14.6 14.6 0 0 1 3.26 2 10 10 0 0 1 .78.68q.21.23.19.24" style="fill:#fff"/><path d="M104.14 462.21a25 25 0 0 0-4.72-2.78 17.5 17.5 0 0 0-5.73-1.38 18.7 18.7 0 0 0-7.08 1.25 62 62 0 0 1-7 2.29 17.9 17.9 0 0 1-6 0 13.7 13.7 0 0 1-3.88-1.23 7 7 0 0 1-.94-.58c-.2-.15-.3-.24-.29-.25s.46.27 1.32.66a15 15 0 0 0 3.84 1.05 18.2 18.2 0 0 0 5.9-.11c2.16-.47 4.45-1.48 6.93-2.31a18.5 18.5 0 0 1 7.27-1.23 17 17 0 0 1 5.84 1.51 16.7 16.7 0 0 1 3.4 2.1 10 10 0 0 1 .84.73c.22.17.31.27.3.28" style="fill:#fff"/><path d="M113 449.38c0 .14-11.74.25-26.21.25s-26.22-.11-26.22-.25 11.74-.25 26.22-.25 26.21.11 26.21.25" style="fill:#263238"/><path d="m349.89 383.37-6.44 21.17s-23.68.56-25.25 4.35l40.6 14 11.38-32.57Z" style="fill:#455a64"/><path d="M356.61 407.09a1.75 1.75 0 0 1 .49 2.29 1.69 1.69 0 0 1-2.26.51 1.85 1.85 0 0 1-.51-2.42 1.74 1.74 0 0 1 2.41-.27" style="fill:#e0e0e0"/><g style="opacity:.6000000000000001"><path d="m358.8 422.86 1-3.33-39.31-12.14s-2.07.16-2.31 1.5Z" style="fill:#fff"/></g><path d="M342.86 404.1c-.06.2.9.63 1.66 1.61s1 2 1.2 2 .31-1.27-.63-2.43-2.21-1.37-2.23-1.18M338 404.4c-.11.18.63.81 1 1.88s.27 2 .47 2.08.71-1 .21-2.34-1.61-1.81-1.68-1.62M333.83 408.66c.17.11.78-.79.65-2.05s-.92-2-1.06-1.87.24.91.33 1.95-.11 1.89.08 1.97M344.87 399.44c0 .21 1 .25 2.12.71s1.84 1.12 2 1-.43-1.13-1.73-1.65-2.44-.25-2.39-.06" style="fill:#263238"/><path d="m320.71 355.27-13 17.93s-22.57-7.16-25.29-4.08l33.86 26.39 21.35-27.11Z" style="fill:#455a64"/><path d="M319.36 379.89a1.76 1.76 0 0 1-.27 2.32 1.69 1.69 0 0 1-2.31-.25 1.85 1.85 0 0 1 .3-2.46 1.75 1.75 0 0 1 2.37.53" style="fill:#e0e0e0"/><g style="opacity:.6000000000000001"><path d="m316.31 395.51 2.05-2.82-33.24-24.24s-2-.52-2.67.67Z" style="fill:#fff"/></g><path d="M307.33 372.6c-.12.17.64.89 1 2s.3 2.2.5 2.25.7-1.09.19-2.49-1.61-1.94-1.69-1.76M302.63 371.3c-.16.13.34 1 .35 2.11s-.39 2-.22 2.12 1-.73.95-2.14-.95-2.24-1.08-2.09M297.3 374c.13.15 1-.5 1.28-1.73s-.21-2.2-.39-2.12-.07.94-.32 1.95-.72 1.73-.57 1.9M310.74 368.84c-.05.2.89.57 1.77 1.36s1.38 1.65 1.58 1.58 0-1.21-1.1-2.13-2.23-1-2.25-.81" style="fill:#263238"/><path d="m449.82 296.93 16.28 4.61-1.86-13.53-4.18-2.19-6.37-.99-3.62 2.91-1.16 3.79z" style="fill:#b9d4fb"/><path d="m449.86 296.81 16.24 4.73-1.86-13.53-4.18-2.19-6.37-.99-3.62 2.91-1.16 3.79z" style="opacity:.30000000000000004"/><path d="M452.64 257s10.7 6.17 15.62 7.14 19.88 5 19.88 5l16.8-21.22s-32.41-1.16-36.94-4-30-34-30-34l-6.86 7.07s19.5 38.93 21.5 40.01" style="fill:#ffbe9d"/><path d="m486.43 269.84.2-25 28.18-3.9s5.82-1.65 8-.15S512 259.55 512 259.55Z" style="fill:#b9d4fb"/><path d="M621.62 174.82c-.48-4.34-4.19-7.86-8.39-9s-8.74-.31-12.74 1.43c1-3.23-1.82-6.72-5.14-7.37s-6.71.88-9.33 3a21.56 21.56 0 0 0-7.78 17c.09 3.2.91 6.33 1.21 9.52s0 6.6-1.83 9.21-5.65 4-8.4 2.4l-.62 9.28a28.6 28.6 0 0 0 25.68.26c3.45-1.73 6.88-4.94 6.34-8.76-.17-1.18-.71-2.29-.85-3.47-.31-2.65 1.47-5.16 3.68-6.65s4.83-2.21 7.3-3.2a20.5 20.5 0 0 0 7.8-5.08 11.25 11.25 0 0 0 3.07-8.57" style="fill:#263238"/><path d="M550.81 240a12.16 12.16 0 0 0 19.36-2.53c1.73-3.08 2.17-7 4.82-9.32 1.82-1.61 4.39-2.17 6.13-3.86 2.6-2.51 2.57-6.61 2.36-10.22a23.2 23.2 0 0 0-1.08-6.85 7.91 7.91 0 0 0-4.59-4.91M546.06 184c-1.19 2.4-3.91 3.55-6.45 4.37s-5.29 1.62-7 3.7c-3 3.69-1.22 9.77-4.38 13.28-1.7 1.88-4.47 2.57-6 4.55s-1.62 4.62-1.17 7 1.37 4.74 1.58 7.18c0 0 .09 5.7 9.55 7.65" style="fill:#263238"/><path d="M579.25 208.27c1.29-2.05.31-4.79-1.18-6.69s-3.47-3.46-4.52-5.64c-.92-1.92-1-4.13-1.52-6.21a14.87 14.87 0 0 0-25-6.81c-2.49 2.53-4 6.33-2.87 9.68 1.37 3.88 5.69 5.74 9.58 7.07s8.23 3 9.93 6.69c1 2.26.85 4.85.83 7.34s.21 5.16 1.82 7 5.07 2.3 6.4.21" style="fill:#263238"/><path d="M570.79 203.87a4 4 0 0 1 1 5.36L542.06 255c-3.36 5.5-13.31 3.84-19.17.2-5.93-3.67-4.39-6.73-1.35-12.06 5.07-8.9 7-12.2 7-12.16s-6.83-5.74-2.55-16.55c2.12-5.38 7.14-13.29 11.45-19.64 3.89-5.71 12.12-10.66 17.66-6.54Z" style="fill:#ffbe9d"/><path d="M535 203.13a1.47 1.47 0 0 0 .46 2 1.41 1.41 0 0 0 2-.37 1.47 1.47 0 0 0-.47-2 1.41 1.41 0 0 0-1.99.37M537 198.79c.06.26 1.44.12 2.8.93s2 2.09 2.2 2 .14-.43-.11-1a4 4 0 0 0-1.65-1.81 3.83 3.83 0 0 0-2.35-.53c-.58.08-.89.29-.89.41M547.62 211a1.47 1.47 0 0 0 .47 2 1.4 1.4 0 0 0 2-.37 1.48 1.48 0 0 0-.46-2 1.41 1.41 0 0 0-2.01.37M550.37 207.56c.06.26 1.44.12 2.8.93s2 2.08 2.21 2 .13-.42-.12-1a4 4 0 0 0-1.64-1.81 3.92 3.92 0 0 0-2.35-.54c-.61.09-.93.3-.9.42M539 215.43a10 10 0 0 0-2-1.71c-.32-.25-.61-.51-.53-.78s.43-.59.84-.9l2.6-2c3.67-2.93 6.54-5.42 6.42-5.57s-3.18 2.11-6.85 5l-2.48 2.08a2.45 2.45 0 0 0-1 1.26 1 1 0 0 0 .28.85 3 3 0 0 0 .54.44 10.7 10.7 0 0 0 2.18 1.33" style="fill:#263238"/><path d="M528.54 231a29.2 29.2 0 0 0 15.33 4.31s-7.36 4.82-16.71-2Z" style="fill:#eb996e"/><path d="M551.73 203.89c-.09.45 1.38 1.08 2.87 2.22s2.52 2.34 2.93 2.13c.19-.1.17-.58-.14-1.25a6.32 6.32 0 0 0-4.42-3.32c-.73-.11-1.2.01-1.24.22M539 195.89c.09.47 1.35.78 2.64 1.52s2.24 1.61 2.68 1.43c.21-.09.22-.5-.08-1.08a4.95 4.95 0 0 0-4.29-2.38c-.63.05-.95.28-.95.51" style="fill:#263238"/><path d="M558.53 240.5a10.19 10.19 0 0 1-4.73-15.88c1.74-2.25 4.51-4 5-6.74.67-3.7-3-7.15-2.38-10.85.38-2.15 2.18-3.87 2.45-6s-.9-4-2.21-5.56-2.85-3.05-3.61-5-.42-4.47 1.38-5.47A108.8 108.8 0 0 1 573 203c1.26 1.56 2.53 3.28 2.64 5.28s-1.08 4-2.24 5.82L556.44 240" style="fill:#263238"/><path d="M583.26 213c-.19 0-.22-3.38-2.26-6.89s-4.9-5.31-4.77-5.46a5.4 5.4 0 0 1 1.87 1.13 14.28 14.28 0 0 1 5.14 9 5.6 5.6 0 0 1 .02 2.22" style="fill:#b9d4fb"/><path d="M576 199.87s-.1.09-.31.21a4 4 0 0 1-1 .3 5 5 0 0 1-3.7-1.2 9.67 9.67 0 0 1-2.78-5.08c-.57-2.1-.82-4.51-2-6.61a9 9 0 0 0-5.25-4.07 8.67 8.67 0 0 0-5.48.23 9.45 9.45 0 0 0-3.21 2c-.65.62-1 1-1 1s0-.13.17-.33a6 6 0 0 1 .66-.83 9 9 0 0 1 3.22-2.22 8.85 8.85 0 0 1 5.77-.37 9.47 9.47 0 0 1 5.62 4.29c1.29 2.27 1.51 4.72 2.05 6.77a9.4 9.4 0 0 0 2.53 4.9 5 5 0 0 0 3.42 1.29 7.4 7.4 0 0 0 1.29-.28" style="fill:#455a64"/><path d="M537.6 219.05a7.6 7.6 0 0 0-.14 2.17 2.6 2.6 0 0 0 1 1.84 2.3 2.3 0 0 0 2.22.08 3.8 3.8 0 0 0 1.6-1.64c.32-.62.47-1.5-.09-1.92a1.67 1.67 0 0 0-.82-.27l-3.9-.58" style="fill:#eb996e"/><path d="M537.33 222.38a5.1 5.1 0 0 0 1.8.79 2.84 2.84 0 0 0 2-.41 3 3 0 0 0 1.25-2 2.7 2.7 0 0 0 0-.63c0-.2 0-.18-.17-.24s-.41-.07-.62-.1l-.64-.1c-.84-.12-1.59-.24-2.22-.35a7.2 7.2 0 0 1-2-.49 6.7 6.7 0 0 1 2.08 0c.64 0 1.39.13 2.23.22l.65.07a6 6 0 0 1 .71.1.84.84 0 0 1 .46.29 1.1 1.1 0 0 1 .19.48 3 3 0 0 1 0 .8 3.47 3.47 0 0 1-1.58 2.47 3.16 3.16 0 0 1-2.36.35 2.93 2.93 0 0 1-1.39-.75c-.34-.28-.42-.47-.39-.5M310.55 367.15s42.11-63.65 47.59-70.95 10.93-13.37 24.32-9.49c6.54 1.9 73.05 19.53 73.05 19.53l10.93-1.66L503.72 334s-22.65 26.27-51.14 15.62c-28.73-10.74-71-29.07-71-29.07s-19.77 22-26.52 30.89C348 360.75 330.38 379 330.38 379Z" style="fill:#263238"/><path d="M458.18 294.33c-1.61.59-95.79 16-95.79 16l-19 87.47 22.65 7 24.53-71.1L424 336l42.43-31.4Z" style="fill:#263238"/><path d="m458.05 282.88 10.38 1 13.36-3.14s6.78-16.29 10.15-23.19S522.4 240 522.4 240l25.94 3.67 7.51 3.23-8.51 30.55-23 34.45L502 338.61S459.92 301.1 458.23 295c-1.43-5.22.61-8-3-9.72-1.27-.6-3 .63-3.6 1.61-1.36 2.16-2.79 3.35-2 9.11a8.9 8.9 0 0 1-.92-5.09 12.4 12.4 0 0 1 2-4.39 8.38 8.38 0 0 1 7.34-3.64" style="fill:#b9d4fb"/><path d="M505.24 265.08c-2.82 3.41-5.46 8.26-5.44 12.69a53 53 0 0 1 .1 5.62c-.19 2-.89 3.84-1.09 5.79a23 23 0 0 0 .77 7.19 16.8 16.8 0 0 0 1.6 4.93 42 42 0 0 0 3 3.81c2.12 2.78 3.15 6.21 4.64 9.37s3.74 6.27 7.07 7.31c1.58-1.36 3.26-2.9 3.52-5a8.13 8.13 0 0 0-.85-4 117.7 117.7 0 0 0-11.89-22.32 32.8 32.8 0 0 1-3.52-7.45c-2-5.79.17-12.49 2.1-17.95" style="opacity:.30000000000000004"/><path d="M506.73 288.26a3.5 3.5 0 0 1-.84-.63 9.8 9.8 0 0 1-1.82-2.21 15.6 15.6 0 0 1-2.07-9.12 31.7 31.7 0 0 1 2.26-9.13c.44-1.11.82-2 1.1-2.62a4.6 4.6 0 0 1 .48-.93 36 36 0 0 1-1.23 3.68 35 35 0 0 0-2.09 9 16.23 16.23 0 0 0 1.88 8.9 18 18 0 0 0 2.33 3.06" style="fill:#263238"/><path d="m405.84 197.28 11.47-4.9 9.48 3.55 13.49 16.93-7 7.36-2.18-3.17s-6.79-2.53-8.12-4.89a43 43 0 0 0-3.31-4.85l-2.53-1.81s-6.91 2.22-8.83.76l-.85-.82 7.23-3-.05-1.91s-5.57 3.24-8.76 2.07l-.88-1.48 5.93-2.36s-3.54.73-4.25 0a3.3 3.3 0 0 1-.84-1.48" style="fill:#ffbe9d"/><path d="M425.38 201.18s.06.08 0 .27a1 1 0 0 1-.47.62 1.37 1.37 0 0 1-1.24 0 11 11 0 0 1-1.38-.77c-1-.59-2.17-1.26-3.53-1.93-.68-.34-1.4-.67-2.15-1a3.56 3.56 0 0 0-2.29-.49 1.26 1.26 0 0 0-.81.64 1 1 0 0 0 .15 1 17 17 0 0 0 1.62 1.67l2.89 2.83c.82.82 1.47 1.48 1.92 2s.68.73.65.76a3.6 3.6 0 0 1-.79-.62c-.49-.42-1.18-1-2-1.82l-3-2.75-.85-.8a5.2 5.2 0 0 1-.86-.94 1.49 1.49 0 0 1-.2-1.44 1.7 1.7 0 0 1 1.14-.94 4 4 0 0 1 2.64.52c.76.34 1.48.69 2.16 1 1.36.71 2.54 1.42 3.51 2.05a12 12 0 0 0 1.29.81 1.15 1.15 0 0 0 1 .06.89.89 0 0 0 .6-.73" style="fill:#eb996e"/><path d="M424.35 200.84a7.7 7.7 0 0 1-2-1 32.6 32.6 0 0 1-4.41-3.09l-.36-.3h.26c-1.85.71-3.52 1.32-4.73 1.73a7.9 7.9 0 0 1-2 .57 9 9 0 0 1 1.86-.9c1.18-.5 2.82-1.17 4.67-1.88l.15-.06.12.1.36.3c3.19 2.74 6.15 4.39 6.08 4.53" style="fill:#eb996e"/><path d="m535.29 278.54-7.9 24.72-4.46-4.4-9.36 4.77 5.07 21s5.66 7.88 12.23 7.39 7.82-4.57 9.89-9.51 13.5-35.73 13.5-35.73-16.11-8.47-18.97-8.24" style="fill:#ffbe9d"/><path d="M499.58 287.26s12.11-4.95 13.37-4.57l10.31 3.18a3.22 3.22 0 0 1 .53 3.74s1.64 4.09.77 6.42l-.87 2.33a4.6 4.6 0 0 1-.16 3.55c-1.44 2.78-1.24 3.49-2.43 3.89s-7.77-1-7.77-1-8.44-1.8-8.93-2.8.56-1.81.56-1.81h7l-1.12-1.19-4.13-1s-4.25 1.33-6.42-.29a1 1 0 0 1-.16-1.36l1.08-1.32a3.71 3.71 0 0 1-3-3.61l3.39-1.08s-4.19-1-2.02-3.08" style="fill:#ffbe9d"/><path d="M518.35 289a45 45 0 0 0-8.21-.47 44 44 0 0 0-8.06 1.58 7.9 7.9 0 0 1 2.24-1 23.4 23.4 0 0 1 5.79-1.13 24.3 24.3 0 0 1 5.89.33 8.3 8.3 0 0 1 2.35.69M519.1 295.4a22 22 0 0 1-2.63-.5 36.4 36.4 0 0 0-6.36-.67 38 38 0 0 0-6.38.5 23 23 0 0 1-2.64.44 9.8 9.8 0 0 1 2.57-.8 28.3 28.3 0 0 1 6.45-.66 28.6 28.6 0 0 1 6.44.83 10 10 0 0 1 2.55.86M519.27 301.83a16 16 0 0 1-4-.54 16.2 16.2 0 0 1-3.9-1 15 15 0 0 1 4 .53 16 16 0 0 1 3.9 1.01M539.85 316.65a3.1 3.1 0 0 1-.72-.59c-.44-.4-1-1-1.78-1.78-1.47-1.54-3.37-3.77-5.61-6.09s-4.23-4.49-5.66-6.06a23 23 0 0 1-2.24-2.62 23.6 23.6 0 0 1 2.5 2.36c1.5 1.51 3.51 3.62 5.77 6s4.12 4.61 5.51 6.2a32 32 0 0 1 2.23 2.58" style="fill:#eb996e"/><path d="M555.15 246.6a12.32 12.32 0 0 1 6.36 12.24c-.89 8.73-4.79 30.21-4.79 30.21l-24.78-11.52 4.41-17.06s12.17-15.23 18.8-13.87" style="fill:#b9d4fb"/><path d="M513.46 244.5a1.8 1.8 0 0 1-.44.23l-1.31.58c-1.14.5-2.8 1.19-4.82 2.1A58 58 0 0 0 500 251a53 53 0 0 0-3.78 2.58 16.6 16.6 0 0 0-3.54 3.32 37.5 37.5 0 0 0-4.58 8.28c-1.14 2.69-2.05 5.17-2.85 7.25s-1.44 3.75-2 4.87c-.25.57-.49 1-.64 1.29a2.2 2.2 0 0 1-.26.43 19 19 0 0 1 .71-1.8c.47-1.14 1.07-2.83 1.82-4.92s1.62-4.59 2.75-7.31a37 37 0 0 1 4.61-8.41 17 17 0 0 1 3.64-3.41q1.95-1.43 3.84-2.58a54.6 54.6 0 0 1 7-3.53c2.05-.87 3.73-1.5 4.89-1.94l1.35-.49a1.6 1.6 0 0 1 .5-.13M556.72 289.05a12 12 0 0 1-1.65-.66l-4.42-2c-3.73-1.68-8.85-4-14.5-6.66l-4.32-2-.18-.09v-.2c1.09-5 2.1-9.31 2.88-12.4.39-1.54.72-2.77 1-3.61a7.5 7.5 0 0 1 .43-1.28 7.7 7.7 0 0 1-.25 1.33c-.21.93-.49 2.15-.82 3.64-.69 3.19-1.63 7.51-2.7 12.43l-.14-.29 4.32 2c5.65 2.62 10.75 5 14.43 6.79l4.35 2.12a11.5 11.5 0 0 1 1.57.88M555.66 246.84c0 .08-.91-.07-2.35-.06a17.1 17.1 0 0 0-5.52 1 16.8 16.8 0 0 0-4.9 2.72c-1.13.9-1.73 1.58-1.8 1.52a6.9 6.9 0 0 1 1.56-1.8 15 15 0 0 1 10.67-3.77 6.2 6.2 0 0 1 2.34.39" style="fill:#263238"/><path d="M466.28 310.18c0 .13-8-2-17.84-4.86s-17.75-5.21-17.71-5.35 8 2 17.85 4.85 17.74 5.18 17.7 5.36M310.55 367.15l.36.19 1 .59 4 2.32 14.56 8.63h-.23c9.61-10.71 22.94-25.59 37.23-42.4 5.29-6.27 10.34-12.35 14.73-18.16l.11-.15.18.07c7.56 3.07 14.39 6.4 20.49 9.4s11.45 5.71 15.93 7.88 8.09 3.81 10.58 4.9l2.86 1.24.74.32.24.13-.26-.09-.75-.28c-.66-.27-1.64-.63-2.89-1.17-2.52-1-6.14-2.64-10.65-4.77s-9.89-4.79-16-7.78-12.94-6.28-20.49-9.32l.29-.08c-4.38 5.83-9.43 11.93-14.73 18.19-14.29 16.82-27.66 31.66-37.35 42.31l-.1.11-.13-.07-14.48-8.78-3.92-2.4-1-.64a1.7 1.7 0 0 1-.32-.19" style="fill:#455a64"/><path d="M382.44 318.55a28 28 0 0 1-1.23-3.88 27 27 0 0 1-1.13-3.91 11.8 11.8 0 0 1 1.63 3.76 11.6 11.6 0 0 1 .73 4.03" style="fill:#455a64"/><path d="M505.58 264.21a7.4 7.4 0 0 1-2.37.31 17 17 0 0 1-10.81-3.69 6.7 6.7 0 0 1-1.68-1.71 24.7 24.7 0 0 0 6.93 4 25.2 25.2 0 0 0 7.93 1.09M533.17 267c0 .08-1.5-.5-3.94-1.17a44.6 44.6 0 0 0-9.74-1.51 44 44 0 0 0-9.83.73c-2.49.47-4 .93-4 .84a4.3 4.3 0 0 1 1-.41 29 29 0 0 1 2.91-.79 38.6 38.6 0 0 1 19.75.79 27 27 0 0 1 2.84 1 4 4 0 0 1 1.01.52M560.52 266.13c0 .14-5.76-.33-12.84-1.06s-12.8-1.44-12.78-1.58 5.76.33 12.84 1.06 12.79 1.45 12.78 1.58M500.22 250.58a11.5 11.5 0 0 1-1.13-3.23 12 12 0 0 1-.63-3.36 21.8 21.8 0 0 1 1.76 6.59" style="fill:#fff"/><path d="M523.33 297.78a2.1 2.1 0 0 1 .62 1.28 3.85 3.85 0 0 1-1.07 3.47l.06-.28a2.26 2.26 0 0 1-1 2.95 4.2 4.2 0 0 1-1.65.41h-1.53a21 21 0 0 1-2.56-.16 7.3 7.3 0 0 1-2.31-.52 21 21 0 0 1 2.34.15c.72 0 1.58.07 2.53.05a7.6 7.6 0 0 0 2.94-.43 1.78 1.78 0 0 0 .78-2.28l-.08-.16.14-.13a3.7 3.7 0 0 0 1.1-3.07 13 13 0 0 0-.31-1.28" style="fill:#eb996e"/><path d="M582 208.85a4.7 4.7 0 0 1-.55 1.11 12 12 0 0 1-2.14 2.64 14.2 14.2 0 0 1-4.22 2.77 13.8 13.8 0 0 1-6.09 1.08 13.6 13.6 0 0 1-5.91-1.8 14 14 0 0 1-3.86-3.24 12 12 0 0 1-1.81-2.88 4.3 4.3 0 0 1-.41-1.17 20 20 0 0 0 2.49 3.81 14.7 14.7 0 0 0 3.83 3.06 13.05 13.05 0 0 0 11.57.69 14.3 14.3 0 0 0 4.16-2.59 20.4 20.4 0 0 0 2.94-3.48M582.22 210s0 .14.08.42a7 7 0 0 1 .06 1.24 11.8 11.8 0 0 1-1.1 4.43 21.6 21.6 0 0 1-3.82 5.57c-1.7 1.89-3.75 3.78-5.6 6s-3.44 4.54-5.23 6.37a14.6 14.6 0 0 1-5.6 3.78 8.9 8.9 0 0 1-4.53.47 5 5 0 0 1-1.2-.33 1.5 1.5 0 0 1-.39-.18c0-.06.57.18 1.62.31a9.2 9.2 0 0 0 4.37-.61 14.5 14.5 0 0 0 5.38-3.77c1.74-1.81 3.32-4.1 5.18-6.37s3.95-4.15 5.64-6a22.1 22.1 0 0 0 3.85-5.4 12.5 12.5 0 0 0 1.22-4.28c.09-1.03.02-1.65.07-1.65M598.18 166.7c0 .05-.6.17-1.63.6a12.9 12.9 0 0 0-3.9 2.56 12.55 12.55 0 0 0-3.45 5.9c-.67 2.53-.22 5.45.07 8.49a19.3 19.3 0 0 1-1 8.61 19.6 19.6 0 0 1-3.56 6.12 16.8 16.8 0 0 1-3.55 3.19 9 9 0 0 1-1.11.67 1.6 1.6 0 0 1-.41.2s.51-.36 1.4-1a18.8 18.8 0 0 0 3.39-3.25 19.9 19.9 0 0 0 3.38-6.05 19.1 19.1 0 0 0 .91-8.4c-.29-3-.74-6 0-8.66a12.7 12.7 0 0 1 3.66-6 12.3 12.3 0 0 1 4.08-2.48 9.5 9.5 0 0 1 1.25-.35 1.3 1.3 0 0 1 .47-.15M620 175s-.75-.35-2.14-.85a18.4 18.4 0 0 0-6.14-1 17.25 17.25 0 0 0-8.77 2.47 17.51 17.51 0 0 0-8.31 14.18c-.12 1.9-.09 3.75-.29 5.52a13.3 13.3 0 0 1-1.42 4.84 12.9 12.9 0 0 1-2.66 3.5 13.1 13.1 0 0 1-5.47 3.13 10 10 0 0 1-1.69.32 2.3 2.3 0 0 1-.6 0c0-.05.82-.11 2.23-.55a13.4 13.4 0 0 0 5.28-3.2 12.73 12.73 0 0 0 3.85-8.12c.19-1.73.15-3.57.26-5.5a17.83 17.83 0 0 1 8.58-14.56 17.57 17.57 0 0 1 15.22-1.26 13 13 0 0 1 1.56.73 2.5 2.5 0 0 1 .51.35" style="fill:#455a64"/></svg>