<svg xmlns="http://www.w3.org/2000/svg" viewBox="0 0 500 500"><path d="M409 255.09c-88.41-51-231.28-51-319.12 0S2.55 388.9 91 439.94s231.28 51.05 319.12 0 87.33-133.8-1.12-184.85" style="fill:#f5f5f5"/><path d="M438.76 333c-6.54-3.77-17.11-3.77-23.6 0s-6.47 9.9.07 13.67 17.11 3.78 23.61 0 6.46-9.87-.08-13.67M235.75 353c-32.16-18.57-84.13-18.57-116.08 0s-31.79 48.68.37 67.25 84.14 18.57 116.09 0 31.79-48.67-.38-67.25M369.9 313.24c-20.54-11.86-53.73-11.86-74.14 0s-20.3 31.08.24 42.94 53.74 11.86 74.14 0 20.3-31.08-.24-42.94" style="fill:#e6e6e6"/><path d="m442.83 311.3-15.83.46-15.84-.46c-.68 10.69 1.41 21.59 4.29 26.91a7.26 7.26 0 0 0 3.13 3.19c4.67 2.69 12.22 2.69 16.87 0a7.1 7.1 0 0 0 3.13-3.28c2.86-5.35 4.93-16.18 4.25-26.82" style="fill:#fff"/><path d="M438.16 304.81c6.2 3.58 6.23 9.39.07 13s-16.19 3.58-22.39 0-6.24-9.39-.08-13 16.24-3.58 22.4 0" style="fill:#ebebeb"/><path d="M435.7 306.24c4.84 2.79 4.87 7.32.06 10.12s-12.63 2.79-17.47 0-4.86-7.33-.06-10.12 12.63-2.8 17.47 0" style="fill:#e0e0e0"/><path d="M435.7 306.24c4.84 2.79 4.87 7.32.06 10.12s-12.63 2.79-17.47 0-4.86-7.33-.06-10.12 12.63-2.8 17.47 0" style="opacity:.15"/><path d="M453 243.73c-35.68 11.69-36 35.56-28 52.55 2 3.45 8.17 5.29 13.51-15.85l-9.37 1.2 10.92-5.53 2.84-8.48-9.11.68 11.56-4.87a171 171 0 0 1 7.65-19.7" style="fill:#0acbcb"/><path d="M453 243.73c-35.68 11.69-36 35.56-28 52.55 2 3.45 8.17 5.29 13.51-15.85l-9.37 1.2 10.92-5.53 2.84-8.48-9.11.68 11.56-4.87a171 171 0 0 1 7.65-19.7" style="opacity:.2"/><path d="M453 243.73c-35.68 11.69-36 35.56-28 52.55 2 3.45 8.17 5.29 13.51-15.85l-9.37 1.2 10.92-5.53 2.84-8.48-9.11.68 11.56-4.87a171 171 0 0 1 7.65-19.7" style="fill:#fff;opacity:.2"/><path d="M442.94 249.7c-18.82 14.28-20.52 30.66-15.2 47.75-1.88-15.05-3.92-30.27 15.2-47.75" style="fill:#fff"/><path d="M392.59 268c35.18 4.95 39.44 27.13 34.78 44.3-1.32 3.54-6.73 6.28-15.22-12.52l8.93-.44L410 296l-4.05-7.43 8.6-.88-11.55-2.63A160 160 0 0 0 392.59 268" style="fill:#0acbcb"/><path d="M392.59 268c35.18 4.95 39.44 27.13 34.78 44.3-1.32 3.54-6.73 6.28-15.22-12.52l8.93-.44L410 296l-4.05-7.43 8.6-.88-11.55-2.63A160 160 0 0 0 392.59 268" style="fill:#fff;opacity:.2"/><path d="M392.59 268c35.18 4.95 39.44 27.13 34.78 44.3-1.32 3.54-6.73 6.28-15.22-12.52l8.93-.44L410 296l-4.05-7.43 8.6-.88-11.55-2.63A160 160 0 0 0 392.59 268" style="opacity:.1"/><path d="M403 271.86c19.9 10.18 24.2 25.14 22.09 41.95-.77-14.33-1.4-28.81-22.09-41.95" style="fill:#fff"/><path d="M463.32 276.29c-32.25.53-38.58 20-36.29 36 .79 3.33 5.36 6.41 15.11-9.58l-8-1.4 10.37-1.77 4.49-6.24-7.65-1.76 10.72-1.05a148 148 0 0 1 11.25-14.2" style="fill:#0acbcb"/><path d="M453.52 278.63c-19.07 6.94-24.62 19.95-24.6 35.33 2.28-12.83 4.48-25.84 24.6-35.33" style="fill:#fff"/><path d="M463.32 276.29c-32.25.53-38.58 20-36.29 36 .79 3.33 5.36 6.41 15.11-9.58l-8-1.4 10.37-1.77 4.49-6.24-7.65-1.76 10.72-1.05a148 148 0 0 1 11.25-14.2" style="fill:#fff;opacity:.2"/><path d="m115.87 111.59-.34.31ZM103.12 109.43a10 10 0 0 0 .93-.48c.32-.18.64-.39 1-.61l.3-.22c.21-.15.43-.31.63-.47l.35-.29.57-.5.34-.31.42-.43c.23-.23.46-.47.68-.72l.38-.43.39-.48c.16-.19.31-.39.46-.58l.28-.39c.17-.23.34-.47.5-.72.07-.09.13-.19.2-.29.22-.34.43-.68.63-1a2 2 0 0 0 .1-.18c.17-.3.33-.6.49-.91l.16-.3c.16-.33.31-.65.46-1a.5.5 0 0 0 .05-.13q.24-.54.45-1.11l.12-.33q.15-.41.27-.81c.05-.13.09-.27.13-.41s.13-.48.19-.72.09-.35.13-.52.07-.37.11-.55.1-.54.13-.8.07-.49.09-.73 0-.24 0-.35v-1.12a12 12 0 0 0-.09-1.39 11 11 0 0 0-1.36.67c-5.56 3.21-10.08 11-10.06 17.41a12 12 0 0 0 .09 1.4l.21-.08ZM120.77 90.84l.27.26ZM114 113.16l-.3.22ZM120.15 90.33l.31.22ZM122.46 94c0 .14.07.26.1.39-.03-.16-.07-.28-.1-.39M122.66 95.07l.06.35ZM121.78 92.19c.06.12.13.22.19.34-.06-.12-.13-.22-.19-.34M122.17 93c0 .13.1.24.14.37-.04-.1-.1-.21-.14-.37M121.31 91.46a4 4 0 0 1 .23.31 4 4 0 0 0-.23-.31M122.43 75.42h.59zM104.27 85.1l.24-.27ZM117 110.44c-.22.25-.45.49-.67.72.19-.23.42-.47.67-.72M121.64 102.58l-.12.33ZM92.94 105.51l.21-.76ZM105.38 83.94l.36-.36ZM92.34 108.05a24.665 24.665 0 0 0 0 0M107.87 115.36a1 1 0 0 0 .18 0zM119 107.84l.2-.29ZM119.81 106.52a1 1 0 0 0 .1-.19 1 1 0 0 1-.1.19M106.22 115l.19.07ZM120.4 105.43l.16-.3zM122.23 100.64c0-.18.09-.35.13-.52-.04.17-.09.34-.13.52M122.69 98c0-.5.08-1 .08-1.47v1.12c-.05.15-.07.27-.08.35M121 104.15s0-.08.07-.13ZM122.47 99.57c0-.27.1-.54.13-.8-.03.23-.08.53-.13.8M121.91 101.77c0-.14.09-.27.13-.41 0 .14-.08.27-.13.41M118.2 108.94l.28-.39c-.09.14-.18.27-.28.39M109.5 115.24l.41-.09ZM108.66 115.35h.31ZM107 115.23h.17ZM110.35 115c.24-.07.47-.15.72-.24ZM114.61 112.69l-.33.25q.51-.39 1-.81l-.31.27ZM111.56 114.58a12 12 0 0 0 1.16-.59 10 10 0 0 1-.93.48ZM117.35 110l.39-.48Z" style="fill:none"/><path d="m102.12 129.34-.81 1 7.78 4.52-1.63-6.08a14.4 14.4 0 0 1-5.34.56M133 84.58l6.11-1.67-7.81-4.54-.53 1.37a14.6 14.6 0 0 1 2.23 4.84M122.66 95.07c0-.24 0-.48-.1-.71s-.07-.25-.1-.39-.09-.39-.15-.57-.1-.24-.14-.37-.13-.34-.2-.5-.13-.22-.19-.34-.15-.29-.24-.42a4 4 0 0 0-.23-.31c-.09-.12-.17-.25-.27-.36l-.27-.26c-.1-.1-.2-.2-.31-.29l-.31-.22c-1.56-1.09-3.72-1.21-6.14-.19a12 12 0 0 1 .09 1.39V93c0 .12 0 .48-.09.73s-.08.53-.13.8-.07.37-.11.55-.09.35-.13.52-.12.48-.19.72-.08.28-.13.41-.17.54-.27.81l-.12.33q-.21.57-.45 1.11a.5.5 0 0 1-.05.13c-.15.33-.3.65-.46 1l-.16.3c-.16.31-.32.61-.49.91a2 2 0 0 1-.1.18c-.2.35-.41.69-.63 1-.07.1-.13.2-.2.29-.16.25-.33.49-.5.72l-.28.39c-.15.19-.3.39-.46.58l-.39.48-.38.43c-.22.25-.45.49-.68.72l-.42.43-.34.31-.57.5-.35.29c-.2.16-.42.32-.63.47l-.3.22c-.32.22-.64.43-1 .61a10 10 0 0 1-.93.48l-.23.11-.21.08c.3 2.45 1.34 4.21 2.89 5.09a3.7 3.7 0 0 0 .64.3l.15.06a5 5 0 0 0 .55.15h.15a4.4 4.4 0 0 0 .74.09h1.08l.53-.08.4-.09.44-.13.71-.24.49-.2.23-.11a10 10 0 0 0 .93-.48c.32-.18.64-.39 1-.61l.3-.22.3-.22.33-.25.35-.29.31-.27.26-.23.34-.31.43-.43c.22-.23.45-.47.67-.72s.26-.28.38-.43l.39-.48c.16-.19.31-.39.46-.58.1-.12.19-.25.28-.38.17-.23.34-.48.5-.72l.2-.29c.22-.34.43-.68.63-1a1 1 0 0 0 .1-.19c.17-.29.34-.59.49-.9l.16-.3c.16-.32.31-.65.45-1l.06-.13c.16-.37.3-.74.44-1.11l.12-.33q.15-.4.27-.81c0-.14.09-.27.13-.41s.13-.48.19-.72c0-.18.09-.35.13-.52 0-.18.07-.37.11-.55 0-.27.1-.54.13-.8 0-.25.07-.49.09-.73s0-.24 0-.35v-2.27ZM88.23 121.35l-1.96.53-.86-.5-2.63 6.75 8.67 5.04 3.16-8.11zM116.75 71.69l6.49 3.77 5.46-6.81-8.67-5.04-4.64 5.78.89.52z" style="fill:#e0e0e0"/><path d="m92.38 120.21-4.15 1.14 6.38 3.71a14.1 14.1 0 0 1-2.23-4.85M117.91 76a15.6 15.6 0 0 1 3.59-.56h1.74l-6.48-3.77ZM92.57 107c.12-.5.24-1 .37-1.5l.21-.75c.39-1.37.86-2.74 1.39-4.11l-8.67-5c-.05.13-.1.25-.14.38l-.23.63c-.14.37-.27.73-.4 1.1a2 2 0 0 1-.1.25c-.06.18-.11.36-.17.53-.13.42-.25.83-.37 1.24 0 .11-.08.22-.11.34s-.06.27-.1.41c-.13.5-.25 1-.37 1.5 0 .15-.08.3-.11.45l-.12.58 8.67 5c.09-.34.17-.68.25-1.05M102 87.73c.73-.92 1.49-1.79 2.27-2.63l.24-.27c.28-.3.58-.59.87-.89l.36-.36c.52-.51 1.05-1 1.59-1.48l-8.67-5c-.54.47-1.07 1-1.59 1.48l-.14.13-.72.74-.37.38c-.41.44-.81.88-1.21 1.33-.43.5-.86 1-1.28 1.54Z" style="fill:#e0e0e0"/><path d="m92.34 108.05-8.67-5.04-6.09 5.38 8.67 5.03zM86.25 113.42l-8.67-5.03.02 8.45 7.81 4.54.86.5zM108.92 74.16l-8.67-5.04-1.59 7.94 8.67 5.03z" style="fill:#e0e0e0"/><path d="m116.28 69.91-.89-.52-7.78-4.52-7.36 4.25 8.67 5.04zM91.35 96.2l-8.68-5.03 3.2 4.44 8.68 5.04zM102 87.72l-8.67-5.03-5.47-.51 8.67 5.04z" style="fill:#e0e0e0"/><path d="m96.53 87.22-8.67-5.04-5.19 8.99 8.68 5.03z" style="fill:#e0e0e0"/><path d="m133 96.75 6.09-5.38v-8.46L133 84.58a14.6 14.6 0 0 0-2.23-4.84l.53-1.37 2.63-6.74-5.22-3-5.46 6.81h-1.77a15.6 15.6 0 0 0-3.59.56l-1.15-4.3-.48-1.78-7.36 4.25-1.59 7.94c-.54.47-1.07 1-1.59 1.48l-.36.36c-.29.3-.59.59-.87.89l-.24.27c-.78.84-1.54 1.71-2.27 2.63l-5.47-.51-5.18 9 3.19 4.44c-.53 1.37-1 2.74-1.39 4.11l-.21.76c-.13.5-.25 1-.37 1.5s-.16.69-.23 1l-6.09 5.38v8.45l2-.53 4.15-1.14a14.1 14.1 0 0 0 2.23 4.85l-3.16 8.11 5.22 3 4.64-5.78.81-1a14.4 14.4 0 0 0 5.34-.54l1.63 6.08 7.36-4.24 1.55-7.98a44 44 0 0 0 5.32-5.62l5.48.49 5.18-9-3.2-4.44a44 44 0 0 0 2.22-7.38M122.69 98c0 .24 0 .48-.09.73s-.08.53-.13.8-.07.37-.11.55-.09.34-.13.52-.12.48-.19.72-.08.27-.13.41-.17.54-.27.81l-.12.33c-.14.37-.28.74-.44 1.11 0 0 0 .09-.07.13-.14.33-.29.66-.45 1l-.16.3c-.15.31-.32.61-.49.9a1 1 0 0 1-.1.19c-.2.35-.41.69-.63 1l-.2.29c-.16.24-.33.49-.5.72l-.28.39c-.15.19-.3.39-.46.58l-.39.48c-.12.15-.26.29-.38.43s-.45.49-.67.72l-.43.43-.34.31-.26.23q-.48.42-1 .81l-.3.22-.3.22c-.32.22-.64.43-1 .61a12 12 0 0 1-1.16.59l-.49.2c-.25.09-.48.17-.72.24l-.44.13-.41.09-.53.08H108a1 1 0 0 1-.18 0 4.4 4.4 0 0 1-.74-.09h-.17a5 5 0 0 1-.55-.15l-.19-.07a3.7 3.7 0 0 1-.64-.3c-1.55-.88-2.59-2.64-2.89-5.09a12 12 0 0 1-.09-1.4c0-6.39 4.5-14.2 10.06-17.41a11 11 0 0 1 1.36-.67c2.42-1 4.58-.9 6.14.19l.31.22c.11.09.21.19.31.29l.27.26c.1.11.18.24.27.36a4 4 0 0 1 .23.31c.09.13.16.28.24.42s.13.22.19.34.13.33.2.5.1.24.14.37.1.38.15.57.07.26.1.39.07.47.1.71l.06.35v1.15c0 .4.06 1.02.01 1.48" style="fill:#e0e0e0"/><path d="m102.12 129.34-.81 1 7.78 4.52-1.63-6.08a14.4 14.4 0 0 1-5.34.56M133 84.58l6.11-1.67-7.81-4.54-.53 1.37a14.6 14.6 0 0 1 2.23 4.84M122.66 95.07c0-.24 0-.48-.1-.71s-.07-.25-.1-.39-.09-.39-.15-.57-.1-.24-.14-.37-.13-.34-.2-.5-.13-.22-.19-.34-.15-.29-.24-.42a4 4 0 0 0-.23-.31c-.09-.12-.17-.25-.27-.36l-.27-.26c-.1-.1-.2-.2-.31-.29l-.31-.22c-1.56-1.09-3.72-1.21-6.14-.19a12 12 0 0 1 .09 1.39V93c0 .12 0 .48-.09.73s-.08.53-.13.8-.07.37-.11.55-.09.35-.13.52-.12.48-.19.72-.08.28-.13.41-.17.54-.27.81l-.12.33q-.21.57-.45 1.11a.5.5 0 0 1-.05.13c-.15.33-.3.65-.46 1l-.16.3c-.16.31-.32.61-.49.91a2 2 0 0 1-.1.18c-.2.35-.41.69-.63 1-.07.1-.13.2-.2.29-.16.25-.33.49-.5.72l-.28.39c-.15.19-.3.39-.46.58l-.39.48-.38.43c-.22.25-.45.49-.68.72l-.42.43-.34.31-.57.5-.35.29c-.2.16-.42.32-.63.47l-.3.22c-.32.22-.64.43-1 .61a10 10 0 0 1-.93.48l-.23.11-.21.08c.3 2.45 1.34 4.21 2.89 5.09a3.7 3.7 0 0 0 .64.3l.15.06a5 5 0 0 0 .55.15h.15a4.4 4.4 0 0 0 .74.09h1.08l.53-.08.4-.09.44-.13.71-.24.49-.2.23-.11a10 10 0 0 0 .93-.48c.32-.18.64-.39 1-.61l.3-.22.3-.22.33-.25.35-.29.31-.27.26-.23.34-.31.43-.43c.22-.23.45-.47.67-.72s.26-.28.38-.43l.39-.48c.16-.19.31-.39.46-.58.1-.12.19-.25.28-.38.17-.23.34-.48.5-.72l.2-.29c.22-.34.43-.68.63-1a1 1 0 0 0 .1-.19c.17-.29.34-.59.49-.9l.16-.3c.16-.32.31-.65.45-1l.06-.13c.16-.37.3-.74.44-1.11l.12-.33q.15-.4.27-.81c0-.14.09-.27.13-.41s.13-.48.19-.72c0-.18.09-.35.13-.52 0-.18.07-.37.11-.55 0-.27.1-.54.13-.8 0-.25.07-.49.09-.73s0-.24 0-.35v-2.27ZM88.23 121.35l-1.96.53-.86-.5-2.63 6.75 8.67 5.04 3.16-8.11z" style="opacity:.2"/><path d="m92.38 120.21-4.15 1.14 6.38 3.71a14.1 14.1 0 0 1-2.23-4.85M117.91 76a15.6 15.6 0 0 1 3.59-.56h1.74l-6.48-3.77ZM92.57 107c.12-.5.24-1 .37-1.5l.21-.75c.39-1.37.86-2.74 1.39-4.11l-8.67-5c-.05.13-.1.25-.14.38l-.23.63c-.14.37-.27.73-.4 1.1a2 2 0 0 1-.1.25c-.06.18-.11.36-.17.53-.13.42-.25.83-.37 1.24 0 .11-.08.22-.11.34s-.06.27-.1.41c-.13.5-.25 1-.37 1.5 0 .15-.08.3-.11.45l-.12.58 8.67 5c.09-.34.17-.68.25-1.05M86.25 113.42l-8.67-5.03.02 8.45 7.81 4.54.86.5zM108.92 74.16l-8.67-5.04-1.59 7.94 8.67 5.03z" style="opacity:.2"/><path d="m91.35 96.2-8.68-5.03 3.2 4.44 8.68 5.04zM102 87.72l-8.67-5.03-5.47-.51 8.67 5.04z" style="opacity:.2"/><path d="m116.75 71.69 6.49 3.77 5.46-6.81-8.67-5.04-4.64 5.78.89.52zM102 87.73c.73-.92 1.49-1.79 2.27-2.63l.24-.27c.28-.3.58-.59.87-.89l.36-.36c.52-.51 1.05-1 1.59-1.48l-8.67-5c-.54.47-1.07 1-1.59 1.48l-.14.13-.72.74-.37.38c-.41.44-.81.88-1.21 1.33-.43.5-.86 1-1.28 1.54ZM92.34 108.05l-8.67-5.04-6.09 5.38 8.67 5.03z" style="fill:#fff;opacity:.2"/><path d="m116.28 69.91-.89-.52-7.78-4.52-7.36 4.25 8.67 5.04zM96.53 87.22l-8.67-5.04-5.19 8.99 8.68 5.03z" style="fill:#fff;opacity:.2"/><path d="m172.87 87.45-.24.23ZM163.85 85.93a7 7 0 0 0 .65-.34c.23-.13.46-.28.68-.43l.22-.16.45-.34.24-.2c.14-.11.27-.23.4-.35l.24-.22c.11-.1.2-.2.3-.3s.32-.34.48-.51l.27-.31c.1-.11.19-.22.28-.34s.22-.27.32-.41l.2-.27.36-.51.13-.21c.16-.24.31-.48.45-.73l.08-.13c.11-.21.23-.42.34-.64l.11-.21.33-.69a.4.4 0 0 1 0-.09c.11-.26.21-.53.31-.79l.09-.23c.06-.19.13-.38.19-.58l.09-.29c.05-.17.09-.34.13-.51a2.4 2.4 0 0 0 .09-.36c0-.13.06-.26.08-.39s.07-.38.1-.57l.06-.51a2 2 0 0 0 0-.26v-.78a8 8 0 0 0-.07-1 8.5 8.5 0 0 0-1 .47 15.73 15.73 0 0 0-7.12 12.32c0 .35 0 .68.07 1h.14ZM176.33 72.78l.19.18ZM171.53 88.57l-.21.15ZM175.9 72.42a1.6 1.6 0 0 1 .21.15 1.6 1.6 0 0 0-.21-.15M177.53 75c0 .1.05.18.07.28-.02-.11-.05-.19-.07-.28M177.67 75.77a2 2 0 0 1 0 .25 2 2 0 0 0 0-.25M177.05 73.73l.13.24ZM177.32 74.33a2 2 0 0 1 .1.26 2 2 0 0 0-.1-.26M176.72 73.22c.05.07.11.13.16.21-.05-.08-.11-.14-.16-.21M177.51 61.87h.42zM164.66 68.71l.17-.19ZM173.64 86.65c-.15.17-.31.34-.47.5.16-.15.32-.33.47-.5M177 81.08c0 .08 0 .16-.08.24-.02-.08 0-.16.08-.24M156.65 83.16c0-.18.09-.36.14-.53-.05.17-.09.37-.14.53M165.45 67.9l.25-.26ZM156.22 85c.05-.24.11-.48.17-.73-.06.2-.12.44-.17.73M175.07 84.8l.14-.2ZM175.66 83.87a.5.5 0 0 1 .07-.13.5.5 0 0 0-.07.13M166 89.88h.13ZM176.07 83.1a1.5 1.5 0 0 0 .11-.22 1.5 1.5 0 0 1-.11.22M177.37 79.71l.09-.37ZM177.69 77.87a9 9 0 0 0 .06-1v.79ZM176.51 82.19v-.09ZM177.53 79a6 6 0 0 0 .1-.57 6 6 0 0 1-.1.57M177.14 80.51l.09-.29zM174.52 85.58l.2-.27ZM168.36 90a1.5 1.5 0 0 0 .29-.06 1.4 1.4 0 0 1-.29.06M167.77 90.11h.22ZM166.56 90h.12ZM169 89.88a5 5 0 0 0 .51-.17 3 3 0 0 1-.51.17M172 88.23l-.24.18a8 8 0 0 0 .7-.58 2 2 0 0 1-.22.2ZM169.82 89.57a9 9 0 0 0 .82-.41q-.33.18-.66.33ZM173.92 86.33l.27-.33Z" style="fill:none"/><path d="m163.14 100-.58.72 5.51 3.2-1.15-4.3a10.1 10.1 0 0 1-3.78.38M185 68.35l4.32-1.18-5.54-3.17-.38 1a10.3 10.3 0 0 1 1.6 3.35M177.67 75.77c0-.17 0-.34-.07-.5s0-.18-.07-.28a3 3 0 0 0-.11-.4 2 2 0 0 0-.1-.26 2.2 2.2 0 0 0-.14-.36l-.13-.24c-.05-.1-.11-.2-.17-.3s-.11-.14-.16-.21-.13-.18-.2-.26l-.19-.18a2 2 0 0 0-.22-.21 1.6 1.6 0 0 0-.21-.15 4.43 4.43 0 0 0-4.35-.14 8 8 0 0 1 .07 1v.78a2 2 0 0 1 0 .26l-.06.51c0 .19-.06.38-.1.57s-.05.26-.08.39a2.4 2.4 0 0 1-.09.36c0 .17-.08.34-.13.51l-.09.29c-.06.2-.13.39-.19.58l-.09.23c-.1.26-.2.53-.31.79a.4.4 0 0 0 0 .09l-.33.69-.11.21c-.11.22-.23.43-.34.64l-.08.13c-.14.25-.29.49-.45.73l-.13.21-.36.51-.2.27c-.1.14-.21.28-.32.41s-.18.23-.28.34l-.27.31c-.16.17-.31.34-.48.51s-.19.2-.3.3l-.24.22c-.13.12-.26.24-.4.35l-.24.2-.45.34-.22.16c-.22.15-.45.3-.68.43a7 7 0 0 1-.65.34l-.17.08h-.14a4.54 4.54 0 0 0 2 3.6 2.7 2.7 0 0 0 .45.22h.11a3 3 0 0 0 .39.11h.11a5 5 0 0 0 .53.06h.12a2 2 0 0 0 .44 0h.2l.37-.06a1.4 1.4 0 0 0 .28-.06 1.6 1.6 0 0 0 .31-.09 3 3 0 0 0 .5-.17l.35-.14.16-.08q.33-.15.66-.33c.23-.14.45-.28.68-.44l.21-.15.21-.16.24-.18.24-.2a2 2 0 0 0 .22-.2l.19-.15.24-.23.3-.3c.16-.16.32-.33.47-.5l.28-.32.27-.33.33-.42.2-.27c.12-.16.24-.33.35-.51l.14-.2.45-.73a.5.5 0 0 1 .07-.13c.12-.21.23-.43.34-.64a1.5 1.5 0 0 0 .11-.22 7 7 0 0 0 .33-.69v-.09c.11-.26.22-.52.32-.78 0-.08 0-.16.08-.24s.13-.38.19-.57l.09-.29c.05-.17.1-.34.14-.51l.09-.37c0-.13 0-.26.07-.39a6 6 0 0 0 .1-.57 4 4 0 0 0 .06-.51v-1.04a7 7 0 0 0 0-.81 2 2 0 0 0 .04-.17M153.31 94.36l-1.38.37-.61-.35-1.86 4.77 6.13 3.57 2.24-5.74zM173.5 59.23l4.58 2.67 3.86-4.82-6.13-3.57-3.28 4.09.63.37z" style="fill:#e0e0e0"/><path d="m156.25 93.56-2.94.8 4.52 2.64a10.1 10.1 0 0 1-1.58-3.44M174.31 62.27a11.2 11.2 0 0 1 2.54-.4h1.23l-4.59-2.67ZM156.39 84.23c.08-.35.16-.71.26-1.06 0-.18.09-.36.14-.53q.42-1.47 1-2.91l-6.13-3.57-.11.27c0 .15-.1.3-.16.44l-.28.78-.06.17-.11.38q-.15.44-.27.87c0 .08 0 .16-.07.24s-.05.2-.07.29c-.1.36-.19.71-.27 1.07 0 .1-.05.21-.07.31l-.09.42 6.12 3.6c.05-.29.11-.53.17-.77M163.06 70.57c.51-.64 1.05-1.26 1.6-1.86l.17-.19c.2-.21.41-.42.62-.62l.25-.26c.37-.36.74-.72 1.13-1L160.69 63c-.38.34-.75.69-1.12 1 0 0-.07.06-.1.1l-.51.52-.26.27c-.29.31-.58.62-.86.94-.31.35-.61.72-.91 1.09Z" style="fill:#e0e0e0"/><path d="m156.22 84.95-6.13-3.56-4.31 3.8 6.13 3.56z" style="fill:#e0e0e0"/><path d="m151.91 88.75-6.13-3.56.01 5.98 5.53 3.21.61.35zM167.95 60.97l-6.13-3.56-1.13 5.61 6.14 3.57zM173.16 57.97l-.63-.37-5.51-3.2-5.2 3.01 6.13 3.56zM155.52 76.57l-6.14-3.56 2.27 3.14 6.13 3.57zM163.06 70.57l-6.14-3.56-3.87-.36 6.14 3.57z" style="fill:#e0e0e0"/><path d="m163.14 100-.58.72 5.51 3.2-1.15-4.3a10.1 10.1 0 0 1-3.78.38M185 68.35l4.32-1.18-5.54-3.17-.38 1a10.3 10.3 0 0 1 1.6 3.35M177.67 75.77c0-.17 0-.34-.07-.5s0-.18-.07-.28a3 3 0 0 0-.11-.4 2 2 0 0 0-.1-.26 2.2 2.2 0 0 0-.14-.36l-.13-.24c-.05-.1-.11-.2-.17-.3s-.11-.14-.16-.21-.13-.18-.2-.26l-.19-.18a2 2 0 0 0-.22-.21 1.6 1.6 0 0 0-.21-.15 4.43 4.43 0 0 0-4.35-.14 8 8 0 0 1 .07 1v.78a2 2 0 0 1 0 .26l-.06.51c0 .19-.06.38-.1.57s-.05.26-.08.39a2.4 2.4 0 0 1-.09.36c0 .17-.08.34-.13.51l-.09.29c-.06.2-.13.39-.19.58l-.09.23c-.1.26-.2.53-.31.79a.4.4 0 0 0 0 .09l-.33.69-.11.21c-.11.22-.23.43-.34.64l-.08.13c-.14.25-.29.49-.45.73l-.13.21-.36.51-.2.27c-.1.14-.21.28-.32.41s-.18.23-.28.34l-.27.31c-.16.17-.31.34-.48.51s-.19.2-.3.3l-.24.22c-.13.12-.26.24-.4.35l-.24.2-.45.34-.22.16c-.22.15-.45.3-.68.43a7 7 0 0 1-.65.34l-.17.08h-.14a4.54 4.54 0 0 0 2 3.6 2.7 2.7 0 0 0 .45.22h.11a3 3 0 0 0 .39.11h.11a5 5 0 0 0 .53.06h.12a2 2 0 0 0 .44 0h.2l.37-.06a1.4 1.4 0 0 0 .28-.06 1.6 1.6 0 0 0 .31-.09 3 3 0 0 0 .5-.17l.35-.14.16-.08q.33-.15.66-.33c.23-.14.45-.28.68-.44l.21-.15.21-.16.24-.18.24-.2a2 2 0 0 0 .22-.2l.19-.15.24-.23.3-.3c.16-.16.32-.33.47-.5l.28-.32.27-.33.33-.42.2-.27c.12-.16.24-.33.35-.51l.14-.2.45-.73a.5.5 0 0 1 .07-.13c.12-.21.23-.43.34-.64a1.5 1.5 0 0 0 .11-.22 7 7 0 0 0 .33-.69v-.09c.11-.26.22-.52.32-.78 0-.08 0-.16.08-.24s.13-.38.19-.57l.09-.29c.05-.17.1-.34.14-.51l.09-.37c0-.13 0-.26.07-.39a6 6 0 0 0 .1-.57 4 4 0 0 0 .06-.51v-1.04a7 7 0 0 0 0-.81 2 2 0 0 0 .04-.17M153.31 94.36l-1.38.37-.61-.35-1.86 4.77 6.13 3.57 2.24-5.74z" style="opacity:.2"/><path d="m156.25 93.56-2.94.8 4.52 2.64a10.1 10.1 0 0 1-1.58-3.44M174.31 62.27a11.2 11.2 0 0 1 2.54-.4h1.23l-4.59-2.67ZM156.39 84.23c.08-.35.16-.71.26-1.06 0-.18.09-.36.14-.53q.42-1.47 1-2.91l-6.13-3.57-.11.27c0 .15-.1.3-.16.44l-.28.78-.06.17-.11.38q-.15.44-.27.87c0 .08 0 .16-.07.24s-.05.2-.07.29c-.1.36-.19.71-.27 1.07 0 .1-.05.21-.07.31l-.09.42 6.12 3.6c.05-.29.11-.53.17-.77M151.91 88.75l-6.13-3.56.01 5.98 5.53 3.21.61.35zM167.95 60.97l-6.13-3.56-1.13 5.61 6.14 3.57zM155.52 76.57l-6.14-3.56 2.27 3.14 6.13 3.57zM163.06 70.57l-6.14-3.56-3.87-.36 6.14 3.57z" style="opacity:.2"/><path d="m159.19 70.22-6.14-3.57-3.67 6.36 6.14 3.56z" style="fill:#e0e0e0"/><path d="m173.5 59.23 4.58 2.67 3.86-4.82-6.13-3.57-3.28 4.09.63.37zM163.06 70.57c.51-.64 1.05-1.26 1.6-1.86l.17-.19c.2-.21.41-.42.62-.62l.25-.26c.37-.36.74-.72 1.13-1L160.69 63c-.38.34-.75.69-1.12 1 0 0-.07.06-.1.1l-.51.52-.26.27c-.29.31-.58.62-.86.94-.31.35-.61.72-.91 1.09ZM156.22 84.95l-6.13-3.56-4.31 3.8 6.13 3.56z" style="fill:#fff;opacity:.2"/><path d="m173.16 57.97-.63-.37-5.51-3.2-5.2 3.01 6.13 3.56zM159.19 70.22l-6.14-3.57-3.67 6.36 6.14 3.56z" style="fill:#fff;opacity:.2"/><path d="m185 77 4.31-3.8v-6L185 68.35a10.3 10.3 0 0 0-1.58-3.42l.38-1 1.86-4.78-3.7-2.1-3.86 4.82h-1.23a11.2 11.2 0 0 0-2.54.4l-.82-3-.35-1.27-5.16 3-1.12 5.62c-.39.33-.76.69-1.13 1l-.25.26c-.21.2-.42.41-.62.62l-.17.19c-.55.6-1.09 1.22-1.6 1.86l-3.87-.35-3.67 6.35 2.26 3.15q-.57 1.44-1 2.91c0 .17-.09.35-.14.53-.1.35-.18.71-.26 1.06s-.12.49-.17.73l-4.31 3.8v6l1.38-.37 2.94-.8a10.1 10.1 0 0 0 1.56 3.44l-2.24 5.74 3.7 2.1 3.27-4.09.58-.72a10.1 10.1 0 0 0 3.78-.38l1.15 4.3 5.21-3 1.12-5.62a30.3 30.3 0 0 0 3.77-4l3.87.35 3.67-6.36-2.26-3.14A31.3 31.3 0 0 0 185 77m-7.32.92a4 4 0 0 1-.06.51 6 6 0 0 1-.1.57c0 .13 0 .26-.07.39l-.09.37c0 .17-.09.34-.14.51l-.09.29c-.06.19-.12.38-.19.57s0 .16-.08.24c-.1.26-.21.52-.32.78v.09a7 7 0 0 1-.33.69 1.5 1.5 0 0 1-.11.22c-.11.21-.22.43-.34.64a.5.5 0 0 0-.07.13l-.45.73-.14.2c-.11.18-.23.35-.35.51l-.2.27-.33.42-.27.33-.28.32c-.15.17-.31.34-.47.5l-.3.3-.24.23-.19.15a8 8 0 0 1-.7.58l-.21.16-.21.15c-.23.16-.45.3-.68.44a9 9 0 0 1-.82.41l-.35.14a5 5 0 0 1-.51.17 1.6 1.6 0 0 1-.31.09 1.5 1.5 0 0 1-.29.06l-.37.06h-.22a2 2 0 0 1-.44 0h-.12a5 5 0 0 1-.53-.06h-.12a3 3 0 0 1-.39-.11h-.13a2.7 2.7 0 0 1-.45-.22 4.54 4.54 0 0 1-2-3.6c0-.31-.06-.64-.07-1a15.73 15.73 0 0 1 7.12-12.32 8.5 8.5 0 0 1 1-.47 4.43 4.43 0 0 1 4.35.14 1.6 1.6 0 0 1 .21.15 2 2 0 0 1 .22.21l.19.18c.07.08.13.17.2.26s.11.13.16.21.12.2.17.3l.13.24a2.2 2.2 0 0 1 .14.36 2 2 0 0 1 .1.26 3 3 0 0 1 .11.4c0 .1.05.18.07.28s.05.33.07.5a2 2 0 0 1 0 .25 7 7 0 0 1 0 .81 9 9 0 0 1-.1.96Z" style="fill:#e0e0e0"/><path d="M301.32 90.12a3.53 3.53 0 1 1-3.59-3.48 3.52 3.52 0 0 1 3.59 3.48" style="fill:#37474f"/><path d="M293.52 90.49c-2.36-1.31-2.4-3.51-.07-4.9a9.35 9.35 0 0 1 8.48-.12c2.35 1.31 2.39 3.5.07 4.88a9.35 9.35 0 0 1-8.48.14" style="fill:#455a64"/><path d="M293.37 89.22c-2.44-1.36-2.47-3.62-.09-5A9.73 9.73 0 0 1 302 84c2.44 1.36 2.47 3.62.07 5a9.6 9.6 0 0 1-8.7.22" style="fill:#37474f"/><path d="M293.22 87.92c-2.5-1.4-2.54-3.72-.06-5.14a10 10 0 0 1 9-.14c2.51 1.4 2.56 3.73.09 5.21a9.94 9.94 0 0 1-9.03.07" style="fill:#455a64"/><path d="M293.05 86.55c-2.58-1.44-2.61-3.84-.08-5.36a10.31 10.31 0 0 1 9.29-.15c2.58 1.44 2.62 3.84.07 5.36a10.29 10.29 0 0 1-9.28.15" style="fill:#37474f"/><path d="M292.91 85.14c-2.67-1.52-2.69-3.92-.09-5.47a10.43 10.43 0 0 1 9.48-.15c2.64 1.46 2.68 3.91.08 5.47a10.44 10.44 0 0 1-9.47.15" style="fill:#455a64"/><path d="M297 43.84a16.81 16.81 0 0 0-16.58 17V61c.21 13.36 11.25 15.41 11.37 20.79a2.87 2.87 0 0 0 1.73 2.34 9.09 9.09 0 0 0 8.22-.12 2.88 2.88 0 0 0 1.63-2.39c-.09-5.38 10.91-7.77 10.69-21.15a16.8 16.8 0 0 0-17-16.58Z" style="fill:#0acbcb"/><g style="opacity:.6000000000000001"><path d="M297 43.84a16.81 16.81 0 0 0-16.58 17V61c.21 13.36 11.25 15.41 11.37 20.79a2.87 2.87 0 0 0 1.73 2.34 9.09 9.09 0 0 0 8.22-.12 2.88 2.88 0 0 0 1.63-2.39c-.09-5.38 10.91-7.77 10.69-21.15a16.8 16.8 0 0 0-17-16.58Z" style="fill:#fff"/></g><path d="M294.56 83.38c-1.68-1-1.75-2.55-.11-3.54a6.83 6.83 0 0 1 6.18-.1c1.68 1 1.75 2.55.06 3.57a6.82 6.82 0 0 1-6.13.07" style="fill:#0acbcb"/><path d="M299.85 81.1a.57.57 0 0 1-.57-.55 41 41 0 0 1 1-9.62 20 20 0 0 1 .8-2.69 7.5 7.5 0 0 1-1.48-.71 9.8 9.8 0 0 1-2.28-1.88 10.3 10.3 0 0 1-2.2 1.91 8.2 8.2 0 0 1-1.45.73 21 21 0 0 1 .88 2.67 40 40 0 0 1 1.33 9.6.57.57 0 0 1-.58.57.58.58 0 0 1-.56-.58 40.7 40.7 0 0 0-1.3-9.31 19 19 0 0 0-.89-2.64 3.61 3.61 0 0 1-3.2-.89 1.83 1.83 0 0 1-.29-2.35 1.54 1.54 0 0 1 1.56-.68 4.31 4.31 0 0 1 2.56 2.57 6.4 6.4 0 0 0 1.31-.66 8.8 8.8 0 0 0 2.12-1.86 4.16 4.16 0 0 1-.89-3.2 1.6 1.6 0 0 1 3.06-.05 4.12 4.12 0 0 1-.78 3.22 8.5 8.5 0 0 0 2.15 1.81 7.4 7.4 0 0 0 1.34.61 4.4 4.4 0 0 1 2.51-2.65 1.51 1.51 0 0 1 1.56.67 1.83 1.83 0 0 1-.21 2.36 3.63 3.63 0 0 1-3.17 1 19 19 0 0 0-.81 2.67 40.3 40.3 0 0 0-1 9.35.57.57 0 0 1-.55.59Zm-9.49-15.28a.38.38 0 0 0-.31.22c-.28.38.05.79.16.9a2.29 2.29 0 0 0 1.84.57 3.26 3.26 0 0 0-1.6-1.69Zm12.38 1.57a2.36 2.36 0 0 0 1.82-.64c.1-.12.42-.53.14-.91-.16-.22-.3-.22-.41-.2-.38.07-.97.62-1.55 1.75m-5.43-5.82a.38.38 0 0 0-.44.31 2.76 2.76 0 0 0 .48 1.86 2.82 2.82 0 0 0 .41-1.88.39.39 0 0 0-.45-.31Z" style="fill:#fff"/><path d="M297 37.46a.7.7 0 0 1-.29 0 1.1 1.1 0 0 1-1.12-1.08l-.13-5.73a1.1 1.1 0 0 1 1.06-1.12 1.11 1.11 0 0 1 1.13 1.08l.12 5.73a1.1 1.1 0 0 1-.77 1.12M284.86 41a1.11 1.11 0 0 1-1.25-.48l-3-4.9a1.11 1.11 0 0 1 1.89-1.15l3 4.89a1.11 1.11 0 0 1-.37 1.52 1.2 1.2 0 0 1-.27.12M276.11 50.17a1 1 0 0 1-.84-.09l-5-2.76a1.1 1.1 0 0 1-.45-1.48 1.12 1.12 0 0 1 1.51-.44l5 2.74a1.11 1.11 0 0 1 .43 1.5 1.06 1.06 0 0 1-.65.53M273.1 62.47a.8.8 0 0 1-.27.11l-5.73.12a1.08 1.08 0 0 1-1.12-1 1.1 1.1 0 0 1 1.02-1.2l5.73-.18a1.09 1.09 0 0 1 1.09 1.11 1.11 1.11 0 0 1-.76 1ZM327.76 61.26a.8.8 0 0 1-.27.11l-5.75.06a1.1 1.1 0 1 1 0-2.19l5.73-.13a1.1 1.1 0 0 1 .33 2.15ZM318.48 49.23a1.1 1.1 0 0 1-1.36-.76 1.12 1.12 0 0 1 .48-1.24l4.91-3a1.07 1.07 0 0 1 1.48.35 1.08 1.08 0 0 1-.35 1.5l-4.9 3a1.5 1.5 0 0 1-.26.15M309.33 40.47a1.11 1.11 0 0 1-1.37-.74 1.12 1.12 0 0 1 .09-.84l2.78-5a1.11 1.11 0 0 1 1.93 1.11L310 40a1 1 0 0 1-.67.47" style="fill:#e0e0e0"/><path d="M79.51 248.75h-.07a1.08 1.08 0 0 1-1-1l-3.56-46.2 2.15-.17 3 38.89 15.4-70.67a1.09 1.09 0 0 1 .88-.83 1.06 1.06 0 0 1 1.1.5l28.19 46.64 18.76-85.75a1.09 1.09 0 0 1 .94-.84 1.06 1.06 0 0 1 1.09.62l27.48 59.37 17.79-53 2 .69L175 192.57a1.06 1.06 0 0 1-1 .73 1.08 1.08 0 0 1-1-.62l-27.27-58.92L127.12 219a1.08 1.08 0 0 1-2 .32L97 172.71l-16.38 75.2a1.08 1.08 0 0 1-1.11.84" style="fill:#0acbcb"/><path d="M79.51 248.75h-.07a1.08 1.08 0 0 1-1-1l-3.56-46.2 2.15-.17 3 38.89 15.4-70.67a1.09 1.09 0 0 1 .88-.83 1.06 1.06 0 0 1 1.1.5l28.19 46.64 18.76-85.75a1.09 1.09 0 0 1 .94-.84 1.06 1.06 0 0 1 1.09.62l27.48 59.37 17.79-53 2 .69L175 192.57a1.06 1.06 0 0 1-1 .73 1.08 1.08 0 0 1-1-.62l-27.27-58.92L127.12 219a1.08 1.08 0 0 1-2 .32L97 172.71l-16.38 75.2a1.08 1.08 0 0 1-1.11.84" style="opacity:.2"/><circle cx="145.41" cy="131.87" r="5.05" style="fill:#0acbcb"/><circle cx="145.41" cy="131.87" r="9.36" style="fill:#0acbcb;opacity:.30000000000000004" transform="rotate(-89.12 145.395 131.867)"/><path d="M248.12 228.52H248a.53.53 0 0 1-.42-.47L241 166l-21.9 50.91a.53.53 0 0 1-.58.32.54.54 0 0 1-.45-.49l-5.81-66.42 1.07-.09 5.67 64.29 21.88-50.8a.52.52 0 0 1 .57-.32.54.54 0 0 1 .46.47l6.61 62.38 22-39.13.94.53-22.83 40.6a.53.53 0 0 1-.51.27" style="fill:#0acbcb"/><path d="M215.12 150.28a2.33 2.33 0 1 1-2.33-2.33 2.32 2.32 0 0 1 2.33 2.33" style="fill:#0acbcb"/><path d="M215.12 150.28a2.33 2.33 0 1 1-2.33-2.33 2.32 2.32 0 0 1 2.33 2.33" style="opacity:.2"/><path d="M243.32 164.75a2.32 2.32 0 1 1-2.32-2.33 2.32 2.32 0 0 1 2.32 2.33" style="fill:#0acbcb"/><path d="M243.32 164.75a2.32 2.32 0 1 1-2.32-2.33 2.32 2.32 0 0 1 2.32 2.33" style="opacity:.2"/><path d="M273.74 187.65a2.32 2.32 0 1 1-2.32-2.33 2.32 2.32 0 0 1 2.32 2.33" style="fill:#0acbcb"/><path d="M273.74 187.65a2.32 2.32 0 1 1-2.32-2.33 2.32 2.32 0 0 1 2.32 2.33" style="opacity:.2"/><path d="M263.68 251.27h-.11a1.08 1.08 0 0 1-1-1l-6.92-72.72-15.18 43.65a1.08 1.08 0 0 1-2.09-.21l-9.14-67.09-22.72 56.91a1.08 1.08 0 0 1-2.07-.29l-5.71-56 2.15-.22 5.26 51.6 22.61-56.64a1.1 1.1 0 0 1 1.13-.67 1.07 1.07 0 0 1 .93.93l9.09 66.7 15.37-44a1.06 1.06 0 0 1 1.14-.71 1.08 1.08 0 0 1 .95 1l6.89 72.41 14.55-45.26 2.05.66-16.15 50.24a1.07 1.07 0 0 1-1.03.71" style="fill:#0acbcb"/><path d="M263.68 251.27h-.11a1.08 1.08 0 0 1-1-1l-6.92-72.72-15.18 43.65a1.08 1.08 0 0 1-2.09-.21l-9.14-67.09-22.72 56.91a1.08 1.08 0 0 1-2.07-.29l-5.71-56 2.15-.22 5.26 51.6 22.61-56.64a1.1 1.1 0 0 1 1.13-.67 1.07 1.07 0 0 1 .93.93l9.09 66.7 15.37-44a1.06 1.06 0 0 1 1.14-.71 1.08 1.08 0 0 1 .95 1l6.89 72.41 14.55-45.26 2.05.66-16.15 50.24a1.07 1.07 0 0 1-1.03.71" style="opacity:.2"/><circle cx="229.55" cy="150.28" r="9.05" style="fill:#0acbcb;opacity:.30000000000000004"/><circle cx="229.55" cy="150.28" r="5.05" style="fill:#0acbcb"/><path d="M96.48 224.47a.54.54 0 0 1-.49-.32l-14.54-32 1-.45 13.93 30.62 19-67.19a.54.54 0 0 1 .91-.22l33.42 36.2 21.42-50.47a.54.54 0 0 1 1 0l18.78 38.39-1 .47-18.27-37.33-21.29 50.16a.52.52 0 0 1-.4.32.56.56 0 0 1-.49-.16l-33.34-36.09L97 224.07a.54.54 0 0 1-.47.4Z" style="fill:#0acbcb"/><path d="M84.39 191.74a2.32 2.32 0 1 1-2.32-2.32 2.32 2.32 0 0 1 2.32 2.32" style="fill:#0acbcb"/><path d="M82.07 196.22a4.48 4.48 0 1 1 4.48-4.48 4.48 4.48 0 0 1-4.48 4.48" style="fill:#0acbcb;opacity:.2"/><path d="M84.39 191.74a2.32 2.32 0 1 1-2.32-2.32 2.32 2.32 0 0 1 2.32 2.32" style="opacity:.2"/><path d="M98.8 223.39a2.33 2.33 0 1 1-2.32-2.32 2.32 2.32 0 0 1 2.32 2.32" style="fill:#0acbcb"/><path d="M96.48 227.87a4.48 4.48 0 1 1 4.47-4.48 4.49 4.49 0 0 1-4.47 4.48" style="fill:#0acbcb;opacity:.2"/><path d="M98.8 223.39a2.33 2.33 0 1 1-2.32-2.32 2.32 2.32 0 0 1 2.32 2.32" style="opacity:.2"/><circle cx="115.6" cy="155.72" r="2.32" style="fill:#0acbcb"/><path d="M115.6 160.19a4.48 4.48 0 1 1 4.48-4.47 4.47 4.47 0 0 1-4.48 4.47" style="fill:#0acbcb;opacity:.2"/><circle cx="115.6" cy="155.72" r="2.32" style="opacity:.2"/><path d="M173.92 141a2.32 2.32 0 1 1-2.32-2.32 2.32 2.32 0 0 1 2.32 2.32" style="fill:#0acbcb"/><path d="M171.6 145.43a4.48 4.48 0 1 1 4.47-4.48 4.49 4.49 0 0 1-4.47 4.48" style="fill:#0acbcb;opacity:.2"/><path d="M173.92 141a2.32 2.32 0 1 1-2.32-2.32 2.32 2.32 0 0 1 2.32 2.32" style="opacity:.2"/><path d="M193.8 325.57a15 15 0 1 1-15.3-14.79 15 15 0 0 1 15.3 14.79" style="fill:#37474f"/><path d="M160.56 327.15c-10.07-5.59-10.23-14.92-.32-20.87a40 40 0 0 1 36.13-.53c10 5.61 10.19 14.95.31 20.83a39.88 39.88 0 0 1-36.12.57" style="fill:#455a64"/><path d="M159.91 321.75c-10.37-5.8-10.54-15.41-.36-21.52a41.37 41.37 0 0 1 37.26-.59c10.37 5.8 10.54 15.41.3 21.49a40.91 40.91 0 0 1-37.2.62" style="fill:#37474f"/><path d="M159.27 316.23c-10.65-6-10.82-15.85-.24-21.9a42.36 42.36 0 0 1 38.25-.59c10.71 5.94 10.89 15.87.4 22.16a42.51 42.51 0 0 1-38.41.33" style="fill:#455a64"/><path d="M158.55 310.36c-11-6.11-11.13-16.34-.32-22.8a43.73 43.73 0 0 1 39.54-.67c11 6.16 11.19 16.36.34 22.85a43.8 43.8 0 0 1-39.56.62" style="fill:#37474f"/><path d="M158 304.38c-11.37-6.5-11.44-16.7-.37-23.33a44.52 44.52 0 0 1 40.39-.61c11.25 6.22 11.41 16.65.34 23.28a44.58 44.58 0 0 1-40.36.66" style="fill:#455a64"/><path d="M175.42 128.43A71.58 71.58 0 0 0 104.8 201v.33c.89 56.94 47.93 65.68 48.41 88.58a12.28 12.28 0 0 0 7.41 10 38.71 38.71 0 0 0 35-.51 12.3 12.3 0 0 0 7-10.18c-.42-22.99 46.38-33.22 45.5-90.17a71.57 71.57 0 0 0-72.53-70.62Z" style="fill:#0acbcb"/><g style="opacity:.6000000000000001"><path d="M175.42 128.43A71.58 71.58 0 0 0 104.8 201v.33c.89 56.94 47.93 65.68 48.41 88.58a12.28 12.28 0 0 0 7.41 10 38.71 38.71 0 0 0 35-.51 12.3 12.3 0 0 0 7-10.18c-.42-22.99 46.38-33.22 45.5-90.17a71.57 71.57 0 0 0-72.53-70.62Z" style="fill:#fff"/></g><path d="M165 296.87c-7.14-4.16-7.48-10.84-.47-15.1a29.17 29.17 0 0 1 26.34-.39c7.14 4.16 7.43 10.86.23 15.19a29 29 0 0 1-26.1.3" style="fill:#0acbcb"/><path d="M187.53 287.14a2.45 2.45 0 0 1-2.46-2.32 175 175 0 0 1 4.43-41 85 85 0 0 1 3.39-11.46 32 32 0 0 1-6.3-3 41.2 41.2 0 0 1-9.72-8 42.9 42.9 0 0 1-9.37 8.15 34 34 0 0 1-6.19 3.11 92 92 0 0 1 3.77 11.38 171.9 171.9 0 0 1 5.67 40.92 2.44 2.44 0 0 1-4.87-.06 172.4 172.4 0 0 0-5.54-39.65 77 77 0 0 0-3.79-11.26 15.3 15.3 0 0 1-13.64-3.79 7.81 7.81 0 0 1-1.21-10 6.49 6.49 0 0 1 6.61-2.89 18.43 18.43 0 0 1 10.93 11 28 28 0 0 0 5.59-2.81 37.6 37.6 0 0 0 9-8 17.8 17.8 0 0 1-3.79-13.62 6.84 6.84 0 0 1 13.06-.21 17.6 17.6 0 0 1-3.32 13.73A37.8 37.8 0 0 0 189 225a28.6 28.6 0 0 0 5.69 2.58 18.72 18.72 0 0 1 10.61-11.28 6.45 6.45 0 0 1 6.64 2.88 7.73 7.73 0 0 1-.88 10 15.36 15.36 0 0 1-13.51 4.24 82 82 0 0 0-3.47 11.37 171.6 171.6 0 0 0-4.23 39.83 2.45 2.45 0 0 1-2.36 2.52Zm-40.43-65.06a1.58 1.58 0 0 0-1.34.91c-1.18 1.62.23 3.38.69 3.85a9.67 9.67 0 0 0 7.83 2.41 13.85 13.85 0 0 0-6.81-7.21Zm52.72 6.67a10 10 0 0 0 7.77-2.74c.41-.5 1.8-2.26.61-3.87a1.65 1.65 0 0 0-1.76-.85c-1.64.32-4.13 2.62-6.62 7.46M176.72 204a1.64 1.64 0 0 0-1.89 1.34 11.8 11.8 0 0 0 2 7.94 12 12 0 0 0 1.73-8 1.64 1.64 0 0 0-1.89-1.34Z" style="fill:#fff"/><g style="opacity:.30000000000000004"><circle cx="196.15" cy="171.73" r="27.54" style="fill:#fff"/><circle cx="220.67" cy="216.42" r="13.5" style="fill:#fff"/></g><path d="m164.86 314.07-19.71-60.51-38.42 23.53a1.1 1.1 0 0 1-.9.1 1.07 1.07 0 0 1-.66-.62L76 203.89l2-.8 28.72 71.5L145.19 251a1.08 1.08 0 0 1 .94-.1 1.09 1.09 0 0 1 .65.68l20.13 61.82Z" style="fill:#0acbcb"/><path d="m164.86 314.07-19.71-60.51-38.42 23.53a1.1 1.1 0 0 1-.9.1 1.07 1.07 0 0 1-.66-.62L76 203.89l2-.8 28.72 71.5L145.19 251a1.08 1.08 0 0 1 .94-.1 1.09 1.09 0 0 1 .65.68l20.13 61.82Z" style="opacity:.1"/><path d="m187.06 320.27-2.12-.37 10.85-62.19a1.09 1.09 0 0 1 .71-.84 1.07 1.07 0 0 1 1.07.22L234 289.91l9.33-48a1.08 1.08 0 0 1 1.8-.58l27.27 25.92 9.71-49.18 2.11.42-10.09 51.09a1.05 1.05 0 0 1-.73.82 1.08 1.08 0 0 1-1.07-.24l-27.26-25.91-9.31 47.94a1.08 1.08 0 0 1-.72.82 1.06 1.06 0 0 1-1.06-.22L197.58 260Z" style="fill:#0acbcb"/><path d="m187.06 320.27-2.12-.37 10.85-62.19a1.09 1.09 0 0 1 .71-.84 1.07 1.07 0 0 1 1.07.22L234 289.91l9.33-48a1.08 1.08 0 0 1 1.8-.58l27.27 25.92 9.71-49.18 2.11.42-10.09 51.09a1.05 1.05 0 0 1-.73.82 1.08 1.08 0 0 1-1.07-.24l-27.26-25.91-9.31 47.94a1.08 1.08 0 0 1-.72.82 1.06 1.06 0 0 1-1.06-.22L197.58 260Z" style="opacity:.1"/><circle cx="75.95" cy="201.48" r="5.05" style="fill:#0acbcb"/><circle cx="79.36" cy="247.68" r="5.05" style="fill:#0acbcb"/><circle cx="96.48" cy="171.31" r="5.05" style="fill:#0acbcb"/><circle cx="256.09" cy="173.14" r="5.05" style="fill:#0acbcb"/><circle cx="279.63" cy="200.52" r="5.05" style="fill:#0acbcb"/><circle cx="106.17" cy="276.17" r="5.05" style="fill:#0acbcb"/><circle cx="146.38" cy="252.73" r="5.05" style="fill:#0acbcb"/><circle cx="165.88" cy="313.95" r="5.05" style="fill:#0acbcb"/><circle cx="186" cy="320.08" r="5.05" style="fill:#0acbcb"/><path d="M202.19 258.61a5.06 5.06 0 1 1-5.06-5.05 5.07 5.07 0 0 1 5.06 5.05" style="fill:#0acbcb"/><circle cx="234.11" cy="291.85" r="5.05" style="fill:#0acbcb"/><circle cx="244.3" cy="243.99" r="5.05" style="fill:#0acbcb"/><circle cx="273.38" cy="269.17" r="5.05" style="fill:#0acbcb"/><circle cx="75.95" cy="201.48" r="9.36" style="fill:#0acbcb;opacity:.30000000000000004" transform="rotate(-45 75.955 201.478)"/><circle cx="79.36" cy="247.68" r="9.36" style="fill:#0acbcb;opacity:.30000000000000004" transform="rotate(-76.72 79.355 247.67)"/><path d="M96.48 180.67a9.36 9.36 0 1 1 9.36-9.36 9.37 9.37 0 0 1-9.36 9.36M256.09 182.51a9.37 9.37 0 1 1 9.36-9.37 9.38 9.38 0 0 1-9.36 9.37" style="fill:#0acbcb;opacity:.30000000000000004"/><circle cx="279.63" cy="200.52" r="9.36" style="fill:#0acbcb;opacity:.30000000000000004" transform="rotate(-76.77 279.64 200.524)"/><circle cx="106.17" cy="276.17" r="9.36" style="fill:#0acbcb;opacity:.30000000000000004" transform="rotate(-89.35 106.183 276.177)"/><circle cx="146.38" cy="252.73" r="9.36" style="fill:#0acbcb;opacity:.30000000000000004" transform="rotate(-22.4 148.75 255.8)"/><path d="M165.88 323.31a9.37 9.37 0 1 1 9.37-9.36 9.37 9.37 0 0 1-9.37 9.36" style="fill:#0acbcb;opacity:.30000000000000004"/><circle cx="186" cy="320.08" r="9.36" style="fill:#0acbcb;opacity:.30000000000000004" transform="rotate(-76.66 186.018 320.084)"/><circle cx="197.13" cy="258.61" r="9.36" style="fill:#0acbcb;opacity:.30000000000000004"/><circle cx="234.11" cy="291.85" r="9.36" style="fill:#0acbcb;opacity:.30000000000000004"/><circle cx="244.3" cy="243.99" r="9.36" style="fill:#0acbcb;opacity:.30000000000000004" transform="rotate(-80.76 244.277 243.99)"/><circle cx="273.38" cy="269.17" r="9.36" style="fill:#0acbcb;opacity:.30000000000000004" transform="rotate(-76.77 273.386 269.173)"/><path d="M283.07 227.49a9.36 9.36 0 1 1 9.36-9.36 9.37 9.37 0 0 1-9.36 9.36" style="fill:#0acbcb;opacity:.30000000000000004"/><circle cx="283.07" cy="218.13" r="5.05" style="fill:#0acbcb"/><path d="M138.89 306.79h-.08a.55.55 0 0 1-.45-.45l-8.62-58.07-14.38 6.18a.57.57 0 0 1-.46 0 .53.53 0 0 1-.28-.37l-6.31-31.14-22.14 30.56a.54.54 0 0 1-.75.12.55.55 0 0 1-.12-.76l22.86-31.57a.55.55 0 0 1 .55-.21.52.52 0 0 1 .41.42l6.42 31.7L130 247a.54.54 0 0 1 .48 0 .56.56 0 0 1 .27.39l8.47 57.11 19-36.51a.54.54 0 0 1 .94 0l19.31 31.85a.53.53 0 0 1-.18.74.55.55 0 0 1-.74-.18l-18.81-31-19.37 37.1a.54.54 0 0 1-.48.29" style="fill:#0acbcb"/><path d="M85.54 258.05a4.48 4.48 0 1 1 4.46-4.48 4.49 4.49 0 0 1-4.46 4.48" style="fill:#0acbcb;opacity:.30000000000000004"/><circle cx="85.54" cy="253.57" r="2.32" style="fill:#0acbcb"/><path d="M85.54 258.05a4.48 4.48 0 1 1 4.46-4.48 4.49 4.49 0 0 1-4.46 4.48" style="fill:#0acbcb;opacity:.30000000000000004"/><circle cx="85.54" cy="253.57" r="2.32" style="opacity:.2"/><path d="M108.59 226.08a4.48 4.48 0 1 1 4.48-4.47 4.47 4.47 0 0 1-4.48 4.47" style="fill:#0acbcb;opacity:.30000000000000004"/><circle cx="108.59" cy="221.61" r="2.32" style="fill:#0acbcb"/><path d="M108.59 226.08a4.48 4.48 0 1 1 4.48-4.47 4.47 4.47 0 0 1-4.48 4.47" style="fill:#0acbcb;opacity:.30000000000000004"/><circle cx="108.59" cy="221.61" r="2.32" style="opacity:.2"/><path d="M115.26 258.21a4.48 4.48 0 1 1 4.47-4.47 4.48 4.48 0 0 1-4.47 4.47" style="fill:#0acbcb;opacity:.30000000000000004"/><path d="M117.58 253.74a2.33 2.33 0 1 1-2.32-2.32 2.32 2.32 0 0 1 2.32 2.32" style="fill:#0acbcb"/><path d="M115.26 258.21a4.48 4.48 0 1 1 4.47-4.47 4.48 4.48 0 0 1-4.47 4.47" style="fill:#0acbcb;opacity:.30000000000000004"/><path d="M117.58 253.74a2.33 2.33 0 1 1-2.32-2.32 2.32 2.32 0 0 1 2.32 2.32" style="opacity:.2"/><path d="M130.1 252.15a4.48 4.48 0 1 1 4.48-4.47 4.47 4.47 0 0 1-4.48 4.47" style="fill:#0acbcb;opacity:.30000000000000004"/><path d="M132.43 247.68a2.33 2.33 0 1 1-2.33-2.33 2.32 2.32 0 0 1 2.33 2.33" style="fill:#0acbcb"/><path d="M130.1 252.15a4.48 4.48 0 1 1 4.48-4.47 4.47 4.47 0 0 1-4.48 4.47" style="fill:#0acbcb;opacity:.30000000000000004"/><path d="M132.43 247.68a2.33 2.33 0 1 1-2.33-2.33 2.32 2.32 0 0 1 2.33 2.33" style="opacity:.2"/><path d="M139 310a4.48 4.48 0 1 1 4.47-4.48A4.49 4.49 0 0 1 139 310" style="fill:#0acbcb;opacity:.30000000000000004"/><path d="M141.33 305.55a2.33 2.33 0 1 1-2.32-2.32 2.32 2.32 0 0 1 2.32 2.32" style="fill:#0acbcb"/><path d="M139 310a4.48 4.48 0 1 1 4.47-4.48A4.49 4.49 0 0 1 139 310" style="fill:#0acbcb;opacity:.30000000000000004"/><path d="M141.33 305.55a2.33 2.33 0 1 1-2.32-2.32 2.32 2.32 0 0 1 2.32 2.32" style="opacity:.2"/><path d="M158.66 273.85a4.48 4.48 0 1 1 4.47-4.48 4.49 4.49 0 0 1-4.47 4.48" style="fill:#0acbcb;opacity:.30000000000000004"/><circle cx="158.66" cy="269.37" r="2.32" style="fill:#0acbcb"/><path d="M158.66 273.85a4.48 4.48 0 1 1 4.47-4.48 4.49 4.49 0 0 1-4.47 4.48" style="fill:#0acbcb;opacity:.30000000000000004"/><circle cx="158.66" cy="269.37" r="2.32" style="opacity:.2"/><path d="M178.21 305.05a4.48 4.48 0 1 1 4.48-4.47 4.48 4.48 0 0 1-4.48 4.47" style="fill:#0acbcb;opacity:.30000000000000004"/><path d="M180.53 300.58a2.32 2.32 0 1 1-2.32-2.32 2.32 2.32 0 0 1 2.32 2.32" style="fill:#0acbcb"/><path d="M178.21 305.05a4.48 4.48 0 1 1 4.48-4.47 4.48 4.48 0 0 1-4.48 4.47" style="fill:#0acbcb;opacity:.30000000000000004"/><path d="M180.53 300.58a2.32 2.32 0 1 1-2.32-2.32 2.32 2.32 0 0 1 2.32 2.32" style="opacity:.2"/><path d="M206.51 301.06a.54.54 0 0 1-.39-.16l-25.22-26.3a.54.54 0 0 1 0-.76.53.53 0 0 1 .76 0l24.51 25.55 9.31-44.9a.52.52 0 0 1 .36-.4.54.54 0 0 1 .53.11l31.38 28.47 10-57a.51.51 0 0 1 .38-.42.54.54 0 0 1 .55.15l26.65 29.38a.54.54 0 1 1-.79.73L258.64 227l-10 56.86a.57.57 0 0 1-.36.42.56.56 0 0 1-.54-.11l-31.41-28.5-9.32 45a.53.53 0 0 1-.38.41.4.4 0 0 1-.12-.02" style="fill:#0acbcb"/><path d="M181.29 278.49a4.48 4.48 0 1 1 4.48-4.47 4.47 4.47 0 0 1-4.48 4.47" style="fill:#0acbcb;opacity:.30000000000000004"/><path d="M183.61 274a2.32 2.32 0 1 1-2.32-2.33 2.32 2.32 0 0 1 2.32 2.33" style="fill:#0acbcb"/><path d="M181.29 278.49a4.48 4.48 0 1 1 4.48-4.47 4.47 4.47 0 0 1-4.48 4.47" style="fill:#0acbcb;opacity:.30000000000000004"/><path d="M183.61 274a2.32 2.32 0 1 1-2.32-2.33 2.32 2.32 0 0 1 2.32 2.33" style="opacity:.2"/><path d="M206.51 305a4.48 4.48 0 1 1 4.48-4.47 4.47 4.47 0 0 1-4.48 4.47" style="fill:#0acbcb;opacity:.30000000000000004"/><circle cx="206.51" cy="300.53" r="2.32" style="fill:#0acbcb"/><path d="M206.51 305a4.48 4.48 0 1 1 4.48-4.47 4.47 4.47 0 0 1-4.48 4.47" style="fill:#0acbcb;opacity:.30000000000000004"/><circle cx="206.51" cy="300.53" r="2.32" style="opacity:.2"/><path d="M215.69 259.66a4.48 4.48 0 1 1 4.48-4.48 4.48 4.48 0 0 1-4.48 4.48" style="fill:#0acbcb;opacity:.30000000000000004"/><circle cx="215.69" cy="255.18" r="2.32" style="fill:#0acbcb"/><path d="M215.69 259.66a4.48 4.48 0 1 1 4.48-4.48 4.48 4.48 0 0 1-4.48 4.48" style="fill:#0acbcb;opacity:.30000000000000004"/><circle cx="215.69" cy="255.18" r="2.32" style="opacity:.2"/><path d="M248.31 288.12a4.48 4.48 0 1 1 4.48-4.47 4.48 4.48 0 0 1-4.48 4.47" style="fill:#0acbcb;opacity:.30000000000000004"/><circle cx="248.31" cy="283.65" r="2.32" style="fill:#0acbcb"/><path d="M248.31 288.12a4.48 4.48 0 1 1 4.48-4.47 4.48 4.48 0 0 1-4.48 4.47" style="fill:#0acbcb;opacity:.30000000000000004"/><circle cx="248.31" cy="283.65" r="2.32" style="opacity:.2"/><path d="M258 231.2a4.48 4.48 0 1 1 4.48-4.48 4.48 4.48 0 0 1-4.48 4.48" style="fill:#0acbcb;opacity:.30000000000000004"/><path d="M260.31 226.72a2.33 2.33 0 1 1-2.31-2.32 2.33 2.33 0 0 1 2.31 2.32" style="fill:#0acbcb"/><path d="M258 231.2a4.48 4.48 0 1 1 4.48-4.48 4.48 4.48 0 0 1-4.48 4.48" style="fill:#0acbcb;opacity:.30000000000000004"/><path d="M260.31 226.72a2.33 2.33 0 1 1-2.31-2.32 2.33 2.33 0 0 1 2.31 2.32" style="opacity:.2"/><path d="M285.39 259.66a4.48 4.48 0 1 1 4.48-4.48 4.48 4.48 0 0 1-4.48 4.48" style="fill:#0acbcb;opacity:.30000000000000004"/><circle cx="285.39" cy="255.18" r="2.32" style="fill:#0acbcb"/><path d="M285.39 259.66a4.48 4.48 0 1 1 4.48-4.48 4.48 4.48 0 0 1-4.48 4.48" style="fill:#0acbcb;opacity:.30000000000000004"/><circle cx="285.39" cy="255.18" r="2.32" style="opacity:.2"/><path d="M285.39 250.71a4.43 4.43 0 0 0-2.83 1l-4-4.41 3.93-19.88a6 6 0 0 0 .58 0 9.36 9.36 0 0 0 .89-18.68 9.36 9.36 0 1 0-8.18.23l-8.36 26-4.58-5-2.2-23.18 9.65-17.17a2.32 2.32 0 1 0-1.19-2 2.3 2.3 0 0 0 .38 1.26l-9 16-2.16-22.72a9.38 9.38 0 1 0-6.28-.67l-4.2 12a71 71 0 0 0-5-20.6l-.66-6.25a2.29 2.29 0 0 0 1.15-2 2.32 2.32 0 0 0-4.62-.25 72 72 0 0 0-4.28-6.6 9 9 0 1 0-12.16-13 71.26 71.26 0 0 0-46.67-16.51h-.17a71.2 71.2 0 0 0-20.66 3.33 9.36 9.36 0 1 0-15.57 7.09 71.7 71.7 0 0 0-19.12 17s0-.07 0-.11a4.48 4.48 0 1 0-6.06 4.17l-3.25 11.5a71.3 71.3 0 0 0-4.25 13l-3.73-6.18a9.36 9.36 0 1 0-9.64 1.85L88 203.89l-3.75-8.24a4.46 4.46 0 1 0-6.6-3.91 5 5 0 0 0 .05.54 8.7 8.7 0 0 0-1.7-.17 9.36 9.36 0 0 0-.36 18.71l2.13 27.65A9.36 9.36 0 0 0 79.36 257a9.5 9.5 0 0 0 2.89-.46 4.46 4.46 0 1 0 6.27-6.33l3.91-5.4 9.27 23.09a9.36 9.36 0 1 0 13.83 8.23 9.2 9.2 0 0 0-.88-3.93l17.1-10.47 5.87 39.55a4.47 4.47 0 1 0 4.09.69l9.88-19a21 21 0 0 1 .85 2.24c-3.26 3.71-3.94 7.92-2 11.83a9.7 9.7 0 0 0 .93 6.46 9.27 9.27 0 0 0 .83 5.84 9.13 9.13 0 0 0 .88 5.81c-.79 4.33 1.71 8.78 7.5 12a36 36 0 0 0 3.46 1.47 15 15 0 0 0 29.61-.61c1-.44 2.05-.9 3.05-1.43 5.68-3.39 8-7.91 7.1-12.21a9.2 9.2 0 0 0 .77-5.54 9.8 9.8 0 0 0 .88-4 4.3 4.3 0 0 0 1.08.15 4.47 4.47 0 0 0 1.43-8.7l4.71-22.74 14 12.61a9.36 9.36 0 1 0 10.87-3l1.37-7 5.64 5.12a4.37 4.37 0 0 0-.73 2.42 4.48 4.48 0 1 0 5.63-4.31l4.65-26.55 11.6 11a9.36 9.36 0 1 0 10.3-3.63l2.28-11.55 3.51 3.87a4.47 4.47 0 1 0 3.58-1.81Zm-6.65-40.87a9 9 0 0 0-1.19.75l.28-.88c.3.05.6.1.91.13m-4.56 11.22a9.4 9.4 0 0 0 6.18 6l-3.6 18.26-7.67-8.45ZM267 236.24l-2.78 8.64L263 231.8Zm-7-13.5a4.46 4.46 0 1 0-3.16 8.29l-3.21 18.32-1.05-1a9.3 9.3 0 0 0 1.09-4.36 9.37 9.37 0 0 0-13-8.63 73 73 0 0 0 5.84-17.52l1.08 10.2a.53.53 0 0 0 .42.47h.11a.53.53 0 0 0 .47-.27l10.2-18.13Zm-144.74 26.52a4 4 0 0 0-.51.05l-3.18-15.73A77 77 0 0 0 122 250.41l-2.86 1.22a4.46 4.46 0 0 0-3.88-2.37m-18.78-21.39a4.47 4.47 0 0 0 1.86-8.54l6.58-23.3a73 73 0 0 0-.12 4.93v.33a90.7 90.7 0 0 0 1.7 16.38 4.44 4.44 0 0 0-.94 7.21l-12.11 16.73L86 223l3.07-14.11 4.93 10.8a4.48 4.48 0 0 0 2.52 8.18ZM235 245.12a9.37 9.37 0 0 0 6.24 7.71l-4 20.36-14.62-13.27a112 112 0 0 0 12.38-14.8m21.08-62.61h.07l2.45 25.74-10.13 18-1.29-12.25a90 90 0 0 0 .94-14.73l5.93-17a9 9 0 0 0 2.04.24Zm-14.68-12.79c-.34-.73-.68-1.45-1-2.16l.22-.53a3 3 0 0 0 .42 0h.12Zm-126.34-9.58a5 5 0 0 0 .54.05 4.3 4.3 0 0 0 1.48-.27q-2 2.91-3.65 6Zm-19.82 20.44a10 10 0 0 0 1.24.09 9.3 9.3 0 0 0 4.56-1.2l4.86 8c-.16.87-.31 1.74-.43 2.62L97.31 219a4.6 4.6 0 0 0-.83-.09 4.5 4.5 0 0 0-1.56.3l-5.48-12Zm-10.68 38.9-4-9.88a9.36 9.36 0 0 0 4.72-8.12 9 9 0 0 0 0-.89l2.3 5.06Zm-4.69 18.86-2.13-27.68q.44-.09.87-.21l5.13 12.78-3.3 15.15Zm8.83 9.83v-.49a9.36 9.36 0 0 0-6.19-8.8l2.64-12.09L92 243.67Zm17.47 18.64a9 9 0 0 0-2.46.34l-9.79-24.36 12.52-17.29a4.4 4.4 0 0 0 2.15.58h.09c.22.67.44 1.32.67 2l4.35 21.52a4.49 4.49 0 1 0 5.88 3.07l3.17-1.36c2.59 3.13 5.28 6 7.95 8.62l-17.17 10.47a9.35 9.35 0 0 0-7.36-3.59m34.61 34.64a4.4 4.4 0 0 0-1.77-.38h-.34l-5.8-39.1c7.6 7.33 14.68 13.22 18.13 19.77Zm66.1-5.36h-.37a5 5 0 0 0-.65.06c0-.1-.05-.21-.08-.32 1.53-3.84.66-7.9-2.58-11.38 1.19-4.32 4-8.3 7.72-12.42l.8.73Zm28.59-13.49a9 9 0 0 0-1.36-.11 9.3 9.3 0 0 0-5.94 2.13l-15-13.51.4-1.95c2.58-2.68 5.43-5.46 8.36-8.46l15.13 13.72Zm12.92-3.42h-.08a4.42 4.42 0 0 0-3.06 1.23l-6.09-5.52 4.19-21.57h1a9.3 9.3 0 0 0 7-3.2l1.84 1.75Zm25.51-19.34h-.52a9.26 9.26 0 0 0-6.23 2.4l-12.59-12 3.34-19.05h.1a4.43 4.43 0 0 0 2.72-.94l1.91 20a1.08 1.08 0 0 0 1 1h.11a1.08 1.08 0 0 0 1-.75l4-12.44 7.79 8.59Z" style="fill:#fff;opacity:.2"/><path d="m212 379.36-29.46 17.11a6.36 6.36 0 0 1-5.79 0l-29.65-17.11a2.08 2.08 0 0 1-1.21-1.68v7a2.1 2.1 0 0 0 1.21 1.68l29.65 17.11a6.36 6.36 0 0 0 5.79 0l29.46-17.1a2 2 0 0 0 1.19-1.68v-7a2 2 0 0 1-1.19 1.67" style="fill:#e0e0e0"/><path d="m212 379.36-29.46 17.11a6.36 6.36 0 0 1-5.79 0l-29.65-17.11a2.08 2.08 0 0 1-1.21-1.68v7a2.1 2.1 0 0 0 1.21 1.68l29.65 17.11a6.36 6.36 0 0 0 5.79 0l29.46-17.1a2 2 0 0 0 1.19-1.68v-7a2 2 0 0 1-1.19 1.67" style="opacity:.2"/><path d="m147.07 379.36 29.65 17.11a6.36 6.36 0 0 0 5.79 0L212 379.36a2 2 0 0 0 1.19-1.68A2.07 2.07 0 0 0 212 376l-29.7-17.12a6.42 6.42 0 0 0-5.79 0L147.05 376a2 2 0 0 0-1.19 1.68 2.08 2.08 0 0 0 1.21 1.68" style="fill:#e0e0e0"/><path d="m147.07 379.36 29.65 17.11a6.36 6.36 0 0 0 5.79 0L212 379.36a2 2 0 0 0 1.19-1.68A2.07 2.07 0 0 0 212 376l-29.7-17.12a6.42 6.42 0 0 0-5.79 0L147.05 376a2 2 0 0 0-1.19 1.68 2.08 2.08 0 0 0 1.21 1.68" style="opacity:.1"/><path d="m200.28 374.51-18.85 10.95a4 4 0 0 1-3.71 0l-19-10.95a1.31 1.31 0 0 1-.77-1.07v4.48a1.32 1.32 0 0 0 .77 1.08l19 10.95a4.11 4.11 0 0 0 3.71 0L200.28 379a1.31 1.31 0 0 0 .76-1.08v-4.48a1.3 1.3 0 0 1-.76 1.07" style="fill:#e0e0e0"/><path d="m200.28 374.51-18.85 10.95a4 4 0 0 1-3.71 0l-19-10.95a1.31 1.31 0 0 1-.77-1.07v4.48a1.32 1.32 0 0 0 .77 1.08l19 10.95a4.11 4.11 0 0 0 3.71 0L200.28 379a1.31 1.31 0 0 0 .76-1.08v-4.48a1.3 1.3 0 0 1-.76 1.07" style="opacity:.2"/><path d="M157.98 373.44" style="fill:#455a64"/><path d="m158.75 374.51 19 10.95a4 4 0 0 0 3.71 0l18.85-10.95a1.3 1.3 0 0 0 .76-1.07 1.32 1.32 0 0 0-.77-1.08l-19-10.95a4.11 4.11 0 0 0-3.71 0l-18.85 10.95a1.31 1.31 0 0 0-.76 1.08 1.31 1.31 0 0 0 .77 1.07m20.69-9.43 14.5 8.37-14.36 8.35-14.5-8.37Z" style="fill:#e0e0e0"/><path d="m165.08 373.43 14.5 8.37 14.36-8.35-14.5-8.37z" style="fill:#fff"/><path d="M165.08 373.43 70 244.8l108.21 62.24 1.37 74.76z" style="fill:#fff;opacity:.30000000000000004"/><path d="m193.94 373.45 94.81-130.23-110.54 63.82 1.37 74.76z" style="fill:#fff;opacity:.30000000000000004"/><path d="m382.45 79 29.18 16.74a5.75 5.75 0 0 1 2.86 4.94v21.23c0 3.82-3.25 6.42-7.53 4l-4.06-2.32-.82-.48-.19-.1-5.47-3.13-18.63-10.64a5.71 5.71 0 0 1-2.87-5V83c0-4.1 4.98-5.43 7.53-4" style="fill:#0acbcb"/><path d="M407.63 98.57" style="fill:none"/><path d="M409.16 100.49a5.9 5.9 0 0 0-1.52-1.92 5 5 0 0 0-.69-.47l-29.18-16.74a1.91 1.91 0 0 0-2.85 1.64c0-4.11 5-5.44 7.53-4l29.18 16.74a5.75 5.75 0 0 1 2.12 2.15Z" style="fill:#fff;opacity:.4"/><path d="M409.8 124.27V103a5 5 0 0 0 0-.67 5.8 5.8 0 0 0-.6-1.88l4.59-2.57a5.7 5.7 0 0 1 .74 2.79v21.23c0 3.82-3.25 6.42-7.53 4a1.9 1.9 0 0 0 2.8-1.63" style="fill:#fff;opacity:.2"/><path d="m402.07 123.12-.18-.1z" style="fill:none"/><path d="m402.9 123.59-.83-.47zM371.15 93.34l3.77-2.19v1.11z" style="fill:#0acbcb"/><path d="m371.15 93.34 3.77-2.19v1.11z" style="fill:#fff;opacity:.4"/><path d="m375.59 92.07-4.23 1.18a.92.92 0 0 0-.37 1.56l4.39 4.07Z" style="fill:#0acbcb"/><path d="m402.16 110 .24.5-.24.22c-2.61 2.52-6.07 2.73-9.77.6s-7.15-6.34-9.73-11.86l-.23-.49.23-.23c2.6-2.52 6.08-2.72 9.77-.59s7.15 6.37 9.73 11.85m-9.77.1c3.24 1.88 6.32 1.75 8.68-.36-2.34-4.84-5.41-8.51-8.65-10.38s-6.3-1.74-8.67.37c2.35 4.84 5.4 8.5 8.64 10.37" style="fill:#fff"/><path d="M392.6 101.31a6.68 6.68 0 0 1 3 5.24c0 1.92-1.37 2.7-3 1.73a6.65 6.65 0 0 1-3-5.24c-.05-1.93 1.32-2.71 3-1.73" style="fill:#fff"/><path d="M391.45 101.55a2.15 2.15 0 0 1 1 1.67c0 .62-.44.87-1 .56a2.13 2.13 0 0 1-1-1.68c.02-.62.46-.86 1-.55M390.85 103.81a1.13 1.13 0 0 1 .5.88c0 .32-.22.45-.5.29a1.13 1.13 0 0 1-.51-.88c0-.32.23-.45.51-.29" style="fill:#0acbcb"/><path d="M324.09 121.55a10.31 10.31 0 0 0-8.39 6.75l-9.7 27.3-21.5-13.14a8.4 8.4 0 0 1-2.85-3.82l-1-2.73a10.2 10.2 0 0 0-3.51-4.68 35.3 35.3 0 0 1-6.42-6.18 3.88 3.88 0 0 0-.28 4.89 28 28 0 0 0 2.56 2.94l-2.3.16a8 8 0 0 1-4.75-1.17l-5.86-3.59a1.11 1.11 0 0 0-1.69.94 25.2 25.2 0 0 0 1.69 8.47 9.56 9.56 0 0 0 5.59 5.66c3.11 1.19 6.13 2.22 7.86 2.8a9.9 9.9 0 0 1 2.75 1.43l1.73 1.29 23.27 22.57a10.14 10.14 0 0 0 15.51-3.31l7.59-15.24 4.45-32Z" style="fill:#ffa8a7"/><path d="M323.92 121.44a11.71 11.71 0 0 0-9.82 7.67l-7.1 19.4-2 5-6.19-3.6-8.7 11.76 9.77 9.86a11 11 0 0 0 17.75-2.9l5.17-10.53 4.21-7.41 1.8-29.8Z" style="fill:#0acbcb"/><path d="M323.92 121.44a11.71 11.71 0 0 0-9.82 7.67l-7.1 19.4-2 5-6.19-3.6-8.7 11.76 9.77 9.86a11 11 0 0 0 17.75-2.9l5.17-10.53 4.21-7.41 1.8-29.8Z" style="fill:#fff;opacity:.2"/><path d="m305 153.55 6.52 4.42c-1-5.95-5.33-7.49-5.33-7.49Z" style="opacity:.21"/><path d="m293.63 148.05 1.25.77c-.76 6.05-7.23 9.38-7.23 9.38l-1-1a4 4 0 0 0 .72 4.13l.56.65a4.35 4.35 0 0 0 5.4 1 17.74 17.74 0 0 0 7.4-9.17 4.41 4.41 0 0 0-2.08-5.29l-.88-.48a4.06 4.06 0 0 0-3.27-.26Z" style="fill:#0acbcb"/><path d="m293.63 148.05 1.25.77c-.76 6.05-7.23 9.38-7.23 9.38l-1-1a4 4 0 0 0 .72 4.13l.56.65a4.35 4.35 0 0 0 5.4 1 17.74 17.74 0 0 0 7.4-9.17 4.41 4.41 0 0 0-2.08-5.29l-.88-.48a4.06 4.06 0 0 0-3.27-.26Z" style="fill:#fff;opacity:.4"/><path d="M307.74 328.86a10.3 10.3 0 0 0 7.73 2.85 23.2 23.2 0 0 0 8.18-2.07c2.62-1.07 5.9-4.08 8.73-4a69 69 0 0 0 8.27-.57 43 43 0 0 0-1.18-11.2l-13.2-.35c-3.56 4.88-10.49 8.94-15.74 10.47a4.58 4.58 0 0 0-3.25 3.47.3.3 0 0 0 0 .08 5.3 5.3 0 0 0 .46 1.32" style="fill:#455a64"/><path d="M332.38 325.62c-2.83-.06-6.11 2.95-8.73 4a23.2 23.2 0 0 1-8.18 2.07 10.3 10.3 0 0 1-7.73-2.85 5.3 5.3 0 0 1-.45-1.34.3.3 0 0 1 0-.08 4 4 0 0 0 0 1.76 5.5 5.5 0 0 0 .45 1.34 10.3 10.3 0 0 0 7.73 2.84 23.4 23.4 0 0 0 8.18-2.06c2.62-1.08 5.9-4.09 8.73-4a62 62 0 0 0 8.14-.47c.07-.59.1-1.18.13-1.77a69 69 0 0 1-8.27.56M369.65 330.1a19.3 19.3 0 0 1-.4 4 9.3 9.3 0 0 1-3.66 5.84 11.77 11.77 0 0 1-5.82 1.54 12.7 12.7 0 0 1-5.32-.55 6.05 6.05 0 0 1-3.11-2.54.2.2 0 0 0 0 .07 5.56 5.56 0 0 0 3.59 3.73 12.9 12.9 0 0 0 5.32.55 11.66 11.66 0 0 0 5.81-1.55 9.22 9.22 0 0 0 3.66-5.84 19 19 0 0 0 .4-4 6.8 6.8 0 0 1 2.15-4.9q.5-.46.93-1a2.42 2.42 0 0 0 .58-1.75c0-.25-.05-.49-.08-.73-.48.57-1.63 1.92-1.91 2.19a6.73 6.73 0 0 0-2.14 4.94" style="fill:#263238"/><path d="M359.55 316.15a14.63 14.63 0 0 1-1 8.12 31 31 0 0 1-4.29 7.06 21 21 0 0 0-2.25 3.29 5.82 5.82 0 0 0-.64 3.78 6.05 6.05 0 0 0 3.11 2.54 12.7 12.7 0 0 0 5.32.55 11.77 11.77 0 0 0 5.82-1.54 9.3 9.3 0 0 0 3.66-5.84 19.3 19.3 0 0 0 .4-4 6.73 6.73 0 0 1 2.15-4.89c.28-.27 1.43-1.62 1.91-2.19a14.9 14.9 0 0 0-2-5.66Z" style="fill:#455a64"/><path d="m320.55 185.76 1.1 75.3 3.56 52.7c9 5.69 15.51 1 15.51 1 3.41-25 3.87-40.33 2-50.72l1.71-40.63 5.12 42.18 8.6 51.71c9.23 6 15.74 0 15.74 0 0-19.14 1.71-40.54-3.56-54.34a317.4 317.4 0 0 0-2.48-76.46Z" style="fill:#263238"/><path d="m342.55 207.93 1.89 15.52-.8 19-3.47-31.28c-8-3.14-9.07-7.56-9.07-7.56a24.7 24.7 0 0 0 11.45 4.32" style="opacity:.30000000000000004"/><path d="m337.65 120-8.8.93c-7.21 6.36-10.93 19.7-9.38 34.43a261 261 0 0 1 1.08 30.4c19.54 14.27 44.2 3.88 47.31.78l-1.45-18.07a12.5 12.5 0 0 1 1-5.95c1.85-4.28 5.14-12.72 5.58-19.25a34.24 34.24 0 0 0-3.56-16.83l-12.8-5.58Z" style="fill:#ebebeb"/><path d="M335.21 132.84c-7.37 16.94-7.25 34.39-7.25 34.39l3.62 7.79 5.68-7.44a294 294 0 0 1 .69-34.24Z" style="fill:#455a64"/><path d="M334.9 126.44a26.6 26.6 0 0 0 .31 6.4 5.1 5.1 0 0 0 2.74.5 22.3 22.3 0 0 0 4.39-5.31l-4.34-1.59Z" style="fill:#455a64"/><path d="M338 126.44c3.79 1.4 7.16 8.14 7.16 8.14 9.95-8.45 11.5-13.72 11.5-13.72a19.9 19.9 0 0 0-4.82-5.1ZM338 126.44c-2.9.08-5.45 4.11-5.45 4.11-.47-7.06 5.45-12.49 5.45-12.49Z" style="fill:#fafafa"/><path d="M356.62 87.31a7.84 7.84 0 0 0-5-2.7l-26.2 2.46c-3 6.5-.61 10.8-.61 10.8-.4 9.9-.74 16.2 3.55 18.29a19.8 19.8 0 0 0 9.57 1.35 22.4 22.4 0 0 0 8.77-2.37l.14-.07a7.51 7.51 0 0 0 3.76-5 41.5 41.5 0 0 0 .9-5.86 23 23 0 0 1 .37-3.34 5.84 5.84 0 0 1 1.47-3 3.37 3.37 0 0 1 3-1 3 3 0 0 1 .54.21c.74-4.41.96-8.23-.26-9.77" style="fill:#263238"/><path d="M347 88.07a9.3 9.3 0 0 0 .35 5.56A41 41 0 0 1 349 99a8.9 8.9 0 0 1-.72 5.46 6.32 6.32 0 0 1-4.17 3.39c-2.82.6-5.57-1.06-8.39-1.62a11.6 11.6 0 0 0-7.89 1.42 1.37 1.37 0 0 1-2.06-1.11c-.33-5.7-.33-14.64.51-18.84ZM349.69 113.54l-.01.01z" style="fill:#ffa8a7"/><path d="m352 107.05-.11 5.08a8 8 0 0 0 2.44-3.84 3.53 3.53 0 0 1-2.33-1.24" style="fill:#37474f"/><path d="m334.97 98.18-4.78 5.87 4.38 1.57zM338.58 108.54l-3.69 1.15a2.27 2.27 0 0 0 2.49 1.16 2.07 2.07 0 0 0 1.2-2.31" style="fill:#f28f8f"/><path d="m338.58 108.54-3.69 1.15a2.27 2.27 0 0 0 2.49 1.16 2.07 2.07 0 0 0 1.2-2.31" style="opacity:.30000000000000004"/><path d="M336.17 110.78a2 2 0 0 0 1.21.07 1.88 1.88 0 0 0 1.2-1.69 2.22 2.22 0 0 0-1.43.26 2.27 2.27 0 0 0-.98 1.36" style="fill:#f28f8f"/><path d="M341.47 99.47a1.31 1.31 0 1 1-1.24-1.41 1.33 1.33 0 0 1 1.24 1.41M330.49 98.44a1.31 1.31 0 1 1-1.24-1.44 1.33 1.33 0 0 1 1.24 1.44M329.49 93.07l-3 1.88a1.9 1.9 0 0 1 .68-2 2.17 2.17 0 0 1 2.32.12M340.72 93.53l2.8 2.19a1.92 1.92 0 0 0-.46-2.12 2.17 2.17 0 0 0-2.34-.07" style="fill:#263238"/><path d="M358.69 99a3.73 3.73 0 0 0-1.82-1.93 3 3 0 0 0-.54-.21 3.37 3.37 0 0 0-3 1 5.84 5.84 0 0 0-1.47 3 23 23 0 0 0-.37 3.34 42 42 0 0 1-.93 6 7.4 7.4 0 0 1-3.74 4.87l-.13.07a22.4 22.4 0 0 1-8.77 2.37v8.93l12.39-7.33a3 3 0 0 0 1.46-2.52c0-1.43.07-3 .1-4.46l.11-5.08a3.53 3.53 0 0 0 2.33 1.24 3.3 3.3 0 0 0 1.22-.06 4.66 4.66 0 0 0 2.73-2.37 8.9 8.9 0 0 0 .87-3.6 7.3 7.3 0 0 0-.44-3.26" style="fill:#ffa8a7"/><path d="M348.45 115a8.4 8.4 0 0 0 1.53-3.22 7.35 7.35 0 0 1-3.17 3.33l-.13.07a22.4 22.4 0 0 1-8.77 2.37v2.28a21.8 21.8 0 0 0 5.19-1.11 11.74 11.74 0 0 0 5.35-3.72" style="opacity:.2"/><path d="M353.23 85.35c-3.08 2.74-8 4-12.06 4.51a32.1 32.1 0 0 1-12.24-1c-1.66-.44-3.43-1.08-4.38-2.51a6.33 6.33 0 0 1 4.19-9.51c3.88-.71 7.59 2.3 11.53 2.07a20.7 20.7 0 0 0 4.94-1.33 7.55 7.55 0 0 1 5-.22 5.12 5.12 0 0 1 2.86 3.16 8.8 8.8 0 0 1 .16 4.83" style="fill:#263238"/><path d="m312.74 186.17-9-36.74a4.33 4.33 0 0 0-2-2.72l-22.44-12.92a.83.83 0 0 0-.42-.11 2.11 2.11 0 0 0-2 1.43.8.8 0 0 0-.06.57l9 36.74a4.33 4.33 0 0 0 2 2.72l22.44 12.92a.9.9 0 0 0 .59.1 2.63 2.63 0 0 0 1.88-1.42v-.07a.82.82 0 0 0 .01-.5" style="fill:#455a64"/><path d="m311.51 187.09-9-36.74a4.38 4.38 0 0 0-2-2.72L278 134.71a.86.86 0 0 0-1.22.39.8.8 0 0 0-.06.57l9 36.74a4.33 4.33 0 0 0 2 2.72l22.44 12.92a.9.9 0 0 0 .59.1.87.87 0 0 0 .76-1.06" style="fill:#455a64;opacity:.30000000000000004"/><path d="M356.61 120.86c-3.17 7.13-13 12.3-14.27 28.48s2.3 48.14 5 56.48c10.52 4 25.68-2.64 25.68-2.64-2.84-10.59-5.74-39.7-4.47-54.57S366 124.94 366 124.94Z" style="fill:#0acbcb"/><path d="M354 138.2a2.16 2.16 0 0 0 .4-3l-2.48-3.21 5-1a2.16 2.16 0 0 0 1.7-2.68l-1.95-7.44c-3.17 7.13-13 12.3-14.27 28.48-.13 1.67-.21 3.48-.24 5.37 2.21-4.55 6.74-12.72 11.84-16.52" style="fill:#0acbcb"/><path d="M354 138.2a2.16 2.16 0 0 0 .4-3l-2.48-3.21 5-1a2.16 2.16 0 0 0 1.7-2.68l-1.95-7.44c-3.17 7.13-13 12.3-14.27 28.48-.13 1.67-.21 3.48-.24 5.37 2.21-4.55 6.74-12.72 11.84-16.52" style="fill:#fff;opacity:.2"/><path d="M336.17 120.06a29 29 0 0 0-3.22 4.25c-4.5 7.22-7.06 14.76-9.07 42.89-1.1 12.71 2.43 31.71 2.43 31.71-2.45-.27-8.38-7.29-8.38-7.29 1.52-14.37-2.88-39.83 0-53.16s10.92-17.53 10.92-17.53Z" style="fill:#0acbcb"/><path d="m336.17 120.06-8.32 4.94a1.09 1.09 0 0 0-.16 1.76l1.16 1-3.78 1.91a3.26 3.26 0 0 0-1.8 2.86 92 92 0 0 0 2.14 17.94c1.79-14.94 4.1-20.65 7.54-26.17a29 29 0 0 1 3.22-4.24" style="fill:#0acbcb"/><path d="m336.17 120.06-8.32 4.94a1.09 1.09 0 0 0-.16 1.76l1.16 1-3.78 1.91a3.26 3.26 0 0 0-1.8 2.86 92 92 0 0 0 2.14 17.94c1.79-14.94 4.1-20.65 7.54-26.17a29 29 0 0 1 3.22-4.24" style="fill:#fff;opacity:.2"/><path d="M366 124.94c-5 5.12-10.87 22-13.33 29.61l-5.42 15.2c-7.81.4-8.61 1.47-15 2.6-2.05.36-6.71 1.35-9.8 1.7a16 16 0 0 1-1.7 0c-2.61-.36-7.88-4.51-15.2-5.34a3 3 0 0 0 1.51 4l5.09 2.32c-4.67.94-12.53-5.71-14.92-4.66s1 3.48 1 3.48c-.87 3 1.93 4.94 1.93 4.94 0 2.95 2.72 5.44 9.52 7.05 3.59.72 7.46-.69 10.78-.69h2.68l29.93.65a9.35 9.35 0 0 0 8.36-5.15c2.56-5.09 6.21-12.43 7.17-14.75 13.02-31.23 11.94-37.9-2.6-40.96" style="fill:#ffa8a7"/><path d="M325.31 178.5h-3.98v-4.75l3.98-.49zM325.31 185.71h-3.98v-4.76l3.98-.49z" style="fill:#37474f"/><path d="M327.42 180.92c0-1.75-1.84-3.16-4.1-3.16s-4.09 1.41-4.09 3.16v1h.24a4.55 4.55 0 0 0 7.71 0h.24Z" style="fill:#263238"/><path d="M327.42 182c0 1.74-1.84 3.16-4.1 3.16s-4.09-1.42-4.09-3.16 1.83-3.16 4.09-3.16 4.1 1.36 4.1 3.16" style="fill:#455a64"/><path d="M323.32 183.83a2.79 2.79 0 0 1-3-2.09v.21c0 1.27 1.33 2.3 3 2.3s3-1 3-2.3a1.3 1.3 0 0 0 0-.21 2.78 2.78 0 0 1-3 2.09" style="fill:#263238"/><path d="M323.32 183.83a2.22 2.22 0 1 0-3-2.09 2.78 2.78 0 0 0 3 2.09" style="fill:#37474f"/><path d="M366 124.94c-11.08 11.47-16 33.49-16 33.49-2.25 6.75-3.07 10.21-3.07 10.21s-5.1.68-9.31 1.7v15.71l14.16.43a12.17 12.17 0 0 0 11.36-6.92c2.65-5.54 6-12.68 7.19-15.28 0 0 5.43-11.36 7.37-20.92 2.64-14.54-2.83-16.7-11.7-18.42" style="fill:#0acbcb"/><path d="M366 124.94c-11.08 11.47-16 33.49-16 33.49-2.25 6.75-3.07 10.21-3.07 10.21s-5.1.68-9.31 1.7v15.71l14.16.43a12.17 12.17 0 0 0 11.36-6.92c2.65-5.54 6-12.68 7.19-15.28 0 0 5.43-11.36 7.37-20.92 2.64-14.54-2.83-16.7-11.7-18.42" style="fill:#fff;opacity:.2"/><path d="m332.25 172.35 1.61-.31c2.9 5.8.68 13.32.68 13.32h-1.18a2.84 2.84 0 0 0 2.69 2.28l3.35.1a2.85 2.85 0 0 0 2.82-2.08c1.35-4.73.43-10-.54-13.53a4.28 4.28 0 0 0-5.13-3l-1.17.28a4.3 4.3 0 0 0-3.13 3Z" style="fill:#0acbcb"/><path d="m332.25 172.35 1.61-.31c2.9 5.8.68 13.32.68 13.32h-1.18a2.84 2.84 0 0 0 2.69 2.28l3.35.1a2.85 2.85 0 0 0 2.82-2.08c1.35-4.73.43-10-.54-13.53a4.28 4.28 0 0 0-5.13-3l-1.17.28a4.3 4.3 0 0 0-3.13 3Z" style="fill:#fff;opacity:.4"/><path d="M357.15 170a10 10 0 0 0-9.06-5.61c-.84 2.82-1.18 4.25-1.18 4.25a22.4 22.4 0 0 1 10.24 1.36" style="opacity:.21"/></svg>