<svg xmlns="http://www.w3.org/2000/svg" viewBox="0 0 500 500"><defs><clipPath id="a"><path d="M375.4 220.53s-5.31 6-7.43 8.49-2.12 29-2.12 32.91-2.12 14.49 1.42 16.61 25.12 1.42 27.24-2.12 3.53-46 3.18-49.87-3.55-7-6-8.14-16.29 2.12-16.29 2.12" style="fill:none"/></clipPath><clipPath id="b"><path d="m390.35 237-32.77 7.82a5.77 5.77 0 0 1-6.37-3.59l-12.46-35 4.3-2.16 14.16 23.1a4 4 0 0 0 4.32 2l19.61-5.55" style="fill:none"/></clipPath><clipPath id="c"><path d="M376.88 280.23c-4.25 0-8.36-.36-9.87-1.26-3-1.79-2.36-8.51-1.91-13.42.13-1.47.25-2.73.25-3.62 0-11.44.29-31 2.24-33.23 2.1-2.45 7.38-8.44 7.44-8.5l.1-.12h.16c1.43-.34 14-3.27 16.59-2.09 2.87 1.32 5.95 4.67 6.31 8.54s-1.07 46.55-3.25 50.17c-1.48 2.48-9.93 3.22-13.49 3.43-1.45.06-3.03.1-4.57.1M375.67 221c-.76.86-5.39 6.12-7.32 8.37-1.23 1.44-2 13.92-2 32.58 0 .94-.12 2.22-.25 3.71-.4 4.38-1 11 1.43 12.47 1.55.93 7.51 1.36 13.86 1 6.77-.39 11.87-1.57 12.69-2.94 2-3.38 3.46-45.73 3.11-49.57s-3.62-6.76-5.73-7.73c-1.67-.8-10.3.81-15.79 2.11" style="fill:none;clip-path:url(#a)"/></clipPath><clipPath id="d"><path d="M356.61 245.35a6.29 6.29 0 0 1-5.86-4L338.13 206l5.1-2.57 14.41 23.5a3.49 3.49 0 0 0 3.79 1.8l19.57-5.56.27 1-19.61 5.55a4.52 4.52 0 0 1-4.89-2.28l-13.91-22.69-3.49 1.76L351.68 241a5.27 5.27 0 0 0 5.81 3.27l32.74-7.82.23 1-32.76 7.83a6.7 6.7 0 0 1-1.09.07" style="fill:none;clip-path:url(#b)"/></clipPath></defs><path d="M416.65 405c4 0 12.81-34.38 13.82-38a302.3 302.3 0 0 0 10.85-98.89c-2.45-41.35-7-86.33-30.64-118.29-47.9-64.83-137-56.66-182.29 7.29C215 176 201 195.37 183 207.85c-20.45 14.24-44.52 12.31-66.47 21.13-33.35 13.4-59.25 60.09-58.37 103.51.71 35.16 22.5 70.73 52.45 73.3 28.7 2.46 305.92-.79 306.04-.79" style="fill:#ffecec"/><path d="M416.65 405c4 0 12.81-34.38 13.82-38a302.3 302.3 0 0 0 10.85-98.89c-2.45-41.35-7-86.33-30.64-118.29-47.9-64.83-137-56.66-182.29 7.29C215 176 201 195.37 183 207.85c-20.45 14.24-44.52 12.31-66.47 21.13-33.35 13.4-59.25 60.09-58.37 103.51.71 35.16 22.5 70.73 52.45 73.3 28.7 2.46 305.92-.79 306.04-.79" style="fill:#fff;opacity:.7000000000000001"/><path d="M372.45 140.26c-4-2.16-5.76-.36-7.2-2.16s4-6.48-6.84-11.17c0 0-.72-10.08-15.49-10.44s-10.8 10.08-14.76 12.6-5-1.44-9 1.09-2.16 7.56-5.4 8.28-7.57-3.24-11.53-.72-4 4.68-5.76 4.68-5.4-1.44-7.56 0-4.68 3.24-4.68 3.24h91.1s1.08-3.24-2.88-5.4" style="fill:#fff"/><path d="M200.67 142.3c-2.49-1.36-3.63-.23-4.53-1.36s2.49-4.07-4.31-7c0 0-.45-6.34-9.73-6.57s-6.8 6.34-9.29 7.93-3.17-.91-5.66.68-1.36 4.76-3.4 5.21-4.75-2-7.24-.45-2.5 2.94-3.63 2.94-3.4-.91-4.75 0l-2.95 2h57.3s.68-2.02-1.81-3.38" style="fill:#ffecec"/><path d="M200.67 142.3c-2.49-1.36-3.63-.23-4.53-1.36s2.49-4.07-4.31-7c0 0-.45-6.34-9.73-6.57s-6.8 6.34-9.29 7.93-3.17-.91-5.66.68-1.36 4.76-3.4 5.21-4.75-2-7.24-.45-2.5 2.94-3.63 2.94-3.4-.91-4.75 0l-2.95 2h57.3s.68-2.02-1.81-3.38" style="fill:#ffecec"/><path d="M200.67 142.3c-2.49-1.36-3.63-.23-4.53-1.36s2.49-4.07-4.31-7c0 0-.45-6.34-9.73-6.57s-6.8 6.34-9.29 7.93-3.17-.91-5.66.68-1.36 4.76-3.4 5.21-4.75-2-7.24-.45-2.5 2.94-3.63 2.94-3.4-.91-4.75 0l-2.95 2h57.3s.68-2.02-1.81-3.38" style="fill:#fff;opacity:.7000000000000001;isolation:isolate"/><path d="M65 401.81h394.64v6.39H65z" style="fill:#263238"/><path d="M443.64 307.52c-2-17.44-8.54-16.68-10.58-34.12s4.45-18.2 2.41-35.64-8.54-16.68-10.59-34.12 4.46-18.2 2.41-35.64-8.54-16.68-10.58-34.11l-1 3.53c-2 14-7.72 14.72-9.11 31-1.5 17.5 5 18.06 3.52 35.57s-8 16.95-9.52 34.46 5 18.06 3.52 35.57-8 17-9.51 34.46a42.6 42.6 0 0 0 1.52 16.92c1.35 3.13 7.05 14.71 18.54 18.07a19 19 0 0 0 2.22.5v58.48h2.63v-58.27c10.56.07 17.58-10.34 22.91-19.05l.07-.11a43.1 43.1 0 0 0 1.14-17.5m-11.88-6.9-13.05 24.22v18.22h-1.12v-18.2L403.06 301a.59.59 0 0 1 .2-.8.59.59 0 0 1 .8.21l13.57 22.27V254a.6.6 0 0 1-.26-.18l-11.61-15a.56.56 0 1 1 .89-.69l11 14.17V187l-7.81-15.62a.57.57 0 0 1 .29-.74.56.56 0 0 1 .71.24l6.8 13.61v-22.76a.56.56 0 0 1 1.12 0v22.14l4.54-11.48a.56.56 0 1 1 1.05.41l-5.59 14.14v64.59l10.63-12.61a.56.56 0 1 1 .86.72l-11.49 13.64v69.19l12.06-22.39a.56.56 0 0 1 .76-.22.55.55 0 0 1 .18.76" style="fill:#263238"/><path d="m451 402.43-3.12-1c-1.61-.49-2.14-1.95-3.74-4.87s-5.88 1.46-9.09 1.46.53-3.41-1.07-6.33-5.88.49-9.62-.49 1.6-9.74-3.74-9.25c-1 .09-1.73.88-2.29 2.1-.51-1.22-1.18-2-2.08-2.1-4.87-.49 0 8.28-3.41 9.25s-7.3-2.43-8.76.49 1.94 6.33-1 6.33-6.82-4.38-8.28-1.46-1.95 4.38-3.41 4.87l-2.84 1ZM175 259.61v-.05h-.06v-.05c-1.39-.14-15.78-1.37-28.91 5.45a35.18 35.18 0 0 0 7.43-25.83c-3.16-31.7-33.08-49.85-35.38-51.2v-.08h-.14v.15c-2.31 1.35-32.22 19.5-35.39 51.2a35.3 35.3 0 0 0 2.74 18C68.45 247.13 48.81 248.83 47 249h-.2v.06c-.89 2-12.13 29.08 1.37 52 12.08 20.53 37.41 15.11 44.29 13.18 5.78 6.07 16.32 19.88 21 43.47h-6.56l3.17 44.66h14.76l3.17-44.6h-7.73a136.5 136.5 0 0 1 18.86-44.92c6.88 1.72 25.53 4.62 34.72-11 10.96-18.65 1.83-40.57 1.15-42.24m-57.46-.17-15.6-21.67a.42.42 0 0 1 .09-.59.43.43 0 0 1 .6.09L117.52 258v-21.93l-15.6-21.66a.43.43 0 0 1 .09-.6.44.44 0 0 1 .6.1l14.93 20.75v-32a.44.44 0 0 1 .49-.36.42.42 0 0 1 .36.36v30.89l16.2-20.55a.43.43 0 0 1 .59-.08.43.43 0 0 1 .07.59L118.37 235v22l16.2-20.55a.42.42 0 0 1 .6-.07.42.42 0 0 1 .07.59l-16.87 21.4v18.56l16.2-20.54a.43.43 0 0 1 .59-.08.43.43 0 0 1 .07.59l-16.86 21.4v.41H117l-15.09-21a.43.43 0 0 1 .09-.6.44.44 0 0 1 .6.1L117.52 278v-18.6Zm-24.83 52.89-1.53-2.1-22-6.12a.36.36 0 0 1 .19-.69l21.13 5.88-9.17-12.54-21.95-6.12a.36.36 0 0 1-.25-.44.35.35 0 0 1 .43-.24l21.09 5.88L69.81 281l-22-6.12a.33.33 0 0 1-.24-.41.35.35 0 0 1 .43-.25l21.09 5.88-15.2-20.86a.36.36 0 0 1 .08-.5.35.35 0 0 1 .48.06l15.78 21.58-.15-21.38a.35.35 0 0 1 .3-.41.35.35 0 0 1 .41.29.24.24 0 0 1 0 .12l.21 22.32 10.83 14.83-.15-21.39a.35.35 0 0 1 .3-.41.35.35 0 0 1 .41.29.24.24 0 0 1 0 .12l.16 22.34 9 12.5-.16-21.39a.37.37 0 0 1 .36-.35.35.35 0 0 1 .35.35l.16 22.33 1.31 1.79Zm2.5 0c3.2-4.87 12.44-20.86 6.92-36.25a69.6 69.6 0 0 0 13.69 7v69.44c-5.07-21.28-14.62-34-20.43-40.19Zm24 35.91V283.4a69.3 69.3 0 0 0 13.09-6.4c-8.81 14.12 1 30.43 3.66 34.28a135.8 135.8 0 0 0-16.75 36.96m54.92-67.69-17.81 5-8.8 12 17.11-4.78a.29.29 0 0 1 .36.21.29.29 0 0 1-.2.35l-17.82 5-7.43 10.17 17.11-4.77a.29.29 0 0 1 .35.2.3.3 0 0 1-.2.36l-17.81 5-.94 1.28c-.17-.1-.34-.19-.49-.3l.53-.73.13-18.12a.3.3 0 0 1 .29-.29.29.29 0 0 1 .29.29l-.12 17.35 7.43-10.16.13-18.12a.29.29 0 0 1 .29-.29.3.3 0 0 1 .29.29l-.13 17.36 8.79-12 .13-18.13a.29.29 0 0 1 .57 0L156 285l12.8-17.51a.29.29 0 0 1 .4-.06.28.28 0 0 1 .07.39l-12.37 16.93L174 280a.29.29 0 0 1 .35.2.27.27 0 0 1-.17.34Z" style="fill:#263238"/><path d="m344.9 198.49-2.65-7.94-5.58-7.64-3.2 8.91 7.31 9.61z" style="fill:#fff"/><path d="m340.68 202.12-7.77-10.21 3.6-10.06 6.22 8.55 2.76 8.29ZM334 191.74l6.86 9 3.42-2.44-2.51-7.51-5-6.83Z" style="fill:#263238"/><path d="m384.4 223.17-22.24.78a4.3 4.3 0 0 1-4-2.35l-13.26-23.11s-3.82 2.06-4.12 2.94 8.86 23.1 12.79 33a4.29 4.29 0 0 0 4.2 2.71l24.87-1" style="fill:#ffecec"/><path d="M357.59 237.66a4.81 4.81 0 0 1-4.48-3c-.8-2-1.81-4.54-2.92-7.29-8.67-21.63-10.07-25.48-9.88-26.06.32-1 3.15-2.57 4.35-3.22l.43-.23 13.5 23.53a3.84 3.84 0 0 0 3.55 2.1l22.24-.78v1l-22.24.78a4.86 4.86 0 0 1-4.47-2.62l-13-22.66a14.4 14.4 0 0 0-3.42 2.37c.27 1.57 6 15.89 9.83 25.42 1.1 2.75 2.12 5.28 2.92 7.29a3.79 3.79 0 0 0 3.71 2.4l24.87-1v1l-24.87 1Z" style="fill:#263238"/><path d="M342.91 202.98h3.77v.75h-3.77z" style="fill:#263238" transform="rotate(-22.52 344.784 203.342)"/><path d="M144.48 241.56h210.3v158.97h-210.3z" style="fill:#ffecec"/><path d="M354.78 401h-210.3a.5.5 0 0 1-.5-.5v-159a.5.5 0 0 1 .5-.5h210.3a.52.52 0 0 1 .5.5v159a.5.5 0 0 1-.5.5M145 400h209.3V242H145Z" style="fill:#263238"/><path d="m144.48 241.56 93.26-91.08a15.89 15.89 0 0 1 20.35-.16l96.69 91.24Z" style="fill:#ffecec"/><path d="M354.78 242.06h-210.3a.49.49 0 0 1-.46-.31.51.51 0 0 1 .11-.55l93.26-91.07a16.39 16.39 0 0 1 21-.2l96.71 91.27a.49.49 0 0 1 .12.55.5.5 0 0 1-.44.31m-209.07-1h207.81l-95.77-90.38a15.36 15.36 0 0 0-19.68.19Z" style="fill:#263238"/><path d="M161.92 165.68h175.42v148.04H161.92z" style="fill:#fff"/><path d="M337.34 314.21H161.92a.5.5 0 0 1-.5-.5v-148a.5.5 0 0 1 .5-.5h175.42a.5.5 0 0 1 .5.5v148a.5.5 0 0 1-.5.5m-174.92-1h174.42v-147H162.42Z" style="fill:#263238"/><path d="M329.65 304.71h-160a.38.38 0 0 1-.38-.38V175.06a.38.38 0 0 1 .38-.37h160a.39.39 0 0 1 .37.37v129.27a.38.38 0 0 1-.37.38M170 304h159.27V175.44H170Z" style="fill:#ffecec"/><path d="M324.54 301.2H174.72a1 1 0 0 1-1-1v-121a1 1 0 0 1 1-1h149.82a1 1 0 0 1 1 1v121a1 1 0 0 1-1 1m-148.82-2h147.82v-119H175.72Z" style="fill:#ffecec"/><path d="M243.81 221.61c.74 1.17 1.51 1.76 2.31 1.76v.09c-.52 0-1.2.46-2 1.38 0 .25-.09.37-.28.37 0-.47-.3-.87-.92-1.2a3.9 3.9 0 0 0-1.94-.37h-20.61l-1.94.74-.28.28H218a1.43 1.43 0 0 1-.42-2 1.4 1.4 0 0 1 .42-.42h.18a4.6 4.6 0 0 0 2 .83l.19.19h21.23c1.47-.26 2.21-.77 2.21-1.65m3.33-.64c.81 0 1.46.58 1.93 1.75v.19h-.27c-1.3-.42-1.94-.91-1.94-1.48v-.19Zm1.56 3h.19l.18.19c0 .51-.52 1.09-1.57 1.75h-.09c-.32 0-.51-.09-.55-.27v-.37a3.15 3.15 0 0 1 1.84-1.27Zm3.51-3 .19.27v.19c0 .43-.56.92-1.66 1.48h-.56v-.19c0-.51.49-1.06 1.48-1.66Zm-1.84 3a2.1 2.1 0 0 1 1.2.47c.55.32.83.66.83 1v.19c-.06.18-.25.27-.56.27h-.09a3.43 3.43 0 0 1-1.38-1.29l-.19-.28v-.18Zm5.07-2.4c0 .88.74 1.43 2.22 1.67h21.23a2.37 2.37 0 0 1 1.38-.47l.83-.55h.19a1.44 1.44 0 0 1 0 2.4h-.19a6.5 6.5 0 0 0-2.4-1h-20.4c-1.5 0-2.46.44-2.86 1.3v.27c-.77-1-1.41-1.57-1.94-1.57q0-.18-.36-.18c0-.12.21-.18.64-.18a3 3 0 0 0 1.57-1.67ZM144.48 242.47l105.15 79.48 105.14-79.48v158.96H144.48z" style="fill:#ffecec"/><path d="M354.78 401.93h-210.3a.5.5 0 0 1-.5-.5v-159a.54.54 0 0 1 .8-.44l104.85 79.25L354.47 242a.5.5 0 0 1 .7.08.5.5 0 0 1 .11.31v159a.5.5 0 0 1-.45.55Zm-209.8-1h209.3V243.47l-104.35 78.88a.51.51 0 0 1-.6 0L145 243.47Z" style="fill:#263238"/><path d="m144.48 401.43 90.53-90.53h29.23l90.53 90.53z" style="fill:#ffecec"/><path d="M354.78 401.93h-210.3a.51.51 0 0 1-.46-.3.49.49 0 0 1 .11-.55l90.53-90.53a.47.47 0 0 1 .35-.15h29.23a.47.47 0 0 1 .35.15l90.54 90.53a.53.53 0 0 1 .11.55.51.51 0 0 1-.46.3m-209.09-1h207.88L264 311.4h-28.78Z" style="fill:#263238"/><path d="m378.5 212.06-.29 8.43 10.05-1.6.35-14.7z" style="fill:#fff"/><path d="m377.69 221.08.31-9.27 11.14-8.66-.39 16.17Zm1.3-8.77-.26 7.59 9-1.44.31-13.23Z" style="fill:#263238"/><path d="M370 399.41a14 14 0 0 1-.51-1.8l-.57-4.23-7.4-1.18-6.17 4.39-3.92 2.16h-.08a15 15 0 0 0-2.75 1.46c-.65.57-.33 1.21 1.62 1.21h19.38s.94-.55.4-2.01" style="fill:#fff"/><path d="M369.7 401.93h-19.51c-1.35 0-2.15-.3-2.37-.89a1.06 1.06 0 0 1 .42-1.2 15 15 0 0 1 2.89-1.54h.11l3.84-2.11 6.29-4.48 8 1.28.61 4.59a16 16 0 0 0 .49 1.69 2.07 2.07 0 0 1-.62 2.64Zm-20.93-1.19a4 4 0 0 0 1.42.19h19.21c.15-.15.41-.55.11-1.34a15 15 0 0 1-.54-1.87l-.52-3.9-6.83-1.1-6 4.28-4.13 2.24a14 14 0 0 0-2.58 1.35.5.5 0 0 0-.13.15Z" style="fill:#263238"/><path d="M370.12 400H348.9a2 2 0 0 0-.33.25c-.65.57-.33 1.21 1.62 1.21h19.38a1.42 1.42 0 0 0 .55-1.46" style="fill:#fff"/><path d="M369.7 401.93h-19.51c-1.35 0-2.15-.3-2.37-.89a1.06 1.06 0 0 1 .42-1.2 3 3 0 0 1 .39-.28l.12-.09h21.8l.07.43a1.92 1.92 0 0 1-.8 2Zm-20.93-1.19a4 4 0 0 0 1.42.19h19.2a.9.9 0 0 0 .23-.46h-20.57l-.15.12a.5.5 0 0 0-.13.15" style="fill:#263238"/><path d="M402.65 399.41a16 16 0 0 1-.52-1.8l-.56-4.23-7.4-1.18-6.17 4.39-3.92 2.16H384a15 15 0 0 0-2.76 1.46c-.65.57-.32 1.21 1.62 1.21h19.38s.97-.55.41-2.01" style="fill:#fff"/><path d="M402.38 401.93h-19.52c-1.35 0-2.14-.3-2.37-.89a1.06 1.06 0 0 1 .42-1.2 15 15 0 0 1 2.89-1.54h.12l3.83-2.11 6.3-4.48 8 1.28.61 4.59a16 16 0 0 0 .48 1.69 2.05 2.05 0 0 1-.62 2.64Zm-20.93-1.19a3.7 3.7 0 0 0 1.41.19h19.21c.15-.15.42-.55.11-1.34a17 17 0 0 1-.53-1.87l-.53-3.9-6.83-1.1-6 4.28-4.13 2.24a14 14 0 0 0-2.58 1.35.6.6 0 0 0-.13.15" style="fill:#263238"/><path d="M402.8 400h-21.22a3 3 0 0 0-.34.25c-.65.57-.32 1.21 1.62 1.21h19.38a1.43 1.43 0 0 0 .56-1.46" style="fill:#fff"/><path d="M402.38 401.93h-19.52c-1.35 0-2.14-.3-2.37-.89a1.06 1.06 0 0 1 .42-1.2 3 3 0 0 1 .39-.28l.13-.09h21.8l.06.43a1.91 1.91 0 0 1-.79 2Zm-20.93-1.19a3.7 3.7 0 0 0 1.41.19h19.21a.9.9 0 0 0 .23-.46h-20.57l-.16.12a.6.6 0 0 0-.13.15Z" style="fill:#263238"/><path d="m367.28 275.53-.89 11s-6.15 43.76-5.86 48.79 1 56.93 1 56.93l7.4 1.18 8.32-57.57 11.68-58.5Z" style="fill:#ffecec"/><path d="m369.32 394-8.32-1.38v-.42c0-.52-.66-51.93-.95-56.9s5.61-47.1 5.86-48.89l.92-11.42 22.67 1.86-.11.55-11.69 58.51Zm-7.32-2.23 6.48 1 8.24-57.07 11.58-58-20.55-1.7-.85 10.45c-.06.47-6.14 43.8-5.86 48.72s.88 51.64.96 56.6" style="fill:#263238"/><path d="M366.69 391.11 366 391c0-.16 3.2-16.45 3.2-25.22s0-17.15 2.14-25.39c2.11-8.08 5-24.74 5-24.91l.74.13c0 .17-2.88 16.85-5 25S370 357 370 365.81s-3.28 25.19-3.31 25.3" style="fill:#263238"/><path d="M382.3 272.83c4.89-2.55 10.14-4.26 11.62-.85 3 6.81-.59 17.17-.59 17.17l2.67 47.74 5.31 56.52-8.35-.08s-10.79-48.64-12.56-51.6-4.58-44.59-4.58-44.59l-5.6-5.14" style="fill:#ffecec"/><path d="m401.9 393.91-9.3-.09-.09-.39c-3.72-16.79-11.13-49.16-12.5-51.45-1.76-2.93-4.29-39.48-4.63-44.61l-5.5-5 .67-.74 5.8 5.25v.2c1.12 16.69 3.25 42.27 4.51 44.37 1.73 2.89 11.43 46.43 12.53 51.36l7.4.07-5.26-56-2.72-47.88v-.1c0-.1 3.45-10.26.6-16.8a2.39 2.39 0 0 0-1.48-1.4c-1.82-.65-5.09.22-9.45 2.49l-.46-.89c4.67-2.44 8.12-3.29 10.25-2.54a3.38 3.38 0 0 1 2.06 1.94c2.88 6.64-.17 16.31-.55 17.43l2.71 47.65Z" style="fill:#263238"/><path d="M397.66 390.72c0-.2-2.17-20.45-5.34-34.87-2.4-10.93-2.22-11.59-2-12.58a4.4 4.4 0 0 0 .17-1.4v-2c.06-3.4.15-8.54-.72-11.41-1.33-4.45-2-10.8-2.18-19.42h.75c.13 8.55.84 14.83 2.15 19.22.9 3 .81 8.19.75 11.63v2a5.4 5.4 0 0 1-.19 1.6c-.22.82-.4 1.46 2 12.22 3.18 14.46 5.33 34.75 5.36 35ZM388.39 303.51h-.75v-2.62c.3-14.15.09-15.72 0-15.89l.34-.13-.34-.17.43-.2c.38.09.63.15.28 16.41.06.89.05 1.76.04 2.6M372 292.59a.4.4 0 0 1-.29-.13l-1.73-2a.34.34 0 0 1-.07-.36l1.14-3.43.23-5a.37.37 0 0 1 .39-.36.38.38 0 0 1 .36.38l-.24 5a.2.2 0 0 1 0 .11l-1.09 3.27 1.6 1.87a.37.37 0 0 1 0 .52.38.38 0 0 1-.3.13" style="fill:#263238"/><path d="M377.07 287.25c-5.59 0-7.86-2.2-8-2.31a.36.36 0 0 1 0-.51.37.37 0 0 1 .52 0s2.9 2.76 10.13 1.92a.36.36 0 0 1 .41.31.37.37 0 0 1-.31.42 23 23 0 0 1-2.75.17M387.16 282.18c5.64-1.1 6-2.69 7.93-4a16.3 16.3 0 0 0-1.17-6.21c-1.48-3.41-6.73-1.7-11.62.85l-2.3 3.75-12.67-1-.4 5a42.3 42.3 0 0 0 20.23 1.61" style="fill:#263238"/><path d="m368.54 278.97-.12 1.98 3.22.74.24-2.59z" style="fill:#fff"/><path d="m372 282.16-3.94-.91.16-2.67 4.1.16Zm-3.16-1.5 2.49.57.17-1.77-2.57-.1Z" style="fill:#263238"/><path d="m390.99 281.9-.55-4.91 1.64-.55.82 4.37" style="fill:#ffecec"/><path d="m390.49 281.96-.59-5.32 2.56-.86.93 4.94-.98.18-.72-3.8-.71.23.5 4.52z" style="fill:#263238"/><path d="m378.42 283.55-1.1-5.74h2.73l1.1 4.92" style="fill:#ffecec"/><path d="m377.92 283.64-1.2-6.33h3.74l1.18 5.31-.98.21-1.01-4.52h-1.72l.98 5.14z" style="fill:#263238"/><path d="M375.4 220.53s-5.31 6-7.43 8.49-2.12 29-2.12 32.91-2.12 14.49 1.42 16.61 25.12 1.42 27.24-2.12 3.53-46 3.18-49.87-3.55-7-6-8.14-16.29 2.12-16.29 2.12" style="fill:#fff"/><path d="M376.88 280.23c-4.25 0-8.36-.36-9.87-1.26-3-1.79-2.36-8.51-1.91-13.42.13-1.47.25-2.73.25-3.62 0-11.44.29-31 2.24-33.23 2.1-2.45 7.38-8.44 7.44-8.5l.1-.12h.16c1.43-.34 14-3.27 16.59-2.09 2.87 1.32 5.95 4.67 6.31 8.54s-1.07 46.55-3.25 50.17c-1.48 2.48-9.93 3.22-13.49 3.43-1.45.06-3.03.1-4.57.1M375.67 221c-.76.86-5.39 6.12-7.32 8.37-1.23 1.44-2 13.92-2 32.58 0 .94-.12 2.22-.25 3.71-.4 4.38-1 11 1.43 12.47 1.55.93 7.51 1.36 13.86 1 6.77-.39 11.87-1.57 12.69-2.94 2-3.38 3.46-45.73 3.11-49.57s-3.62-6.76-5.73-7.73c-1.67-.8-10.3.81-15.79 2.11" style="fill:#263238"/><g style="clip-path:url(#c)"><path d="M391.67 218.41a2.6 2.6 0 0 0-.92-.2l-1.53.8s4.24 3.28 5 8.29a44 44 0 0 1-.19 14.26c-.77 5.21-13.11 0-10.79 1.93s11 5.21 11.37 6.94-4.24 4.63-6 4.82 1.16 4.05 2.9 7.33 1.15 7.9-2.9 11-13.32 4.66-17.34 4.82c-1.31.05-2.13.34-2.36.73 6.17 1.37 23.67.48 25.57-2.69 2.13-3.54 3.53-46 3.18-49.87s-3.52-7.02-5.99-8.16" style="fill:#ffecec"/></g><path d="M386.27 247.46c-5.7-1.78-10.68-6.77-10.68-6.77a24.05 24.05 0 0 0 9.62 14.61" style="fill:#fff"/><path d="M385.21 255.67a.34.34 0 0 1-.22-.07 24.67 24.67 0 0 1-9.77-14.85.36.36 0 0 1 .2-.39.36.36 0 0 1 .43.06c0 .05 5 5 10.54 6.68a.38.38 0 0 1 .24.47.36.36 0 0 1-.46.25 29.5 29.5 0 0 1-9.93-6 24 24 0 0 0 9.18 13.18.36.36 0 0 1 .09.51.36.36 0 0 1-.3.16" style="fill:#263238"/><path d="m390.61 214.52-16.98 3.89-1.06 4.95 19.1-4.95z" style="fill:#fff"/><path d="m371.91 224.05 1.3-6.06 17.79-4.07 1.32 4.85Zm2.14-5.22-.82 3.85 17.83-4.63-.8-2.94Z" style="fill:#263238"/><path d="m341.67 192-4.57-2.64s-1.77-.23-1 1.76l4.56 3.52" style="fill:#fff"/><path d="M340.65 195.16a.47.47 0 0 1-.3-.1l-4.57-3.53a.47.47 0 0 1-.16-.21 1.92 1.92 0 0 1 .06-1.91 1.74 1.74 0 0 1 1.48-.53.6.6 0 0 1 .19.06l4.57 2.65a.5.5 0 1 1-.41.91l-.09-.05-4.42-2.58a.7.7 0 0 0-.5.15c-.1.13-.08.43.05.81l4.45 3.44a.49.49 0 0 1 .1.69.53.53 0 0 1-.45.2" style="fill:#263238"/><path d="M341 198.89a4.4 4.4 0 0 0-.93-1.47l-.85-.92-4.64-5.75s-1.44-1-1.12 1.12l2.88 5.59-5.12-4.79s-1-.8-1 .31 4.64 6.08 4.64 6.08l-5.12-2.4s-1.12.8-.32 1.6 5.12 2.4 5.12 2.4l-3.84-.16s-1.12 1-.32 1.28 5.28 1.28 5.28 1.28a6.5 6.5 0 0 0 1.92 1.12l1.12 2.08 4.3-2.16Z" style="fill:#fff"/><path d="M338.75 206.72a.51.51 0 0 1-.44-.26l-1-1.92a6.6 6.6 0 0 1-1.83-1.06c-.9-.2-4.44-1-5.2-1.27a.92.92 0 0 1-.59-.68c-.1-.64.57-1.27.77-1.45a.55.55 0 0 1 .35-.12h.94a10.7 10.7 0 0 1-2.59-1.42 1.32 1.32 0 0 1-.43-1.08 2 2 0 0 1 .81-1.28.48.48 0 0 1 .5-.05l2.87 1.35c-1.47-1.69-3.1-3.74-3.1-4.58a1 1 0 0 1 .51-1 1.32 1.32 0 0 1 1.27.32l3 2.84-1.56-3a.4.4 0 0 1 0-.15c0-.33-.2-1.35.45-1.77a1.41 1.41 0 0 1 1.45.16.5.5 0 0 1 .11.1l4.64 5.76a.6.6 0 0 1 .08.14l.73.79a5.1 5.1 0 0 1 1 1.62l2.05 5.17a.49.49 0 0 1-.24.63l-4.3 2.17a.7.7 0 0 1-.25.04m-8.07-5.42c.83.29 3.95 1 5.13 1.23a.5.5 0 0 1 .31.21 5.9 5.9 0 0 0 1.69.94.5.5 0 0 1 .26.22l.89 1.66 3.46-1.74-1.89-4.75a4.5 4.5 0 0 0-.83-1.31l-.86-.92a.6.6 0 0 1-.11-.2l-4.48-5.55a1.2 1.2 0 0 0-.31-.11 2 2 0 0 0 0 .69l2.84 5.53a.49.49 0 0 1-.14.62.49.49 0 0 1-.64 0l-5.12-4.8-.12-.08c0 .62 2.37 3.46 4.5 5.74a.5.5 0 0 1 0 .71.48.48 0 0 1-.55.09l-4.82-2.26a.75.75 0 0 0-.2.37.45.45 0 0 0 .14.28 24.3 24.3 0 0 0 4.94 2.28.51.51 0 0 1 .32.57.5.5 0 0 1-.51.4l-3.63-.15a1.6 1.6 0 0 0-.27.33" style="fill:#263238"/><path d="m390.35 237-32.77 7.82a5.77 5.77 0 0 1-6.37-3.59l-12.46-35 4.3-2.16 14.16 23.1a4 4 0 0 0 4.32 2l19.61-5.55" style="fill:#fff"/><path d="M356.61 245.35a6.29 6.29 0 0 1-5.86-4L338.13 206l5.1-2.57 14.41 23.5a3.49 3.49 0 0 0 3.79 1.8l19.57-5.56.27 1-19.61 5.55a4.52 4.52 0 0 1-4.89-2.28l-13.91-22.69-3.49 1.76L351.68 241a5.27 5.27 0 0 0 5.81 3.27l32.74-7.82.23 1-32.76 7.83a6.7 6.7 0 0 1-1.09.07" style="fill:#263238"/><g style="clip-path:url(#d)"><path d="M343.35 220.17s10.21 19.27 14.07 20.62 11.95-1.54 11.95-1.54-11.18-1-7.33-1.35 8.29.58 15.62-1.15 11-5 9.06-1.74-12.73 5.4-16.58 6.75-12.34 3.47-14.84 3.08a5.37 5.37 0 0 1-3.67-2.89Z" style="fill:#ffecec"/></g><path d="M340.18 209.18h5.58v.75h-5.58z" style="fill:#263238" transform="rotate(-26.6 342.972 209.56)"/><path d="M393.82 198.16a2.17 2.17 0 0 1 2.31 1.21 3.74 3.74 0 0 1-.15 3.57c-1.56 2.74-5.27 3.71-5.27 3.71s-3.52 5.08-7 6.45-9.14 1.68-10.75-5.47c-.7-3.14 1.37-16 1.37-16a7.1 7.1 0 0 1 2.44-4.9c2.32-1.77 7.72-2.1 10.81-1.11s5 3.86 5.85 6.07a13.2 13.2 0 0 1 .66 5.07l-.33 1.44Z" style="fill:#fff"/><path d="M379.76 214.38a7.2 7.2 0 0 1-3.44-.81c-1.94-1-3.25-3-3.88-5.83-.72-3.2 1.27-15.68 1.36-16.21a7.45 7.45 0 0 1 2.63-5.22c2.5-1.9 8.11-2.2 11.27-1.18 3.74 1.2 5.55 4.84 6.15 6.35a13.6 13.6 0 0 1 .7 5.3l-.19.87a2.64 2.64 0 0 1 2.22 1.51 4.23 4.23 0 0 1-.16 4c-1.47 2.56-4.61 3.65-5.41 3.9-.62.87-3.84 5.19-7.16 6.48a11.7 11.7 0 0 1-4.09.84m3.66-28.83c-2.43 0-5 .5-6.38 1.55a6.6 6.6 0 0 0-2.25 4.53c0 .18-2.06 12.88-1.38 15.89.57 2.54 1.71 4.28 3.38 5.17 2.5 1.33 5.52.41 6.7-.05 3.33-1.3 6.77-6.22 6.81-6.27l.1-.15.18-.05s3.53-1 5-3.48a3.19 3.19 0 0 0 .13-3.11 1.69 1.69 0 0 0-1.79-.92l-.82.13.5-2.16a13.1 13.1 0 0 0-.64-4.77c-.56-1.38-2.2-4.71-5.54-5.78a13.2 13.2 0 0 0-4-.53" style="fill:#263238"/><path d="M382.23 198.15c-.12.51 0 1 .24 1s.56-.3.68-.81 0-1-.24-1-.56.3-.68.81M376.8 197.13c-.12.5 0 1 .24 1s.56-.3.68-.8 0-1-.24-1-.56.29-.68.8M385.63 196.34a.42.42 0 0 1-.38-.24 3.24 3.24 0 0 0-2.62-1.6.43.43 0 0 1-.4-.46.45.45 0 0 1 .47-.4 4.08 4.08 0 0 1 3.32 2.08.42.42 0 0 1-.17.57.4.4 0 0 1-.22.05M375.45 195.18a.44.44 0 0 1-.31-.13.43.43 0 0 1 0-.61 3.09 3.09 0 0 1 3.5-.66.43.43 0 0 1 .16.59.42.42 0 0 1-.54.18 2.27 2.27 0 0 0-2.53.51.42.42 0 0 1-.28.12M379.1 202.48a1.81 1.81 0 0 1-1.67-1.23c-.17-.67.28-1.14.68-1.55a2.16 2.16 0 0 0 .68-1c.21-1 .47-2.84.47-2.85a.43.43 0 1 1 .86.12c0 .08-.27 1.84-.49 2.9a2.85 2.85 0 0 1-.9 1.43c-.35.36-.51.54-.47.72.13.51.9.58.9.59a.43.43 0 0 1 .4.46.43.43 0 0 1-.45.41ZM381.3 206a4.3 4.3 0 0 1-1.23-.18.43.43 0 0 1-.28-.54.44.44 0 0 1 .55-.28 2.84 2.84 0 0 0 2.33-.27.43.43 0 0 1 .52.69 3.18 3.18 0 0 1-1.89.58" style="fill:#263238"/><path d="M390.32 182.62s-4.3-3.72-8.41-3.72-7.42 2.35-10 2.54-4.3-2.15-5.87 1 4.3 8.4 8.21 9.19 9.38-.39 10.95-.59a30.6 30.6 0 0 1 4.49 0s-1.17 3.71 0 4.89a3.6 3.6 0 0 1 1.37 2.73 18 18 0 0 0 .39 2.54l1.17.39.59-2.15a12.43 12.43 0 0 0 3.12-6.06c.59-3.51-2.34-7-2.34-7Z" style="fill:#263238"/><path d="M378.4 190.59a29 29 0 0 1-4.58-.36.21.21 0 0 1-.17-.24.2.2 0 0 1 .23-.18c.06 0 6.68 1.23 11.79-.89 1.39-.57 2.18-1.34 2.36-2.3.35-1.84-1.68-3.82-1.7-3.84a.21.21 0 0 1 0-.31.23.23 0 0 1 .31 0c.09.08 2.22 2.16 1.82 4.23a3.74 3.74 0 0 1-2.61 2.62 20 20 0 0 1-7.45 1.27" style="fill:#fff"/><path d="M389 191.13a.22.22 0 0 1-.22-.19.22.22 0 0 1 .19-.24c.07 0 1.69-.21 2.53-2.56a2.84 2.84 0 0 0-.5-2.42 9.6 9.6 0 0 0-3.45-3.25.22.22 0 0 1-.22-.22.21.21 0 0 1 .21-.21c.46 0 2.41 1.42 3.57 3.07a3.49 3.49 0 0 1 .79 3.17c-.94 2.63-2.81 2.85-2.89 2.85Z" style="fill:#fff"/><text style="isolation:isolate;font-size:16.11634063720703px;fill:#263238;font-family:Montserrat-Light,Montserrat;font-weight:300" transform="translate(204.13 213.65)">INVI</text><text style="isolation:isolate;font-size:16.11634063720703px;fill:#263238;font-family:Montserrat-Light,Montserrat;font-weight:300;letter-spacing:-.13097513208903044em" transform="translate(237.07 213.65)">T<tspan x="6.88" y="0" style="letter-spacing:-.06501795823804288em">A</tspan></text><text style="isolation:isolate;font-size:16.11634063720703px;fill:#263238;font-family:Montserrat-Light,Montserrat;font-weight:300" transform="translate(255.51 213.65)">TION</text></svg>